<?xml version="1.0" encoding="utf-8"?>
<!-- Generator: Adobe Illustrator 21.1.0, SVG Export Plug-In . SVG Version: 6.00 Build 0)  -->
<svg version="1.1" id="图层_1" xmlns="http://www.w3.org/2000/svg" xmlns:xlink="http://www.w3.org/1999/xlink" x="0px" y="0px"
	 viewBox="0 0 200 200" style="enable-background:new 0 0 200 200;" xml:space="preserve">
<style type="text/css">
	.st0{fill:#1C5DFF;}
</style>
<path class="st0" d="M146,176.5H54c-12,0-21.5-10-21.5-22.2V45.8c0-12.2,9.8-22.2,21.5-22.2h60.5c2.8,0,5.2,1,7.2,2.5l41.5,33.5
	c2.8,2.2,4.5,5.7,4.5,9.5v85.2C167.5,166.5,158,176.5,146,176.5L146,176.5z M54,33c-6.8,0-12,5.8-12,12.8v108.5
	c0,7,5.5,12.8,12,12.8h92c6.8,0,12-5.8,12-12.8V69c0-0.8-0.2-1.5-1-2l-41.2-33.5c-0.2-0.2-0.8-0.5-1.2-0.5H54z"/>
<path class="st0" d="M98.7,99.2H57.2c-2.5,0-4.8-2.2-4.8-4.8c0-2.5,2.2-4.8,4.8-4.8h41.5c2.5,0,4.8,2.2,4.8,4.8
	C103.5,97,101.2,99.2,98.7,99.2z M123.7,121H57.2c-2.5,0-4.8-2.2-4.8-4.8c0-2.5,2.2-4.8,4.8-4.8h66.5c2.5,0,4.8,2.3,4.8,4.8
	C128.5,118.8,126.2,121,123.7,121z M110.2,145.2h-55c-2.5,0-4.8-2.2-4.8-4.8s2.2-4.8,4.8-4.8h55c2.5,0,4.8,2.2,4.8,4.8
	S112.8,145.2,110.2,145.2z"/>
<path class="st0" d="M160.8,73.2h-29.2c-8.7,0-15.8-7-15.8-15.7V29.8h9.5v27.7c0,3.5,2.8,6.2,6.2,6.2h29.2V73.2L160.8,73.2z"/>
</svg>
