<?xml version="1.0" encoding="utf-8"?>
<!-- Generator: Adobe Illustrator 21.1.0, SVG Export Plug-In . SVG Version: 6.00 Build 0)  -->
<svg version="1.1" id="图层_1" xmlns="http://www.w3.org/2000/svg" xmlns:xlink="http://www.w3.org/1999/xlink" x="0px" y="0px"
	 viewBox="0 0 200 200" style="enable-background:new 0 0 200 200;" xml:space="preserve">
<style type="text/css">
	.st0{fill:#FFFFFF;}
</style>
<path class="st0" d="M95.7,108.1c13.8-6.2,29-15.1,41.6-24.2c4.1-3,7.5-5.6,10.1-7.9c-7.7-23.7-30-40.9-56.3-40.9
	C58.5,35.1,32,61.6,32,94.3c0,12.3,3.8,23.8,10.2,33.2C57,123.9,78.8,115.8,95.7,108.1z M84.9,54c0.8-0.8,1.8-1.2,2.8-1.2
	c1,0,1.9,0,2.8-0.1c2.2-0.1,4.2,1.6,4.3,3.8c0.1,1.1-0.3,2.1-1,2.9c-0.7,0.8-1.7,1.3-2.8,1.3c-1.1,0.1-2.1,0.1-3.2,0.1
	c-2.2,0-4.1-1.8-4.1-4C83.7,55.8,84.1,54.7,84.9,54L84.9,54z M76.5,54.9c2.1-0.7,4.4,0.5,5.1,2.6c0.7,2.1-0.5,4.4-2.7,5.1
	c-11.3,3.6-19.6,13-21.9,24.4c-0.4,2.2-2.6,3.6-4.8,3.2c-2.2-0.4-3.6-2.5-3.2-4.7C51.8,71.2,62.2,59.4,76.5,54.9L76.5,54.9z
	 M104,123.5l-0.1,0.1l-0.1,0.1c-18.6,8.5-34.6,14.7-47.7,18.3c9.8,7.2,22,11.5,35.1,11.5c32.1,0,58.2-25.6,59.2-57.5
	C139.1,104.2,123.6,113.4,104,123.5L104,123.5z"/>
<path class="st0" d="M18.7,136.5c-3-6.9,0.3-12.9,10.3-21.4c1.5-1.3,3.8-0.9,5,0.7c1.2,1.6,0.9,3.8-0.7,5c-9.7,7.5-10,10.9-8.1,12.8
	c5.2,5.5,45.8-8.5,72.7-20.7c33.7-15.2,66.4-41.1,64-46.8c-1.1-2.6-2.8-4.9-14.9-3c-1.9,0.3-3.8-1-4.1-3c-0.3-1.9,1-3.8,3-4
	c13-1.5,21.3,1,22.7,8.4c1.8,9.5-11.6,25.8-67,54.5C25.3,153.9,18.7,136.5,18.7,136.5z"/>
</svg>
