<?xml version="1.0" encoding="utf-8"?>
<!-- Generator: Adobe Illustrator 21.1.0, SVG Export Plug-In . SVG Version: 6.00 Build 0)  -->
<svg version="1.1" id="图层_1" xmlns="http://www.w3.org/2000/svg" xmlns:xlink="http://www.w3.org/1999/xlink" x="0px" y="0px"
	 viewBox="0 0 200 200" style="enable-background:new 0 0 200 200;" xml:space="preserve">
<style type="text/css">
	.st0{fill:#FFFFFF;}
</style>
<path class="st0" d="M23.5,68.5l0.5-1.4c1.6-5,7-7.7,12-6.1c2.4,0.8,4.4,2.5,5.6,4.8c1.7,3.4,1.2,7.6-1.3,10.5
	c-0.3,0.3-0.6,0.6-0.9,1c7.1,4.4,14.2,8.6,21.2,13c2.7,1.6,5.3,3.3,8,4.9c0.9,0.8,2.3,0.7,3.1-0.3c0.2-0.2,0.3-0.4,0.4-0.6
	C80.2,79.6,88.3,64.8,96.4,50c-3.5-1.5-5.8-4.8-6-8.6c-0.2-2.7,0.9-5.4,2.9-7.3c3.8-3.7,9.8-3.6,13.5,0.1c0.2,0.2,0.4,0.4,0.6,0.7
	c4,4.9,2.6,10.7-3.8,15.1c2.1,3.8,4.1,7.7,6.2,11.5c5.8,10.7,11.7,21.3,17.6,32c1.3,2.5,2.2,2.7,4.6,1.3
	c9.1-5.5,18.1-11.1,27.2-16.7l1.3-0.8c-1.9-1.7-3-4.1-3.2-6.6c-0.3-5.3,3.7-9.8,9-10.1c4.5-0.3,8.5,2.6,9.8,6.9
	c0.1,0.4,0.3,0.8,0.4,1.1v3.3c-1.5,4.9-4.7,7.8-10.1,7.8c-0.2,0.6-0.4,1.1-0.6,1.7L149.8,136c-0.7,2.4-1.5,3-3.9,3H54.3
	c-2.6,0-3.4-0.6-4.1-3c-4.3-14.8-8.6-29.5-12.9-44.3c-1.2-4-2.3-8-3.5-12c-3.8,0.2-7.3-1.8-9.1-5.1c-0.4-0.9-0.8-1.8-1.2-2.7V68.5z
	 M100,148.6h42.8c3.9-0.2,7.3,2.9,7.5,6.8c0.2,3.6-2.3,6.7-5.9,7.4c-0.5,0.1-1.1,0.2-1.6,0.2H57.1c-3.2,0.1-6-1.9-7-4.9
	c-1.1-2.9,0-6.2,2.5-8c1.4-0.9,3-1.4,4.7-1.5C71.6,148.5,85.8,148.6,100,148.6L100,148.6z"/>
</svg>
