<?xml version="1.0" encoding="utf-8"?>
<!-- Generator: Adobe Illustrator 21.1.0, SVG Export Plug-In . SVG Version: 6.00 Build 0)  -->
<svg version="1.1" id="图层_1" xmlns="http://www.w3.org/2000/svg" xmlns:xlink="http://www.w3.org/1999/xlink" x="0px" y="0px"
	 viewBox="0 0 200 200" style="enable-background:new 0 0 200 200;" xml:space="preserve">
<style type="text/css">
	.st0{fill:#FFFFFF;}
</style>
<path class="st0" d="M147.9,92.7c3,2.6,6.6,4.4,10.6,5.1v65.4c0,3-2.4,5.4-5.4,5.4H46.7c-3,0-5.4-2.4-5.4-5.4V97.7
	c4-0.6,7.7-2.3,10.6-4.8v34.8h96V92.7z M156.4,42.4c0.8,0,1.5,0.2,2.2,0.4v-6c0-3-2.4-5.4-5.4-5.4H46.7c-3,0-5.4,2.4-5.4,5.4v6.1
	c0.8-0.3,1.6-0.5,2.4-0.5H156.4z M156.4,48.8H43.8l-21.4,23c0,8.5,7,15.5,15.5,15.5c1.8,0,3.5-0.3,5.1-0.9c0.1,0,0.2-0.1,0.2-0.1
	c0.5-0.2,1-0.4,1.4-0.6c0.1,0,0.2-0.1,0.2-0.1c0.5-0.2,0.9-0.5,1.4-0.8c0,0,0.1,0,0.1-0.1c1.9-1.2,3.7-3,4.9-5v-0.1
	c0.3-0.5,0.5-1,0.9-1.6c0.9-1.9,1.5-4.2,1.5-6.5c0,8.5,7,15.5,15.5,15.5s15.5-7,15.5-15.5c0,8.5,7,15.5,15.5,15.5s15.5-7,15.5-15.5
	c0,8.5,6.9,15.5,15.5,15.5c8.5,0,15.5-7,15.5-15.5c0,2.7,0.7,5.3,1.9,7.5c0.1,0.1,0.2,0.2,0.2,0.3c0.2,0.4,0.5,0.8,0.8,1.2
	c0.1,0.1,0.2,0.2,0.2,0.4c0.2,0.3,0.5,0.7,0.9,1c0.1,0.1,0.2,0.2,0.2,0.3c0.4,0.4,0.8,0.8,1.2,1.1c0,0,0,0.1,0.1,0.1
	c1.4,1.2,3,2.1,4.7,2.7h0.1c0.5,0.2,1.1,0.4,1.7,0.5c1.2,0.3,2.4,0.5,3.7,0.5c8.6,0,15.5-7,15.5-15.5L156.4,48.8L156.4,48.8z"/>
</svg>
