<?xml version="1.0" encoding="utf-8"?>
<!-- Generator: Adobe Illustrator 21.1.0, SVG Export Plug-In . SVG Version: 6.00 Build 0)  -->
<svg version="1.1" id="图层_1" xmlns="http://www.w3.org/2000/svg" xmlns:xlink="http://www.w3.org/1999/xlink" x="0px" y="0px"
	 viewBox="0 0 200 200" style="enable-background:new 0 0 200 200;" xml:space="preserve">
<style type="text/css">
	.st0{fill:#FFFFFF;}
</style>
<path class="st0" d="M136.7,96.6c2.2,1.9,4.9,3.2,7.8,3.7v48.1c0,2.2-1.8,3.9-3.9,3.9H62.3c-2.2,0-3.9-1.8-3.9-3.9v-48.1
	c3-0.5,5.7-1.7,7.8-3.5v25.6h70.5V96.6z M142.9,59.6c0.6,0,1.1,0.1,1.6,0.3v-4.4c0-2.2-1.8-3.9-3.9-3.9H62.3c-2.2,0-3.9,1.8-3.9,3.9
	V60c0.6-0.2,1.2-0.3,1.8-0.3H142.9z M142.9,64.3H60.2L44.4,81.2c0,6.3,5.1,11.4,11.4,11.4c1.3,0,2.6-0.2,3.7-0.6
	c0.1,0,0.1-0.1,0.1-0.1c0.3-0.1,0.7-0.3,1-0.5c0.1,0,0.1-0.1,0.1-0.1c0.3-0.2,0.7-0.3,1-0.6c0,0,0.1,0,0.1-0.1
	c1.4-0.9,2.7-2.2,3.6-3.7v-0.1c0.2-0.3,0.4-0.7,0.6-1.1c0.7-1.4,1.1-3.1,1.1-4.8c0,6.3,5.1,11.4,11.4,11.4S90,87.4,90,81.1
	c0,6.3,5.1,11.4,11.4,11.4c6.3,0,11.4-5.1,11.4-11.4c0,6.3,5.1,11.4,11.4,11.4c6.3,0,11.4-5.1,11.4-11.4c0,2,0.5,3.9,1.4,5.5
	c0.1,0.1,0.1,0.2,0.1,0.2c0.2,0.3,0.3,0.6,0.6,0.9c0.1,0.1,0.1,0.2,0.2,0.3c0.2,0.2,0.4,0.5,0.6,0.7c0.1,0.1,0.1,0.1,0.2,0.2
	c0.3,0.3,0.6,0.6,0.9,0.8c0,0,0,0.1,0.1,0.1c1,0.9,2.2,1.5,3.4,2h0.1c0.4,0.2,0.8,0.3,1.3,0.4c0.9,0.2,1.8,0.3,2.7,0.3
	c6.3,0,11.4-5.1,11.4-11.4L142.9,64.3L142.9,64.3z"/>
</svg>
