<?xml version="1.0" encoding="utf-8"?>
<!-- Generator: Adobe Illustrator 21.1.0, SVG Export Plug-In . SVG Version: 6.00 Build 0)  -->
<svg version="1.1" id="图层_1" xmlns="http://www.w3.org/2000/svg" xmlns:xlink="http://www.w3.org/1999/xlink" x="0px" y="0px"
	 viewBox="0 0 200 200" style="enable-background:new 0 0 200 200;" xml:space="preserve">
<style type="text/css">
	.st0{fill:#FFFFFF;}
</style>
<path class="st0" d="M38.4,61.2c-2-0.5-4.2,0.6-4.7,2.6c-0.6,2.2-1.1,4.5-1.5,6.8c-0.4,2,1.1,4,3.2,4.2c0.1,0,0.5,0,0.6,0
	c1.9,0,3.5-1.4,3.7-3.2c0.4-2,0.7-4,1.4-5.9c0.2-1,0.1-2-0.4-2.8C40.1,62.1,39.4,61.4,38.4,61.2z M99.5,17.5
	c-18.8-0.7-37.1,6.3-50.1,19.4c-3.2,3.2-6.1,6.8-8.5,10.6c-0.5,0.9-0.7,1.9-0.5,2.8c0.2,1,0.9,1.7,1.7,2.2c1.9,1.1,4.1,0.5,5.3-1.2
	c2.2-3.5,4.7-6.4,7.5-9.4c5.8-5.8,12.7-10.3,20.3-13.1c-17.3,10.8-29,29.5-29,50.4c0,18.3,9.4,34,23,44.9c8.5,6.8,14.1,17.7,15,28.5
	h33.4c-0.1,1.1-0.1,2.2-0.1,3.3v2H84.3v6.4h33.2v4.9h-41v-13.7c0-12.3-6.1-24-16.5-32.4c-10.6-8.5-17.7-20.3-20-33.3
	c-0.4-2-2.4-3.3-4.5-3s-3.5,2.2-3.2,4.3c2.6,14.7,10.8,28.1,22.8,37.7c8.7,7.1,13.7,16.7,13.7,26.7v17.4c0,2,1.7,3.7,3.8,3.7h48.8
	c2.1,0,3.8-1.6,3.8-3.7v-17.1c0-10.5,4.7-20.2,12.9-26.5c15.7-12.3,24.6-30.3,24.5-49.6C162.3,46.7,133.9,18.7,99.5,17.5z
	 M121.6,184.3h-50c-1.4,0-2.4-1.1-2.4-2.4l0,0c0-1.4,1.1-2.4,2.4-2.4h50c1.4,0,2.4,1.1,2.4,2.4l0,0
	C124,183.3,122.9,184.3,121.6,184.3z M121.6,190h-50c-1.4,0-2.4-1.1-2.4-2.4l0,0c0-1.4,1.1-2.4,2.4-2.4h50c1.4,0,2.4,1.1,2.4,2.4
	l0,0C124,188.9,122.9,190,121.6,190z"/>
</svg>
