<?xml version="1.0" encoding="utf-8"?>
<!-- Generator: Adobe Illustrator 21.1.0, SVG Export Plug-In . SVG Version: 6.00 Build 0)  -->
<svg version="1.1" id="图层_1" xmlns="http://www.w3.org/2000/svg" xmlns:xlink="http://www.w3.org/1999/xlink" x="0px" y="0px"
	 viewBox="0 0 200 200" style="enable-background:new 0 0 200 200;" xml:space="preserve">
<style type="text/css">
	.st0{fill:#FF3D38;}
	.st1{fill:#F9FF00;}
</style>
<path class="st0" d="M180,200H20c-11,0-20-9-20-20V20C0,9,9,0,20,0h160c11,0,20,9,20,20v160C200,191,191,200,180,200z"/>
<path class="st1" d="M121.7,152.9c-0.6,1.3-1.5,2.7-2.6,4.3c-1.2,1.5-2.7,3-4.5,4.3s-3.9,2.4-6.4,3.4c-2.4,0.9-5.1,1.4-8.2,1.4
	s-5.8-0.5-8.1-1.5c-2.3-1-4.3-2.3-6-3.7c-1.7-1.5-3-3-4.1-4.5c-1-1.5-1.8-2.8-2.2-3.8c-0.1-0.4-0.7-1.8-1.5-4.2s-2-5.3-3.3-9
	s-2.8-7.7-4.4-12s-3.3-8.9-5-13.6C61.5,103.2,57,91.1,52,77.6c-1.6-4.4-3.1-7.7-4.5-10.1s-2.9-3.9-4.5-4.8c-1.6-0.9-3.4-1.2-5.4-0.9
	s-4.4,0.9-7.3,1.8c-0.7-3.5-0.8-6.8-0.1-9.9c0.7-3.1,1.9-5.8,3.8-8.3s4.3-4.6,7.2-6.4c2.9-1.8,6.2-3.1,9.9-3.9
	c7.3-1.9,13.4-1.6,18.3,0.9c4.9,2.5,8.4,6.6,10.6,12.3c0.6,1.8,1.8,5.1,3.7,10.1c1.9,5,4.1,10.8,6.6,17.6c2.5,6.8,5.2,14.1,8.1,21.9
	s5.8,15.4,8.5,22.9l30.9-73.6c1.6-3.4,4.2-5.7,7.7-7s7.1-2.1,10.7-2.4c4.2-0.4,8.8-0.4,13.6,0.2c-8.8,21-16.7,39.9-23.7,56.5
	c-2.9,7.2-5.8,14.2-8.8,21c-2.9,6.9-5.5,13-7.8,18.5s-4.1,9.9-5.6,13.4C122.7,150.7,121.9,152.6,121.7,152.9L121.7,152.9z"/>
</svg>
