<?xml version="1.0" encoding="utf-8"?>
<!-- Generator: Adobe Illustrator 21.1.0, SVG Export Plug-In . SVG Version: 6.00 Build 0)  -->
<svg version="1.1" id="图层_1" xmlns="http://www.w3.org/2000/svg" xmlns:xlink="http://www.w3.org/1999/xlink" x="0px" y="0px"
	 viewBox="0 0 200 200" style="enable-background:new 0 0 200 200;" xml:space="preserve">
<style type="text/css">
	.st0{fill:#FFFFFF;}
	.st1{fill:#F5C607;}
	.st2{fill:#F5A107;}
	.st3{fill:#F4A207;}
	.st4{fill:#F3A207;}
	.st5{fill:#F2A307;}
	.st6{fill:#F1A307;}
	.st7{fill:#F0A407;}
	.st8{fill:#EFA407;}
	.st9{fill:#EEA507;}
	.st10{fill:#EDA607;}
	.st11{fill:#ECA607;}
	.st12{fill:#EBA707;}
	.st13{fill:#EAA707;}
	.st14{fill:#E9A807;}
	.st15{fill:#E8A907;}
	.st16{fill:#E6A906;}
	.st17{fill:#E5AA06;}
	.st18{fill:#E4AA06;}
	.st19{fill:#0D1428;}
</style>
<path class="st0" d="M99.3,200c-13.3,0-26.3-2.6-38.5-7.8c-11.8-5-22.3-12.1-31.4-21.2c-9.1-9.1-16.2-19.6-21.2-31.4
	c-5.2-12.2-7.8-25.1-7.8-38.5c0-13.3,2.6-26.3,7.8-38.5c5-11.8,12.1-22.3,21.2-31.4c9.1-9.1,19.6-16.2,31.4-21.2
	C73.1,4.9,86,2.3,99.3,2.3c13.3,0,26.3,2.6,38.5,7.8c11.8,5,22.3,12.1,31.4,21.2c9.1,9.1,16.2,19.6,21.2,31.4
	c5.2,12.2,7.8,25.1,7.8,38.5s-2.6,26.3-7.8,38.5c-5,11.8-12.1,22.3-21.2,31.4c-9.1,9.1-19.6,16.2-31.4,21.2
	C125.6,197.4,112.7,200,99.3,200L99.3,200z M99.3,18.2c-45.7,0-82.9,37.2-82.9,82.9c0,45.7,37.2,82.9,82.9,82.9s82.9-37.2,82.9-82.9
	C182.2,55.4,145.1,18.2,99.3,18.2z"/>
<path class="st1" d="M99.3,14.3c-47.9,0-86.9,39-86.9,86.9s39,86.9,86.9,86.9s86.9-39,86.9-86.9S147.3,14.3,99.3,14.3L99.3,14.3z"/>
<path class="st2" d="M55.6,152.1l3.6,5.6l8.2,4.1l3.2-21.4L55.6,152.1z M70.9,140.1l-0.4,0.3l-3.2,21.4l6.1,3l4.4-29.4L70.9,140.1z"
	/>
<path class="st3" d="M77.9,135.5l-4.4,29.4l6.1,3l5.5-37.4L77.9,135.5z"/>
<path class="st4" d="M85.2,130.6l-5.5,37.4l6.1,3l6.7-45.3L85.2,130.6z"/>
<path class="st5" d="M92.5,125.6L85.8,171l6.1,3l7.9-53.3L92.5,125.6z"/>
<path class="st6" d="M99.8,120.7L91.9,174l6.1,3l9.1-61.3L99.8,120.7z"/>
<path class="st7" d="M107.2,115.8l-9.1,61.3l6.1,3l10.3-69.2L107.2,115.8z"/>
<path class="st8" d="M114.5,110.9l-10.3,69.2l6.1,3l11.4-77.2L114.5,110.9z"/>
<path class="st9" d="M121.8,105.9l-11.4,77.2l6.1,3l12.6-85.2L121.8,105.9z"/>
<path class="st10" d="M129.1,101l-12.6,85.2l0.2,0.1c2.2-0.5,4.4-1,6.6-1.6l13.1-88.6L129.1,101z"/>
<path class="st11" d="M136.5,96.1l-13.1,88.6c2.3-0.7,4.7-1.4,6.9-2.3l13.5-91.2L136.5,96.1L136.5,96.1z"/>
<path class="st12" d="M143.8,91.1l-13.5,91.2c2.4-0.9,4.7-1.9,7-3.1l13.8-93.1L143.8,91.1L143.8,91.1z"/>
<path class="st13" d="M151.1,86.2l-13.8,93.1c2.5-1.2,4.8-2.5,7.2-3.9l13.9-94L151.1,86.2L151.1,86.2z"/>
<path class="st14" d="M158.4,81.3l-13.9,94c2.5-1.5,5-3.2,7.3-5l13.9-94L158.4,81.3L158.4,81.3z"/>
<path class="st15" d="M166,76.2l-0.2,0.2l-13.9,94c2.6-2,5.2-4.2,7.6-6.5l12.5-84.6L166,76.2L166,76.2z"/>
<path class="st16" d="M171.9,79.3l-12.5,84.6c2.8-2.7,5.4-5.6,7.9-8.6L178,82.6L171.9,79.3L171.9,79.3z"/>
<path class="st17" d="M178,82.6l-10.8,72.7c3.2-4,6-8.3,8.5-12.8l8.4-56.7L178,82.6L178,82.6z"/>
<path class="st18" d="M184.1,85.8l-8.4,56.7c6.7-12.3,10.5-26.4,10.5-41.3c0-5.1-0.4-10.1-1.3-14.9L184.1,85.8L184.1,85.8z"/>
<path class="st19" d="M32.7,76.2l0.4-1.2c1.1-3.3,4-5.5,7.5-5.7c3.2-0.2,6.4,1.6,7.9,4.6c1.5,3,1.1,6.5-1.1,9.1
	c-0.3,0.3-0.5,0.6-0.8,0.9c6.2,3.8,12.3,7.5,18.5,11.3c2.3,1.4,4.7,2.9,7,4.3c1.3,0.8,2.4,0.5,3.1-0.7C82.1,85.8,89.2,72.9,96.2,60
	c-3.1-1.6-5.1-3.9-5.2-7.5c-0.1-2.5,0.7-4.6,2.5-6.3c3.5-3.4,9.2-3.1,12.2,0.7c3.5,4.3,2.2,9.3-3.3,13.1c1.8,3.3,3.6,6.7,5.5,10
	c5.1,9.3,10.2,18.6,15.3,27.9c1.2,2.2,1.9,2.4,4,1.1c7.9-4.8,15.8-9.7,23.7-14.5c0.4-0.2,0.7-0.5,1.1-0.7c-1.6-1.6-2.7-3.5-2.8-5.8
	c-0.2-4.3,2.7-8,6.8-8.7c4.3-0.7,8.2,1.7,9.5,5.8c0.1,0.3,0.2,0.7,0.4,1v2.9c-1.3,4.3-4.1,6.8-8.9,6.8c-0.2,0.5-0.4,1-0.5,1.5
	c-4.6,15.9-9.3,31.8-13.9,47.6c-0.6,2.1-1.3,2.6-3.4,2.6H59.4c-2.2,0-2.9-0.5-3.5-2.6c-3.8-12.9-7.5-25.8-11.3-38.7
	c-1-3.5-2-7-3.1-10.5c-3.5,0-6.2-1.4-7.9-4.5c-0.4-0.7-0.7-1.6-1-2.4C32.7,78.1,32.7,77.1,32.7,76.2L32.7,76.2z M99.3,145.9h37.3
	c3.3,0,6,2.4,6.4,5.5c0.4,3.2-1.7,6.1-4.9,6.8c-0.5,0.1-0.9,0.1-1.4,0.1H61.9c-2.8,0-5.2-1.7-6.1-4.3c-0.9-2.6-0.1-5.5,2.2-6.9
	c1.2-0.7,2.7-1.3,4.1-1.3C74.6,145.9,87,145.9,99.3,145.9z"/>
</svg>
