<?xml version="1.0" encoding="utf-8"?>
<!-- Generator: Adobe Illustrator 21.1.0, SVG Export Plug-In . SVG Version: 6.00 Build 0)  -->
<svg version="1.1" id="图层_1" xmlns="http://www.w3.org/2000/svg" xmlns:xlink="http://www.w3.org/1999/xlink" x="0px" y="0px"
	 viewBox="0 0 256 72" style="enable-background:new 0 0 256 72;" xml:space="preserve">
<style type="text/css">
	.st0{fill:#FFFFFF;}
	.st1{clip-path:url(#SVGID_2_);}
	.st2{clip-path:url(#SVGID_4_);fill:#FFFFFF;}
	.st3{clip-path:url(#SVGID_6_);}
	.st4{clip-path:url(#SVGID_8_);fill:#FFFFFF;}
	.st5{filter:url(#Adobe_OpacityMaskFilter);}
	.st6{clip-path:url(#SVGID_10_);fill:url(#SVGID_12_);}
	.st7{clip-path:url(#SVGID_10_);mask:url(#SVGID_11_);}
	.st8{clip-path:url(#SVGID_14_);fill:#FFFFFF;}
	.st9{filter:url(#Adobe_OpacityMaskFilter_1_);}
	.st10{clip-path:url(#SVGID_16_);fill:url(#SVGID_18_);}
	.st11{clip-path:url(#SVGID_16_);mask:url(#SVGID_17_);}
	.st12{clip-path:url(#SVGID_20_);fill:#FFFFFF;}
	.st13{filter:url(#Adobe_OpacityMaskFilter_2_);}
	.st14{clip-path:url(#SVGID_22_);fill:url(#SVGID_24_);}
	.st15{clip-path:url(#SVGID_22_);mask:url(#SVGID_23_);}
	.st16{clip-path:url(#SVGID_26_);fill:#FFFFFF;}
	.st17{filter:url(#Adobe_OpacityMaskFilter_3_);}
	.st18{clip-path:url(#SVGID_28_);fill:url(#SVGID_30_);}
	.st19{clip-path:url(#SVGID_28_);mask:url(#SVGID_29_);}
	.st20{clip-path:url(#SVGID_32_);fill:#FFFFFF;}
	.st21{filter:url(#Adobe_OpacityMaskFilter_4_);}
	.st22{clip-path:url(#SVGID_34_);fill:url(#SVGID_36_);}
	.st23{clip-path:url(#SVGID_34_);mask:url(#SVGID_35_);}
	.st24{clip-path:url(#SVGID_38_);fill:#FFFFFF;}
	.st25{clip-path:url(#SVGID_40_);}
	.st26{clip-path:url(#SVGID_42_);fill:#FFFFFF;}
	.st27{clip-path:url(#SVGID_44_);}
	.st28{clip-path:url(#SVGID_46_);fill:#FFFFFF;}
	.st29{filter:url(#Adobe_OpacityMaskFilter_5_);}
	.st30{clip-path:url(#SVGID_48_);fill:url(#SVGID_50_);}
	.st31{clip-path:url(#SVGID_48_);mask:url(#SVGID_49_);}
	.st32{clip-path:url(#SVGID_52_);fill:#FFFFFF;}
	.st33{filter:url(#Adobe_OpacityMaskFilter_6_);}
	.st34{clip-path:url(#SVGID_54_);fill:url(#SVGID_56_);}
	.st35{clip-path:url(#SVGID_54_);mask:url(#SVGID_55_);}
	.st36{clip-path:url(#SVGID_58_);fill:#FFFFFF;}
	.st37{filter:url(#Adobe_OpacityMaskFilter_7_);}
	.st38{clip-path:url(#SVGID_60_);fill:url(#SVGID_62_);}
	.st39{clip-path:url(#SVGID_60_);mask:url(#SVGID_61_);}
	.st40{clip-path:url(#SVGID_64_);fill:#FFFFFF;}
	.st41{filter:url(#Adobe_OpacityMaskFilter_8_);}
	.st42{clip-path:url(#SVGID_66_);fill:url(#SVGID_68_);}
	.st43{clip-path:url(#SVGID_66_);mask:url(#SVGID_67_);}
	.st44{clip-path:url(#SVGID_70_);fill:#FFFFFF;}
	.st45{filter:url(#Adobe_OpacityMaskFilter_9_);}
	.st46{clip-path:url(#SVGID_72_);fill:url(#SVGID_74_);}
	.st47{clip-path:url(#SVGID_72_);mask:url(#SVGID_73_);}
	.st48{clip-path:url(#SVGID_76_);fill:#FFFFFF;}
</style>
<g>
	<g>
		<g>
			<path class="st0" d="M94.8,21.8v-3.3h36.8v3.3h-25l-0.3,7.8h20.8l-1.7,21h7.4v3.4H93.3v-3.4h26.8l0.5-6.9h-20.5l1.2-22H94.8z
				 M121.6,32.1h-15.4l-0.5,9.2h15.1L121.6,32.1z"/>
		</g>
		<g>
			<g>
				<path class="st0" d="M184.4,18.5v35.4h13.2V18.5H184.4z M193.1,49.2c0,1.5-0.6,2.2-1.9,2.1h-2l0-30.1h3.9V49.2z"/>
			</g>
			<g>
				<path class="st0" d="M226,49.7l-0.4-6.8H223l-0.6,6.4c-0.2,1.6-0.9,2.1-2.9,2.1h-10.6c-2,0.1-2.9-0.7-2.8-2.6v-10h18.4V18.5
					h-23.4v30.8c-0.1,3.5,2,4.7,6.5,4.7h13C224.7,54.3,226.2,53.2,226,49.7z M215.2,21.3h5v14.9l-5,0V21.3z M206.1,21.3h5.1v14.9
					h-5.1V21.3z"/>
			</g>
		</g>
		<g>
			<g>
				<path class="st0" d="M158.7,52.7l-2.3-12h-3.5l0.7,7.4c0,0-4.3,0.3-8.5,0.4c2.1-5.1,3.8-11.7,4.9-18.9h8.9v-3.1h-20.4v3.1h6.6
					c-1.1,4.5-2.7,14.9-5.2,19v3.1c4.8,0,14-0.9,14-0.9l0.2,1.9H158.7z"/>
			</g>
			<g>
				<rect x="140.5" y="18.5" class="st0" width="16.6" height="3.3"/>
			</g>
			<g>
				<path class="st0" d="M168.8,21.1v-3.8h-4.4v3.8h-4.5v3.4h4.3c0.5,13.2-4.3,29.7-4.3,29.7h2.8c3.2-8.8,5.5-12.8,6-29.7h4.5v24.1
					c0.2,1.8-1.3,3-3.3,3l-1.9,0v2.4l3.1,0.2c5.4,0,6.5-1.5,6.5-5.9V21.1H168.8z"/>
			</g>
		</g>
	</g>
	<g>
		<g>
			<defs>
				<path id="SVGID_1_" d="M56.1,2.7C55.2,2.9,46.4,7,46.4,7c-4.5,1.6-11,5.6-11,5.6c-3.8,2.4-6.9,6-6.9,6c-1,3.6-0.4,5.8,0.9,7.6
					c1.8,2.6,5,5.9,7.5,7.9c3.2,2.6,7.1,6.8,8,7.5c3,2.1,5.1,0.8,5.5-0.5c0.7-1.8-1.3-3.5-1.3-3.5c-3.6-4.3-3.9-5.3-3.9-5.3
					c-0.4-2.4,2.5-4,3.5-4.6c4.9-2.7,10.8-3,14.4-3.1c5.5-0.1,6.5,0,8.9,0.2c2.2,0.2,3.3-0.8,3.3-1.7c0.1-1.4-1-1.8-1-1.8
					c-1.3-0.2-2.6-0.3-2.6-0.3c-2.2-0.3-11.7-0.3-11.7-0.3c-3.8,0.5-3.1-0.3-3.1-0.3c1-1.2,3.3-1.4,3.3-1.4c0.2,0,7.3-1.2,7.3-1.2
					c3.5-0.6,5.1-1.1,5.1-2.5c-0.1-2-2.5-2.1-2.5-2.1c-0.8-0.1-7.5,1.7-7.5,1.7c-6.3,1.5-9.5,1.8-9.5,1.8c-2,0.1-0.7-0.8-0.7-0.8
					c1-0.9,3.7-1.9,5-2.3c2.3-0.7,6.6-2.3,8.5-3.6C67.8,8.7,66.7,7.3,66,7c-1.4-0.7-2.1,0.5-2.1,0.5c-1.5,0.6-8.9,3.2-8.9,3.2
					c-4.4,1.5-6,1.4-6,1.4c-2.3,0.1-1.6-0.8-1.6-0.8c0.2-0.3,1.6-1,1.6-1s4.9-2.5,6.6-3.3c1.8-0.8,3.5-1.8,3.2-3
					c-0.3-1.3-1.4-1.5-2.1-1.5C56.3,2.6,56.1,2.7,56.1,2.7"/>
			</defs>
			<use xlink:href="#SVGID_1_"  style="overflow:visible;fill:#FFFFFF;"/>
			<clipPath id="SVGID_2_">
				<use xlink:href="#SVGID_1_"  style="overflow:visible;"/>
			</clipPath>
			<g class="st1">
				<g>
					<defs>
						
							<rect id="SVGID_3_" x="20" y="-7.5" transform="matrix(0.8118 -0.5839 0.5839 0.8118 -3.8281 34.4232)" width="63" height="61.4"/>
					</defs>
					<use xlink:href="#SVGID_3_"  style="overflow:visible;fill:#FFFFFF;"/>
					<clipPath id="SVGID_4_">
						<use xlink:href="#SVGID_3_"  style="overflow:visible;"/>
					</clipPath>
					<polygon class="st2" points="81.5,-20.1 8,32.7 8,-20.1 					"/>
					<polygon class="st2" points="81.8,-20.1 8,32.9 8,32.7 81.5,-20.1 					"/>
					<polygon class="st2" points="82,-20.1 8,33.1 8,32.9 81.8,-20.1 					"/>
					<polygon class="st2" points="82.2,-20.1 8,33.2 8,33.1 82,-20.1 					"/>
					<polygon class="st2" points="82.5,-20.1 8,33.4 8,33.2 82.2,-20.1 					"/>
					<polygon class="st2" points="82.7,-20.1 8,33.6 8,33.4 82.5,-20.1 					"/>
					<polygon class="st2" points="82.9,-20.1 8,33.7 8,33.6 82.7,-20.1 					"/>
					<polygon class="st2" points="83.2,-20.1 8,33.9 8,33.7 82.9,-20.1 					"/>
					<polygon class="st2" points="83.4,-20.1 8,34.1 8,33.9 83.2,-20.1 					"/>
					<polygon class="st2" points="83.6,-20.1 8,34.2 8,34.1 83.4,-20.1 					"/>
					<polygon class="st2" points="83.9,-20.1 8,34.4 8,34.2 83.6,-20.1 					"/>
					<polygon class="st2" points="84.1,-20.1 8,34.6 8,34.4 83.9,-20.1 					"/>
					<polygon class="st2" points="84.3,-20.1 8,34.7 8,34.6 84.1,-20.1 					"/>
					<polygon class="st2" points="84.6,-20.1 8,34.9 8,34.7 84.3,-20.1 					"/>
					<polygon class="st2" points="84.8,-20.1 8,35.1 8,34.9 84.6,-20.1 					"/>
					<polygon class="st2" points="85,-20.1 8,35.2 8,35.1 84.8,-20.1 					"/>
					<polygon class="st2" points="85.3,-20.1 8,35.4 8,35.2 85,-20.1 					"/>
					<polygon class="st2" points="85.5,-20.1 8,35.6 8,35.4 85.3,-20.1 					"/>
					<polygon class="st2" points="85.7,-20.1 8,35.7 8,35.6 85.5,-20.1 					"/>
					<polygon class="st2" points="86,-20.1 8,35.9 8,35.7 85.7,-20.1 					"/>
					<polygon class="st2" points="86.2,-20.1 8,36.1 8,35.9 86,-20.1 					"/>
					<polygon class="st2" points="86.4,-20.1 8,36.2 8,36.1 86.2,-20.1 					"/>
					<polygon class="st2" points="86.7,-20.1 8,36.4 8,36.2 86.4,-20.1 					"/>
					<polygon class="st2" points="86.9,-20.1 8,36.6 8,36.4 86.7,-20.1 					"/>
					<polygon class="st2" points="87.1,-20.1 8,36.7 8,36.6 86.9,-20.1 					"/>
					<polygon class="st2" points="87.3,-20.1 8,36.9 8,36.7 87.1,-20.1 					"/>
					<polygon class="st2" points="87.6,-20.1 8,37.1 8,36.9 87.3,-20.1 					"/>
					<polygon class="st2" points="87.8,-20.1 8,37.2 8,37.1 87.6,-20.1 					"/>
					<polygon class="st2" points="88,-20.1 8,37.4 8,37.2 87.8,-20.1 					"/>
					<polygon class="st2" points="88.3,-20.1 8,37.6 8,37.4 88,-20.1 					"/>
					<polygon class="st2" points="88.5,-20.1 8,37.7 8,37.6 88.3,-20.1 					"/>
					<polygon class="st2" points="88.7,-20.1 8,37.9 8,37.7 88.5,-20.1 					"/>
					<polygon class="st2" points="89,-20.1 8,38.1 8,37.9 88.7,-20.1 					"/>
					<polygon class="st2" points="89.2,-20.1 8,38.2 8,38.1 89,-20.1 					"/>
					<polygon class="st2" points="89.4,-20.1 8,38.4 8,38.2 89.2,-20.1 					"/>
					<polygon class="st2" points="89.7,-20.1 8,38.6 8,38.4 89.4,-20.1 					"/>
					<polygon class="st2" points="89.9,-20.1 8,38.7 8,38.6 89.7,-20.1 					"/>
					<polygon class="st2" points="90.1,-20.1 8,38.9 8,38.7 89.9,-20.1 					"/>
					<polygon class="st2" points="90.4,-20.1 8,39.1 8,38.9 90.1,-20.1 					"/>
					<polygon class="st2" points="90.6,-20.1 8,39.2 8,39.1 90.4,-20.1 					"/>
					<polygon class="st2" points="90.8,-20.1 8,39.4 8,39.2 90.6,-20.1 					"/>
					<polygon class="st2" points="91.1,-20.1 8,39.6 8,39.4 90.8,-20.1 					"/>
					<polygon class="st2" points="91.3,-20.1 8,39.7 8,39.6 91.1,-20.1 					"/>
					<polygon class="st2" points="91.5,-20.1 8,39.9 8,39.7 91.3,-20.1 					"/>
					<polygon class="st2" points="91.8,-20.1 8,40.1 8,39.9 91.5,-20.1 					"/>
					<polygon class="st2" points="92,-20.1 8,40.2 8,40.1 91.8,-20.1 					"/>
					<polygon class="st2" points="92.2,-20.1 8,40.4 8,40.2 92,-20.1 					"/>
					<polygon class="st2" points="92.5,-20.1 8,40.6 8,40.4 92.2,-20.1 					"/>
					<polygon class="st2" points="92.7,-20.1 8,40.8 8,40.6 92.5,-20.1 					"/>
					<polygon class="st2" points="92.9,-20.1 8,40.9 8,40.8 92.7,-20.1 					"/>
					<polygon class="st2" points="93.2,-20.1 8,41.1 8,40.9 92.9,-20.1 					"/>
					<polygon class="st2" points="93.4,-20.1 8,41.3 8,41.1 93.2,-20.1 					"/>
					<polygon class="st2" points="93.6,-20.1 8,41.4 8,41.3 93.4,-20.1 					"/>
					<polygon class="st2" points="93.9,-20.1 8,41.6 8,41.4 93.6,-20.1 					"/>
					<polygon class="st2" points="94.1,-20.1 8,41.8 8,41.6 93.9,-20.1 					"/>
					<polygon class="st2" points="94.3,-20.1 8,41.9 8,41.8 94.1,-20.1 					"/>
					<polygon class="st2" points="94.5,-20.1 8,42.1 8,41.9 94.3,-20.1 					"/>
					<polygon class="st2" points="94.8,-20.1 8,42.3 8,42.1 94.5,-20.1 					"/>
					<polygon class="st2" points="95,-20.1 8,42.4 8,42.3 94.8,-20.1 95,-20.1 					"/>
					<polygon class="st2" points="95,-20 8,42.6 8,42.4 95,-20.1 					"/>
					<polygon class="st2" points="95,-19.8 8,42.8 8,42.6 95,-20 					"/>
					<polygon class="st2" points="95,-19.6 8,42.9 8,42.8 95,-19.8 					"/>
					<polygon class="st2" points="95,-19.5 8,43.1 8,42.9 95,-19.6 					"/>
					<polygon class="st2" points="95,-19.3 8,43.3 8,43.1 95,-19.5 					"/>
					<polygon class="st2" points="95,-19.1 8,43.4 8,43.3 95,-19.3 					"/>
					<polygon class="st2" points="95,-19 8,43.6 8,43.4 95,-19.1 					"/>
					<polygon class="st2" points="95,-18.8 8,43.8 8,43.6 95,-19 					"/>
					<polygon class="st2" points="95,-18.6 8,43.9 8,43.8 95,-18.8 					"/>
					<polygon class="st2" points="95,-18.5 8,44.1 8,43.9 95,-18.6 					"/>
					<polygon class="st2" points="95,-18.3 8,44.3 8,44.1 95,-18.5 					"/>
					<polygon class="st2" points="95,-18.1 8,44.4 8,44.3 95,-18.3 					"/>
					<polygon class="st2" points="95,-18 8,44.6 8,44.4 95,-18.1 					"/>
					<polygon class="st2" points="95,-17.8 8,44.8 8,44.6 95,-18 					"/>
					<polygon class="st2" points="95,-17.6 8,44.9 8,44.8 95,-17.8 					"/>
					<polygon class="st2" points="95,-17.5 8,45.1 8,44.9 95,-17.6 					"/>
					<polygon class="st2" points="95,-17.3 8,45.3 8,45.1 95,-17.5 					"/>
					<polygon class="st2" points="95,-17.1 8,45.4 8,45.3 95,-17.3 					"/>
					<polygon class="st2" points="95,-16.9 8,45.6 8,45.4 95,-17.1 					"/>
					<polygon class="st2" points="95,-16.8 8,45.8 8,45.6 95,-16.9 					"/>
					<polygon class="st2" points="95,-16.6 8,45.9 8,45.8 95,-16.8 					"/>
					<polygon class="st2" points="95,-16.4 8,46.1 8,45.9 95,-16.6 					"/>
					<polygon class="st2" points="95,-16.3 8,46.3 8,46.1 95,-16.4 					"/>
					<polygon class="st2" points="95,-16.1 8,46.4 8,46.3 95,-16.3 					"/>
					<polygon class="st2" points="95,-15.9 8,46.6 8,46.4 95,-16.1 					"/>
					<polygon class="st2" points="95,-15.8 8,46.8 8,46.6 95,-15.9 					"/>
					<polygon class="st2" points="95,-15.6 8,46.9 8,46.8 95,-15.8 					"/>
					<polygon class="st2" points="95,-15.4 8,47.1 8,46.9 95,-15.6 					"/>
					<polygon class="st2" points="95,-15.3 8,47.3 8,47.1 95,-15.4 					"/>
					<polygon class="st2" points="95,-15.1 8,47.4 8,47.3 95,-15.3 					"/>
					<polygon class="st2" points="95,-14.9 8,47.6 8,47.4 95,-15.1 					"/>
					<polygon class="st2" points="95,-14.8 8,47.8 8,47.6 95,-14.9 					"/>
					<polygon class="st2" points="95,-14.6 8,47.9 8,47.8 95,-14.8 					"/>
					<polygon class="st2" points="95,-14.4 8,48.1 8,47.9 95,-14.6 					"/>
					<polygon class="st2" points="95,-14.3 8,48.3 8,48.1 95,-14.4 					"/>
					<polygon class="st2" points="95,-14.1 8,48.4 8,48.3 95,-14.3 					"/>
					<polygon class="st2" points="95,-13.9 8,48.6 8,48.4 95,-14.1 					"/>
					<polygon class="st2" points="95,-13.8 8,48.8 8,48.6 95,-13.9 					"/>
					<polygon class="st2" points="95,-13.6 8,48.9 8,48.8 95,-13.8 					"/>
					<polygon class="st2" points="95,-13.4 8,49.1 8,48.9 95,-13.6 					"/>
					<polygon class="st2" points="95,-13.3 8,49.3 8,49.1 95,-13.4 					"/>
					<polygon class="st2" points="95,-13.1 8,49.4 8,49.3 95,-13.3 					"/>
					<polygon class="st2" points="95,-12.9 8,49.6 8,49.4 95,-13.1 					"/>
					<polygon class="st2" points="95,-12.8 8,49.8 8,49.6 95,-12.9 					"/>
					<polygon class="st2" points="95,-12.6 8,49.9 8,49.8 95,-12.8 					"/>
					<polygon class="st2" points="95,-12.4 8,50.1 8,49.9 95,-12.6 					"/>
					<polygon class="st2" points="95,-12.3 8,50.3 8,50.1 95,-12.4 					"/>
					<polygon class="st2" points="95,-12.1 8,50.4 8,50.3 95,-12.3 					"/>
					<polygon class="st2" points="95,-11.9 8,50.6 8,50.4 95,-12.1 					"/>
					<polygon class="st2" points="95,-11.8 8,50.8 8,50.6 95,-11.9 					"/>
					<polygon class="st2" points="95,-11.6 8,50.9 8,50.8 95,-11.8 					"/>
					<polygon class="st2" points="95,-11.4 8,51.1 8,50.9 95,-11.6 					"/>
					<polygon class="st2" points="95,-11.3 8,51.3 8,51.1 95,-11.4 					"/>
					<polygon class="st2" points="95,-11.1 8,51.4 8,51.3 95,-11.3 					"/>
					<polygon class="st2" points="95,-10.9 8,51.6 8,51.4 95,-11.1 					"/>
					<polygon class="st2" points="95,-10.8 8,51.8 8,51.6 95,-10.9 					"/>
					<polygon class="st2" points="95,-10.6 8,51.9 8,51.8 95,-10.8 					"/>
					<polygon class="st2" points="95,-10.4 8,52.1 8,51.9 95,-10.6 					"/>
					<polygon class="st2" points="95,-10.3 8,52.3 8,52.1 95,-10.4 					"/>
					<polygon class="st2" points="95,-10.1 8,52.4 8,52.3 95,-10.3 					"/>
					<polygon class="st2" points="95,-9.9 8,52.6 8,52.4 95,-10.1 					"/>
					<polygon class="st2" points="95,-9.8 8,52.8 8,52.6 95,-9.9 					"/>
					<polygon class="st2" points="95,-9.6 8,52.9 8,52.8 95,-9.8 					"/>
					<polygon class="st2" points="95,-9.4 8,53.1 8,52.9 95,-9.6 					"/>
					<polygon class="st2" points="95,-9.3 8,53.3 8,53.1 95,-9.4 					"/>
					<polygon class="st2" points="95,-9.1 8,53.4 8,53.3 95,-9.3 					"/>
					<polygon class="st2" points="95,-8.9 8,53.6 8,53.4 95,-9.1 					"/>
					<polygon class="st2" points="95,-8.8 8,53.8 8,53.6 95,-8.9 					"/>
					<polygon class="st2" points="95,-8.6 8,53.9 8,53.8 95,-8.8 					"/>
					<polygon class="st2" points="95,-8.4 8,54.1 8,53.9 95,-8.6 					"/>
					<polygon class="st2" points="95,-8.3 8,54.3 8,54.1 95,-8.4 					"/>
					<polygon class="st2" points="95,-8.1 8,54.4 8,54.3 95,-8.3 					"/>
					<polygon class="st2" points="95,-7.9 8,54.6 8,54.4 95,-8.1 					"/>
					<polygon class="st2" points="95,-7.8 8,54.8 8,54.6 95,-7.9 					"/>
					<polygon class="st2" points="95,-7.6 8,54.9 8,54.8 95,-7.8 					"/>
					<polygon class="st2" points="95,-7.4 8,55.1 8,54.9 95,-7.6 					"/>
					<polygon class="st2" points="95,-7.3 8,55.3 8,55.1 95,-7.4 					"/>
					<polygon class="st2" points="95,-7.1 8,55.5 8,55.3 95,-7.3 					"/>
					<polygon class="st2" points="95,-6.9 8,55.6 8,55.5 95,-7.1 					"/>
					<polygon class="st2" points="95,-6.8 8,55.8 8,55.6 95,-6.9 					"/>
					<polygon class="st2" points="95,-6.6 8,56 8,55.8 95,-6.8 					"/>
					<polygon class="st2" points="95,-6.4 8,56.1 8,56 95,-6.6 					"/>
					<polygon class="st2" points="95,-6.3 8,56.3 8,56.1 95,-6.4 					"/>
					<polygon class="st2" points="95,-6.1 8,56.5 8,56.3 95,-6.3 					"/>
					<polygon class="st2" points="95,-5.9 8,56.6 8,56.5 95,-6.1 					"/>
					<polygon class="st2" points="95,-5.8 8,56.8 8,56.6 95,-5.9 					"/>
					<polygon class="st2" points="95,-5.6 8,57 8,56.8 95,-5.8 					"/>
					<polygon class="st2" points="8,57 95,-5.6 95,66.5 8,66.5 					"/>
				</g>
			</g>
		</g>
		<g>
			<defs>
				<path id="SVGID_5_" d="M55.8,2.5c-0.9,0.3-10.2,4.1-10.2,4.1c-4.5,1.6-11,5.6-11,5.6c-3.8,2.4-5.5,5.2-5.5,5.2
					c-2.2,3.7-0.2,7.2-0.2,7.2c0.8,1.8,4,4.8,4,4.8c0.4,0.4,5.3,4.6,5.3,4.6c2.1,1.7,4.6,4.3,4.6,4.3c2.2,2.6,3.3,2.9,3.3,2.9
					c4.5,1.2,4.5-1.4,4.5-1.4c-0.1-1.1-1.8-3-1.8-3c-3.6-4.3-3.4-5.5-3.4-5.5c-0.4-2.4,2.9-3.9,2.9-3.9c4.7-3,14.3-3.4,14.3-3.4
					c5.5-0.2,9.9,0.3,9.9,0.3c2.4,0.1,2.8-1.3,2.8-1.3c0.2-0.7-0.4-1.3-0.4-1.3c-1-1.1-3.7-1-3.7-1c-2.1-0.3-11.7-0.3-11.7-0.3
					c-3.8,0.5-3.1-0.3-3.1-0.3c1-1.2,3.3-1.4,3.3-1.4c0.2,0,7.3-1.2,7.3-1.2c4.9-0.9,5-1.7,5-1.7c1.4-2.2-1.9-2.6-1.9-2.6
					c-0.8-0.1-8,1.4-8,1.4c-6.3,1.5-9.5,1.8-9.5,1.8c-2,0.1-0.7-0.8-0.7-0.8c1-0.9,5-2.3,5-2.3C65.3,9.9,66,9.1,66,9.1
					c1.5-1.1,0-2,0-2c-1.1-0.9-3,0-3,0c-1.5,0.6-8.9,3.2-8.9,3.2c-4.4,1.5-6,1.4-6,1.4c-2.3,0.1-1.6-0.8-1.6-0.8
					c0.2-0.3,1.6-1,1.6-1l6.6-3.3c3.7-1.6,3.6-2.4,3.6-2.4c-0.1-1.5-1.2-1.8-1.9-1.8C56,2.4,55.8,2.5,55.8,2.5"/>
			</defs>
			<use xlink:href="#SVGID_5_"  style="overflow:visible;fill:#FFFFFF;"/>
			<clipPath id="SVGID_6_">
				<use xlink:href="#SVGID_5_"  style="overflow:visible;"/>
			</clipPath>
			<g class="st3">
				<g>
					<defs>
						
							<rect id="SVGID_7_" x="19.1" y="-6.5" transform="matrix(0.9198 -0.3924 0.3924 0.9198 -5.3633 21.7308)" width="62.7" height="61"/>
					</defs>
					<use xlink:href="#SVGID_7_"  style="overflow:visible;fill:#FFFFFF;"/>
					<clipPath id="SVGID_8_">
						<use xlink:href="#SVGID_7_"  style="overflow:visible;"/>
					</clipPath>
					<polygon class="st4" points="91.3,-10.4 9.7,24.4 9.7,-16.4 91.3,-16.4 					"/>
					<polygon class="st4" points="91.3,-10.3 9.7,24.5 9.7,24.4 91.3,-10.4 					"/>
					<polygon class="st4" points="91.3,-10.3 9.7,24.6 9.7,24.5 91.3,-10.3 					"/>
					<polygon class="st4" points="91.3,-10.2 9.7,24.7 9.7,24.6 91.3,-10.3 					"/>
					<polygon class="st4" points="91.3,-10.1 9.7,24.7 9.7,24.7 91.3,-10.2 					"/>
					<polygon class="st4" points="91.3,-10 9.7,24.8 9.7,24.7 91.3,-10.1 					"/>
					<polygon class="st4" points="91.3,-9.9 9.7,24.9 9.7,24.8 91.3,-10 					"/>
					<polygon class="st4" points="91.3,-9.8 9.7,25 9.7,24.9 91.3,-9.9 					"/>
					<polygon class="st4" points="91.3,-9.7 9.7,25.1 9.7,25 91.3,-9.8 					"/>
					<polygon class="st4" points="91.3,-9.6 9.7,25.2 9.7,25.1 91.3,-9.7 					"/>
					<polygon class="st4" points="91.3,-9.6 9.7,25.3 9.7,25.2 91.3,-9.6 					"/>
					<polygon class="st4" points="91.3,-9.5 9.7,25.4 9.7,25.3 91.3,-9.6 					"/>
					<polygon class="st4" points="91.3,-9.4 9.7,25.4 9.7,25.4 91.3,-9.5 					"/>
					<polygon class="st4" points="91.3,-9.3 9.7,25.5 9.7,25.4 91.3,-9.4 					"/>
					<polygon class="st4" points="91.3,-9.2 9.7,25.6 9.7,25.5 91.3,-9.3 					"/>
					<polygon class="st4" points="91.3,-9.1 9.7,25.7 9.7,25.6 91.3,-9.2 					"/>
					<polygon class="st4" points="91.3,-9 9.7,25.8 9.7,25.7 91.3,-9.1 					"/>
					<polygon class="st4" points="91.3,-8.9 9.7,25.9 9.7,25.8 91.3,-9 					"/>
					<polygon class="st4" points="91.3,-8.9 9.7,26 9.7,25.9 91.3,-8.9 					"/>
					<polygon class="st4" points="91.3,-8.8 9.7,26 9.7,26 91.3,-8.9 					"/>
					<polygon class="st4" points="91.3,-8.7 9.7,26.1 9.7,26 91.3,-8.8 					"/>
					<polygon class="st4" points="91.3,-8.6 9.7,26.2 9.7,26.1 91.3,-8.7 					"/>
					<polygon class="st4" points="91.3,-8.5 9.7,26.3 9.7,26.2 91.3,-8.6 					"/>
					<polygon class="st4" points="91.3,-8.4 9.7,26.4 9.7,26.3 91.3,-8.5 					"/>
					<polygon class="st4" points="91.3,-8.3 9.7,26.5 9.7,26.4 91.3,-8.4 					"/>
					<polygon class="st4" points="91.3,-8.3 9.7,26.6 9.7,26.5 91.3,-8.3 					"/>
					<polygon class="st4" points="91.3,-8.2 9.7,26.7 9.7,26.6 91.3,-8.3 					"/>
					<polygon class="st4" points="91.3,-8.1 9.7,26.7 9.7,26.7 91.3,-8.2 					"/>
					<polygon class="st4" points="91.3,-8 9.7,26.8 9.7,26.7 91.3,-8.1 					"/>
					<polygon class="st4" points="91.3,-7.9 9.7,26.9 9.7,26.8 91.3,-8 					"/>
					<polygon class="st4" points="91.3,-7.8 9.7,27 9.7,26.9 91.3,-7.9 					"/>
					<polygon class="st4" points="91.3,-7.7 9.7,27.1 9.7,27 91.3,-7.8 					"/>
					<polygon class="st4" points="91.3,-7.6 9.7,27.2 9.7,27.1 91.3,-7.7 					"/>
					<polygon class="st4" points="91.3,-7.6 9.7,27.3 9.7,27.2 91.3,-7.6 					"/>
					<polygon class="st4" points="91.3,-7.5 9.7,27.3 9.7,27.3 91.3,-7.6 					"/>
					<polygon class="st4" points="91.3,-7.4 9.7,27.4 9.7,27.3 91.3,-7.5 					"/>
					<polygon class="st4" points="91.3,-7.3 9.7,27.5 9.7,27.4 91.3,-7.4 					"/>
					<polygon class="st4" points="91.3,-7.2 9.7,27.6 9.7,27.5 91.3,-7.3 					"/>
					<polygon class="st4" points="91.3,-7.1 9.7,27.7 9.7,27.6 91.3,-7.2 					"/>
					<polygon class="st4" points="91.3,-7 9.7,27.8 9.7,27.7 91.3,-7.1 					"/>
					<polygon class="st4" points="91.3,-6.9 9.7,27.9 9.7,27.8 91.3,-7 					"/>
					<polygon class="st4" points="91.3,-6.9 9.7,28 9.7,27.9 91.3,-6.9 					"/>
					<polygon class="st4" points="91.3,-6.8 9.7,28 9.7,28 91.3,-6.9 					"/>
					<polygon class="st4" points="91.3,-6.7 9.7,28.1 9.7,28 91.3,-6.8 					"/>
					<polygon class="st4" points="91.3,-6.6 9.7,28.2 9.7,28.1 91.3,-6.7 					"/>
					<polygon class="st4" points="91.3,-6.5 9.7,28.3 9.7,28.2 91.3,-6.6 					"/>
					<polygon class="st4" points="91.3,-6.4 9.7,28.4 9.7,28.3 91.3,-6.5 					"/>
					<polygon class="st4" points="91.3,-6.3 9.7,28.5 9.7,28.4 91.3,-6.4 					"/>
					<polygon class="st4" points="91.3,-6.3 9.7,28.6 9.7,28.5 91.3,-6.3 					"/>
					<polygon class="st4" points="91.3,-6.2 9.7,28.7 9.7,28.6 91.3,-6.3 					"/>
					<polygon class="st4" points="91.3,-6.1 9.7,28.7 9.7,28.7 91.3,-6.2 					"/>
					<polygon class="st4" points="91.3,-6 9.7,28.8 9.7,28.7 91.3,-6.1 					"/>
					<polygon class="st4" points="91.3,-5.9 9.7,28.9 9.7,28.8 91.3,-6 					"/>
					<polygon class="st4" points="91.3,-5.8 9.7,29 9.7,28.9 91.3,-5.9 					"/>
					<polygon class="st4" points="91.3,-5.7 9.7,29.1 9.7,29 91.3,-5.8 					"/>
					<polygon class="st4" points="91.3,-5.6 9.7,29.2 9.7,29.1 91.3,-5.7 					"/>
					<polygon class="st4" points="91.3,-5.6 9.7,29.3 9.7,29.2 91.3,-5.6 					"/>
					<polygon class="st4" points="91.3,-5.5 9.7,29.3 9.7,29.3 91.3,-5.6 					"/>
					<polygon class="st4" points="91.3,-5.4 9.7,29.4 9.7,29.3 91.3,-5.5 					"/>
					<polygon class="st4" points="91.3,-5.3 9.7,29.5 9.7,29.4 91.3,-5.4 					"/>
					<polygon class="st4" points="91.3,-5.2 9.7,29.6 9.7,29.5 91.3,-5.3 					"/>
					<polygon class="st4" points="91.3,-5.1 9.7,29.7 9.7,29.6 91.3,-5.2 					"/>
					<polygon class="st4" points="91.3,-5 9.7,29.8 9.7,29.7 91.3,-5.1 					"/>
					<polygon class="st4" points="91.3,-5 9.7,29.9 9.7,29.8 91.3,-5 					"/>
					<polygon class="st4" points="91.3,-4.9 9.7,30 9.7,29.9 91.3,-5 					"/>
					<polygon class="st4" points="91.3,-4.8 9.7,30 9.7,30 91.3,-4.9 					"/>
					<polygon class="st4" points="91.3,-4.7 9.7,30.1 9.7,30 91.3,-4.8 					"/>
					<polygon class="st4" points="91.3,-4.6 9.7,30.2 9.7,30.1 91.3,-4.7 					"/>
					<polygon class="st4" points="91.3,-4.5 9.7,30.3 9.7,30.2 91.3,-4.6 					"/>
					<polygon class="st4" points="91.3,-4.4 9.7,30.4 9.7,30.3 91.3,-4.5 					"/>
					<polygon class="st4" points="91.3,-4.3 9.7,30.5 9.7,30.4 91.3,-4.4 					"/>
					<polygon class="st4" points="91.3,-4.3 9.7,30.6 9.7,30.5 91.3,-4.3 					"/>
					<polygon class="st4" points="91.3,-4.2 9.7,30.6 9.7,30.6 91.3,-4.3 					"/>
					<polygon class="st4" points="91.3,-4.1 9.7,30.7 9.7,30.6 91.3,-4.2 					"/>
					<polygon class="st4" points="91.3,-4 9.7,30.8 9.7,30.7 91.3,-4.1 					"/>
					<polygon class="st4" points="91.3,-3.9 9.7,30.9 9.7,30.8 91.3,-4 					"/>
					<polygon class="st4" points="91.3,-3.8 9.7,31 9.7,30.9 91.3,-3.9 					"/>
					<polygon class="st4" points="91.3,-3.7 9.7,31.1 9.7,31 91.3,-3.8 					"/>
					<polygon class="st4" points="91.3,-3.6 9.7,31.2 9.7,31.1 91.3,-3.7 					"/>
					<polygon class="st4" points="91.3,-3.6 9.7,31.3 9.7,31.2 91.3,-3.6 					"/>
					<polygon class="st4" points="91.3,-3.5 9.7,31.3 9.7,31.3 91.3,-3.6 					"/>
					<polygon class="st4" points="91.3,-3.4 9.7,31.4 9.7,31.3 91.3,-3.5 					"/>
					<polygon class="st4" points="91.3,-3.3 9.7,31.5 9.7,31.4 91.3,-3.4 					"/>
					<polygon class="st4" points="91.3,-3.2 9.7,31.6 9.7,31.5 91.3,-3.3 					"/>
					<polygon class="st4" points="91.3,-3.1 9.7,31.7 9.7,31.6 91.3,-3.2 					"/>
					<polygon class="st4" points="91.3,-3 9.7,31.8 9.7,31.7 91.3,-3.1 					"/>
					<polygon class="st4" points="91.3,-3 9.7,31.9 9.7,31.8 91.3,-3 					"/>
					<polygon class="st4" points="91.3,-2.9 9.7,32 9.7,31.9 91.3,-3 					"/>
					<polygon class="st4" points="91.3,-2.8 9.7,32 9.7,32 91.3,-2.9 					"/>
					<polygon class="st4" points="91.3,-2.7 9.7,32.1 9.7,32 91.3,-2.8 					"/>
					<polygon class="st4" points="91.3,-2.6 9.7,32.2 9.7,32.1 91.3,-2.7 					"/>
					<polygon class="st4" points="91.3,-2.5 9.7,32.3 9.7,32.2 91.3,-2.6 					"/>
					<polygon class="st4" points="91.3,-2.4 9.7,32.4 9.7,32.3 91.3,-2.5 					"/>
					<polygon class="st4" points="91.3,-2.3 9.7,32.5 9.7,32.4 91.3,-2.4 					"/>
					<polygon class="st4" points="91.3,-2.3 9.7,32.6 9.7,32.5 91.3,-2.3 					"/>
					<polygon class="st4" points="91.3,-2.2 9.7,32.6 9.7,32.6 91.3,-2.3 					"/>
					<polygon class="st4" points="91.3,-2.1 9.7,32.7 9.7,32.6 91.3,-2.2 					"/>
					<polygon class="st4" points="91.3,-2 9.7,32.8 9.7,32.7 91.3,-2.1 					"/>
					<polygon class="st4" points="91.3,-1.9 9.7,32.9 9.7,32.8 91.3,-2 					"/>
					<polygon class="st4" points="91.3,-1.8 9.7,33 9.7,32.9 91.3,-1.9 					"/>
					<polygon class="st4" points="91.3,-1.7 9.7,33.1 9.7,33 91.3,-1.8 					"/>
					<polygon class="st4" points="91.3,-1.7 9.7,33.2 9.7,33.1 91.3,-1.7 					"/>
					<polygon class="st4" points="91.3,-1.6 9.7,33.3 9.7,33.2 91.3,-1.7 					"/>
					<polygon class="st4" points="91.3,-1.5 9.7,33.3 9.7,33.3 91.3,-1.6 					"/>
					<polygon class="st4" points="91.3,-1.4 9.7,33.4 9.7,33.3 91.3,-1.5 					"/>
					<polygon class="st4" points="91.3,-1.3 9.7,33.5 9.7,33.4 91.3,-1.4 					"/>
					<polygon class="st4" points="91.3,-1.2 9.7,33.6 9.7,33.5 91.3,-1.3 					"/>
					<polygon class="st4" points="91.3,-1.1 9.7,33.7 9.7,33.6 91.3,-1.2 					"/>
					<polygon class="st4" points="91.3,-1 9.7,33.8 9.7,33.7 91.3,-1.1 					"/>
					<polygon class="st4" points="91.3,-1 9.7,33.9 9.7,33.8 91.3,-1 					"/>
					<polygon class="st4" points="91.3,-0.9 9.7,34 9.7,33.9 91.3,-1 					"/>
					<polygon class="st4" points="91.3,-0.8 9.7,34 9.7,34 91.3,-0.9 					"/>
					<polygon class="st4" points="91.3,-0.7 9.7,34.1 9.7,34 91.3,-0.8 					"/>
					<polygon class="st4" points="91.3,-0.6 9.7,34.2 9.7,34.1 91.3,-0.7 					"/>
					<polygon class="st4" points="91.3,-0.5 9.7,34.3 9.7,34.2 91.3,-0.6 					"/>
					<polygon class="st4" points="91.3,-0.4 9.7,34.4 9.7,34.3 91.3,-0.5 					"/>
					<polygon class="st4" points="91.3,-0.3 9.7,34.5 9.7,34.4 91.3,-0.4 					"/>
					<polygon class="st4" points="91.3,-0.3 9.7,34.6 9.7,34.5 91.3,-0.3 					"/>
					<polygon class="st4" points="91.3,-0.2 9.7,34.6 9.7,34.6 91.3,-0.3 					"/>
					<polygon class="st4" points="91.3,-0.1 9.7,34.7 9.7,34.6 91.3,-0.2 					"/>
					<polygon class="st4" points="91.3,0 9.7,34.8 9.7,34.7 91.3,-0.1 					"/>
					<polygon class="st4" points="91.3,0.1 9.7,34.9 9.7,34.8 91.3,0 					"/>
					<polygon class="st4" points="91.3,0.2 9.7,35 9.7,34.9 91.3,0.1 					"/>
					<polygon class="st4" points="91.3,0.3 9.7,35.1 9.7,35 91.3,0.2 					"/>
					<polygon class="st4" points="91.3,0.3 9.7,35.2 9.7,35.1 91.3,0.3 					"/>
					<polygon class="st4" points="91.3,0.4 9.7,35.3 9.7,35.2 91.3,0.3 					"/>
					<polygon class="st4" points="91.3,0.5 9.7,35.3 9.7,35.3 91.3,0.4 					"/>
					<polygon class="st4" points="91.3,0.6 9.7,35.4 9.7,35.3 91.3,0.5 					"/>
					<polygon class="st4" points="91.3,0.7 9.7,35.5 9.7,35.4 91.3,0.6 					"/>
					<polygon class="st4" points="91.3,0.8 9.7,35.6 9.7,35.5 91.3,0.7 					"/>
					<polygon class="st4" points="91.3,0.9 9.7,35.7 9.7,35.6 91.3,0.8 					"/>
					<polygon class="st4" points="91.3,1 9.7,35.8 9.7,35.7 91.3,0.9 					"/>
					<polygon class="st4" points="91.3,1 9.7,35.9 9.7,35.8 91.3,1 					"/>
					<polygon class="st4" points="91.3,1.1 9.7,35.9 9.7,35.9 91.3,1 					"/>
					<polygon class="st4" points="91.3,1.2 9.7,36 9.7,35.9 91.3,1.1 					"/>
					<polygon class="st4" points="91.3,1.3 9.7,36.1 9.7,36 91.3,1.2 					"/>
					<polygon class="st4" points="91.3,1.4 9.7,36.2 9.7,36.1 91.3,1.3 					"/>
					<polygon class="st4" points="91.3,1.5 9.7,36.3 9.7,36.2 91.3,1.4 					"/>
					<polygon class="st4" points="91.3,1.6 9.7,36.4 9.7,36.3 91.3,1.5 					"/>
					<polygon class="st4" points="91.3,1.7 9.7,36.5 9.7,36.4 91.3,1.6 					"/>
					<polygon class="st4" points="91.3,1.7 9.7,36.6 9.7,36.5 91.3,1.7 					"/>
					<polygon class="st4" points="91.3,1.8 9.7,36.6 9.7,36.6 91.3,1.7 					"/>
					<polygon class="st4" points="91.3,1.9 9.7,36.7 9.7,36.6 91.3,1.8 					"/>
					<polygon class="st4" points="91.3,2 9.7,36.8 9.7,36.7 91.3,1.9 					"/>
					<polygon class="st4" points="91.3,2.1 9.7,36.9 9.7,36.8 91.3,2 					"/>
					<polygon class="st4" points="91.3,2.2 9.7,37 9.7,36.9 91.3,2.1 					"/>
					<polygon class="st4" points="91.3,2.3 9.7,37.1 9.7,37 91.3,2.2 					"/>
					<polygon class="st4" points="91.3,2.3 9.7,37.2 9.7,37.1 91.3,2.3 					"/>
					<polygon class="st4" points="91.3,2.4 9.7,37.3 9.7,37.2 91.3,2.3 					"/>
					<polygon class="st4" points="91.3,2.5 9.7,37.3 9.7,37.3 91.3,2.4 					"/>
					<polygon class="st4" points="91.3,2.6 9.7,37.4 9.7,37.3 91.3,2.5 					"/>
					<polygon class="st4" points="91.3,2.7 9.7,37.5 9.7,37.4 91.3,2.6 					"/>
					<polygon class="st4" points="91.3,2.8 9.7,37.6 9.7,37.5 91.3,2.7 					"/>
					<polygon class="st4" points="91.3,2.9 9.7,37.7 9.7,37.6 91.3,2.8 					"/>
					<polygon class="st4" points="91.3,3 9.7,37.8 9.7,37.7 91.3,2.9 					"/>
					<polygon class="st4" points="91.3,3 9.7,37.9 9.7,37.8 91.3,3 					"/>
					<polygon class="st4" points="91.3,3.1 9.7,37.9 9.7,37.9 91.3,3 					"/>
					<polygon class="st4" points="91.3,3.2 9.7,38 9.7,37.9 91.3,3.1 					"/>
					<polygon class="st4" points="91.3,3.3 9.7,38.1 9.7,38 91.3,3.2 					"/>
					<polygon class="st4" points="91.3,3.4 9.7,38.2 9.7,38.1 91.3,3.3 					"/>
					<polygon class="st4" points="91.3,3.5 9.7,38.3 9.7,38.2 91.3,3.4 					"/>
					<polygon class="st4" points="91.3,3.6 9.7,38.4 9.7,38.3 91.3,3.5 					"/>
					<polygon class="st4" points="91.3,3.6 9.7,38.5 9.7,38.4 91.3,3.6 					"/>
					<polygon class="st4" points="91.3,3.7 9.7,38.6 9.7,38.5 91.3,3.6 					"/>
					<polygon class="st4" points="91.3,3.8 9.7,38.6 9.7,38.6 91.3,3.7 					"/>
					<polygon class="st4" points="91.3,3.9 9.7,38.7 9.7,38.6 91.3,3.8 					"/>
					<polygon class="st4" points="91.3,4 9.7,38.8 9.7,38.7 91.3,3.9 					"/>
					<polygon class="st4" points="91.3,4.1 9.7,38.9 9.7,38.8 91.3,4 					"/>
					<polygon class="st4" points="91.3,4.2 9.7,39 9.7,38.9 91.3,4.1 					"/>
					<polygon class="st4" points="91.3,4.3 9.7,39.1 9.7,39 91.3,4.2 					"/>
					<polygon class="st4" points="91.3,4.3 9.7,39.2 9.7,39.1 91.3,4.3 					"/>
					<polygon class="st4" points="91.3,4.4 9.7,39.2 9.7,39.2 91.3,4.3 					"/>
					<polygon class="st4" points="91.3,4.5 9.7,39.3 9.7,39.2 91.3,4.4 					"/>
					<polygon class="st4" points="91.3,4.6 9.7,39.4 9.7,39.3 91.3,4.5 					"/>
					<polygon class="st4" points="91.3,4.7 9.7,39.5 9.7,39.4 91.3,4.6 					"/>
					<polygon class="st4" points="91.3,4.8 9.7,39.6 9.7,39.5 91.3,4.7 					"/>
					<polygon class="st4" points="91.3,4.9 9.7,39.7 9.7,39.6 91.3,4.8 					"/>
					<polygon class="st4" points="91.3,5 9.7,39.8 9.7,39.7 91.3,4.9 					"/>
					<polygon class="st4" points="91.3,5 9.7,39.9 9.7,39.8 91.3,5 					"/>
					<polygon class="st4" points="91.3,5.1 9.7,39.9 9.7,39.9 91.3,5 					"/>
					<polygon class="st4" points="91.3,5.2 9.7,40 9.7,39.9 91.3,5.1 					"/>
					<polygon class="st4" points="91.3,5.3 9.7,40.1 9.7,40 91.3,5.2 					"/>
					<polygon class="st4" points="91.3,5.4 9.7,40.2 9.7,40.1 91.3,5.3 					"/>
					<polygon class="st4" points="91.3,5.5 9.7,40.3 9.7,40.2 91.3,5.4 					"/>
					<polygon class="st4" points="91.3,5.6 9.7,40.4 9.7,40.3 91.3,5.5 					"/>
					<polygon class="st4" points="91.3,5.6 9.7,40.5 9.7,40.4 91.3,5.6 					"/>
					<polygon class="st4" points="91.3,5.7 9.7,40.6 9.7,40.5 91.3,5.6 					"/>
					<polygon class="st4" points="91.3,5.8 9.7,40.6 9.7,40.6 91.3,5.7 					"/>
					<polygon class="st4" points="91.3,5.9 9.7,40.7 9.7,40.6 91.3,5.8 					"/>
					<polygon class="st4" points="91.3,6 9.7,40.8 9.7,40.7 91.3,5.9 					"/>
					<polygon class="st4" points="91.3,6.1 9.7,40.9 9.7,40.8 91.3,6 					"/>
					<polygon class="st4" points="91.3,6.2 9.7,41 9.7,40.9 91.3,6.1 					"/>
					<polygon class="st4" points="91.3,6.3 9.7,41.1 9.7,41 91.3,6.2 					"/>
					<polygon class="st4" points="91.3,6.3 9.7,41.2 9.7,41.1 91.3,6.3 					"/>
					<polygon class="st4" points="91.3,6.4 9.7,41.2 9.7,41.2 91.3,6.3 					"/>
					<polygon class="st4" points="91.3,6.5 9.7,41.3 9.7,41.2 91.3,6.4 					"/>
					<polygon class="st4" points="91.3,6.6 9.7,41.4 9.7,41.3 91.3,6.5 					"/>
					<polygon class="st4" points="91.3,6.7 9.7,41.5 9.7,41.4 91.3,6.6 					"/>
					<polygon class="st4" points="91.3,6.8 9.7,41.6 9.7,41.5 91.3,6.7 					"/>
					<polygon class="st4" points="91.3,6.9 9.7,41.7 9.7,41.6 91.3,6.8 					"/>
					<polygon class="st4" points="91.3,6.9 9.7,41.8 9.7,41.7 91.3,6.9 					"/>
					<polygon class="st4" points="91.3,7 9.7,41.9 9.7,41.8 91.3,6.9 					"/>
					<polygon class="st4" points="91.3,7.1 9.7,41.9 9.7,41.9 91.3,7 					"/>
					<polygon class="st4" points="91.3,7.2 9.7,42 9.7,41.9 91.3,7.1 					"/>
					<polygon class="st4" points="91.3,7.3 9.7,42.1 9.7,42 91.3,7.2 					"/>
					<polygon class="st4" points="91.3,7.4 9.7,42.2 9.7,42.1 91.3,7.3 					"/>
					<polygon class="st4" points="91.3,7.5 9.7,42.3 9.7,42.2 91.3,7.4 					"/>
					<polygon class="st4" points="91.3,7.6 9.7,42.4 9.7,42.3 91.3,7.5 					"/>
					<polygon class="st4" points="91.3,7.6 9.7,42.5 9.7,42.4 91.3,7.6 					"/>
					<polygon class="st4" points="91.3,7.7 9.7,42.6 9.7,42.5 91.3,7.6 					"/>
					<polygon class="st4" points="91.3,7.8 9.7,42.6 9.7,42.6 91.3,7.7 					"/>
					<polygon class="st4" points="91.3,7.9 9.7,42.7 9.7,42.6 91.3,7.8 					"/>
					<polygon class="st4" points="91.3,8 9.7,42.8 9.7,42.7 91.3,7.9 					"/>
					<polygon class="st4" points="91.3,8.1 9.7,42.9 9.7,42.8 91.3,8 					"/>
					<polygon class="st4" points="91.3,8.2 9.7,43 9.7,42.9 91.3,8.1 					"/>
					<polygon class="st4" points="91.3,8.3 9.7,43.1 9.7,43 91.3,8.2 					"/>
					<polygon class="st4" points="91.3,8.3 9.7,43.2 9.7,43.1 91.3,8.3 					"/>
					<polygon class="st4" points="91.3,8.4 9.7,43.2 9.7,43.2 91.3,8.3 					"/>
					<polygon class="st4" points="91.3,8.5 9.7,43.3 9.7,43.2 91.3,8.4 					"/>
					<polygon class="st4" points="91.3,8.6 9.7,43.4 9.7,43.3 91.3,8.5 					"/>
					<polygon class="st4" points="91.3,8.7 9.7,43.5 9.7,43.4 91.3,8.6 					"/>
					<polygon class="st4" points="91.3,8.8 9.7,43.6 9.7,43.5 91.3,8.7 					"/>
					<polygon class="st4" points="91.3,8.9 9.7,43.7 9.7,43.6 91.3,8.8 					"/>
					<polygon class="st4" points="9.7,43.7 91.3,8.9 91.3,64.4 9.7,64.4 					"/>
				</g>
			</g>
		</g>
		<g>
			<defs>
				<path id="SVGID_9_" d="M36.6,32.8c4.9,3.9,6.3,6.5,8.3,7.9c2.2,1.5,4.8,1.4,5.5-0.5c-0.7,1.3-3.5,1.6-5.5,0
					c-2-1.6-4.1-4.5-7.5-7.1c-2.6-2-7.2-6.1-8.4-8.2C29.6,25.9,31.4,28.6,36.6,32.8 M29.1,24.9c-0.1-0.2-0.2-0.4-0.2-0.4
					C28.9,24.6,29,24.7,29.1,24.9 M28.9,24.5C28.9,24.5,28.9,24.5,28.9,24.5C28.9,24.5,28.9,24.5,28.9,24.5"/>
			</defs>
			<use xlink:href="#SVGID_9_"  style="overflow:visible;fill:#FFFFFF;"/>
			<clipPath id="SVGID_10_">
				<use xlink:href="#SVGID_9_"  style="overflow:visible;"/>
			</clipPath>
			<defs>
				<filter id="Adobe_OpacityMaskFilter" filterUnits="userSpaceOnUse" x="20.3" y="14" width="38.8" height="38.7">
					<feColorMatrix  type="matrix" values="1 0 0 0 0  0 1 0 0 0  0 0 1 0 0  0 0 0 1 0"/>
				</filter>
			</defs>
			<mask maskUnits="userSpaceOnUse" x="20.3" y="14" width="38.8" height="38.7" id="SVGID_11_">
				<g class="st5">
					
						<linearGradient id="SVGID_12_" gradientUnits="userSpaceOnUse" x1="-327.3632" y1="298.162" x2="-326.3615" y2="298.162" gradientTransform="matrix(16.8522 13.3093 13.3093 -16.8522 1582.6512 9410.6094)">
						<stop  offset="0" style="stop-color:#000000"/>
						<stop  offset="0.5" style="stop-color:#FFFFFF"/>
						<stop  offset="1" style="stop-color:#000000"/>
					</linearGradient>
					<polygon class="st6" points="37.2,14 59.1,31.2 42.2,52.6 20.3,35.3 					"/>
				</g>
			</mask>
			<g class="st7">
				<g>
					<defs>
						
							<rect id="SVGID_13_" x="26.1" y="19.4" transform="matrix(0.6198 -0.7848 0.7848 0.6198 -11.0383 43.8066)" width="27.2" height="27.9"/>
					</defs>
					<use xlink:href="#SVGID_13_"  style="overflow:visible;fill:#FFFFFF;"/>
					<clipPath id="SVGID_14_">
						<use xlink:href="#SVGID_13_"  style="overflow:visible;"/>
					</clipPath>
					<polygon class="st8" points="46,14 20.3,46.5 20.3,14 					"/>
					<polygon class="st8" points="59.1,14.8 29.2,52.6 20.3,52.6 20.3,46.5 46,14 59.1,14 					"/>
					<polygon class="st8" points="59.1,32.1 42.9,52.6 29.2,52.6 59.1,14.8 					"/>
					<polygon class="st8" points="42.9,52.6 59.1,32.1 59.1,52.6 					"/>
				</g>
			</g>
		</g>
		<g>
			<defs>
				<path id="SVGID_15_" d="M70.3,23.8c-1.7-0.2-4.3-0.3-8.7,0c-10.6,0.7-14.2,4.1-14.2,4.1c6.6-4,15.8-3.8,19.2-3.9
					c1.5,0,2.7,0.1,3.7,0.2c1.3,0.1,2.3,0.3,3.1,0.1c1.4-0.3,1.6-1,1.6-1C73.4,24.2,72.6,24,70.3,23.8"/>
			</defs>
			<use xlink:href="#SVGID_15_"  style="overflow:visible;fill:#FFFFFF;"/>
			<clipPath id="SVGID_16_">
				<use xlink:href="#SVGID_15_"  style="overflow:visible;"/>
			</clipPath>
			<defs>
				<filter id="Adobe_OpacityMaskFilter_1_" filterUnits="userSpaceOnUse" x="46.6" y="18.9" width="29.1" height="13.2">
					<feColorMatrix  type="matrix" values="1 0 0 0 0  0 1 0 0 0  0 0 1 0 0  0 0 0 1 0"/>
				</filter>
			</defs>
			<mask maskUnits="userSpaceOnUse" x="46.6" y="18.9" width="29.1" height="13.2" id="SVGID_17_">
				<g class="st9">
					
						<linearGradient id="SVGID_18_" gradientUnits="userSpaceOnUse" x1="-322.7502" y1="296.5172" x2="-321.7486" y2="296.5172" gradientTransform="matrix(27.6065 -4.417 -4.417 -27.6065 10267.0088 6787.9434)">
						<stop  offset="0" style="stop-color:#000000"/>
						<stop  offset="0.5" style="stop-color:#FFFFFF"/>
						<stop  offset="1" style="stop-color:#000000"/>
					</linearGradient>
					<polygon class="st10" points="46.6,23.4 74.3,18.9 75.7,27.7 48,32.1 					"/>
				</g>
			</mask>
			<g class="st11">
				<g>
					<defs>
						
							<rect id="SVGID_19_" x="47.1" y="21.1" transform="matrix(0.9874 -0.158 0.158 0.9874 -3.2623 9.9791)" width="28.1" height="8.9"/>
					</defs>
					<use xlink:href="#SVGID_19_"  style="overflow:visible;fill:#FFFFFF;"/>
					<clipPath id="SVGID_20_">
						<use xlink:href="#SVGID_19_"  style="overflow:visible;"/>
					</clipPath>
					<polygon class="st12" points="46.6,23.4 48,32.1 46.6,32.1 					"/>
					<polygon class="st12" points="60.1,18.9 62.2,32.1 48,32.1 46.6,23.4 46.6,18.9 					"/>
					<polygon class="st12" points="74.2,18.9 75.7,28.1 75.7,32.1 62.2,32.1 60.1,18.9 					"/>
					<polygon class="st12" points="75.7,28.1 74.2,18.9 75.7,18.9 					"/>
				</g>
			</g>
		</g>
		<g>
			<defs>
				<path id="SVGID_21_" d="M66.8,17.1c-2.9,0.7-7.7,1.4-7.7,1.4c3.6-0.2,9.1-1.4,11-1.8c2.2-0.6,2.1-1.9,2.1-1.9
					C71.8,16.2,69.7,16.4,66.8,17.1"/>
			</defs>
			<use xlink:href="#SVGID_21_"  style="overflow:visible;fill:#FFFFFF;"/>
			<clipPath id="SVGID_22_">
				<use xlink:href="#SVGID_21_"  style="overflow:visible;"/>
			</clipPath>
			<defs>
				<filter id="Adobe_OpacityMaskFilter_2_" filterUnits="userSpaceOnUse" x="58.6" y="12.8" width="14.4" height="7.8">
					<feColorMatrix  type="matrix" values="1 0 0 0 0  0 1 0 0 0  0 0 1 0 0  0 0 0 1 0"/>
				</filter>
			</defs>
			<mask maskUnits="userSpaceOnUse" x="58.6" y="12.8" width="14.4" height="7.8" id="SVGID_23_">
				<g class="st13">
					
						<linearGradient id="SVGID_24_" gradientUnits="userSpaceOnUse" x1="-320.3307" y1="301.3525" x2="-319.3294" y2="301.3525" gradientTransform="matrix(13.2955 -2.1273 -2.1273 -13.2955 4959.0537 3342.9629)">
						<stop  offset="0" style="stop-color:#000000"/>
						<stop  offset="0.5" style="stop-color:#FFFFFF"/>
						<stop  offset="1" style="stop-color:#000000"/>
					</linearGradient>
					<polygon class="st14" points="58.6,14.9 72,12.8 73,18.4 59.5,20.6 					"/>
				</g>
			</mask>
			<g class="st15">
				<g>
					<defs>
						
							<rect id="SVGID_25_" x="58.9" y="13.8" transform="matrix(0.9874 -0.1581 0.1581 0.9874 -1.8117 10.6039)" width="13.6" height="5.7"/>
					</defs>
					<use xlink:href="#SVGID_25_"  style="overflow:visible;fill:#FFFFFF;"/>
					<clipPath id="SVGID_26_">
						<use xlink:href="#SVGID_25_"  style="overflow:visible;"/>
					</clipPath>
					<polygon class="st16" points="58.6,14.9 59.5,20.6 58.6,20.6 					"/>
					<polygon class="st16" points="65.1,12.8 66.3,20.6 59.5,20.6 58.6,14.9 58.6,12.8 					"/>
					<polygon class="st16" points="71.9,12.8 73,19.4 73,20.6 66.3,20.6 65.1,12.8 					"/>
					<polygon class="st16" points="73,19.4 71.9,12.8 73,12.8 					"/>
				</g>
			</g>
		</g>
		<g>
			<defs>
				<path id="SVGID_27_" d="M61.6,11c-1.1,0.5-6.5,2.7-6.5,2.7c1.3-0.2,7.3-2.7,9.2-3.5c2.1-0.8,2.3-1.8,2.3-1.8
					C65.7,9.6,62.7,10.5,61.6,11"/>
			</defs>
			<use xlink:href="#SVGID_27_"  style="overflow:visible;fill:#FFFFFF;"/>
			<clipPath id="SVGID_28_">
				<use xlink:href="#SVGID_27_"  style="overflow:visible;"/>
			</clipPath>
			<defs>
				<filter id="Adobe_OpacityMaskFilter_3_" filterUnits="userSpaceOnUse" x="53.1" y="4" width="15.4" height="13.9">
					<feColorMatrix  type="matrix" values="1 0 0 0 0  0 1 0 0 0  0 0 1 0 0  0 0 0 1 0"/>
				</filter>
			</defs>
			<mask maskUnits="userSpaceOnUse" x="53.1" y="4" width="15.4" height="13.9" id="SVGID_29_">
				<g class="st17">
					
						<linearGradient id="SVGID_30_" gradientUnits="userSpaceOnUse" x1="-315.9678" y1="302.2548" x2="-314.9663" y2="302.2548" gradientTransform="matrix(9.4069 -4.2105 -4.2105 -9.4069 4301.3076 1525.8601)">
						<stop  offset="0" style="stop-color:#000000"/>
						<stop  offset="0.5" style="stop-color:#FFFFFF"/>
						<stop  offset="1" style="stop-color:#000000"/>
					</linearGradient>
					<polygon class="st18" points="53.1,9.2 64.7,4 68.6,12.7 57,17.9 					"/>
				</g>
			</mask>
			<g class="st19">
				<g>
					<defs>
						
							<rect id="SVGID_31_" x="54.5" y="6.2" transform="matrix(0.9127 -0.4086 0.4086 0.9127 0.8358 25.8281)" width="12.7" height="9.5"/>
					</defs>
					<use xlink:href="#SVGID_31_"  style="overflow:visible;fill:#FFFFFF;"/>
					<clipPath id="SVGID_32_">
						<use xlink:href="#SVGID_31_"  style="overflow:visible;"/>
					</clipPath>
					<polygon class="st20" points="53.1,5.7 58.6,17.9 53.1,17.9 					"/>
					<polygon class="st20" points="58,4 64.2,17.9 58.6,17.9 53.1,5.7 53.1,4 					"/>
					<polygon class="st20" points="63.7,4 68.6,15 68.6,17.9 64.2,17.9 58,4 					"/>
					<polygon class="st20" points="68.6,15 63.7,4 68.6,4 					"/>
				</g>
			</g>
		</g>
		<g>
			<defs>
				<path id="SVGID_33_" d="M56.2,5.7C55.4,6.3,49,9.4,49,9.4c1.1-0.4,6.7-3.1,8-3.9c1.3-0.8,1.2-1.4,1.2-1.4
					C57.7,4.9,57.1,5.2,56.2,5.7"/>
			</defs>
			<use xlink:href="#SVGID_33_"  style="overflow:visible;fill:#FFFFFF;"/>
			<clipPath id="SVGID_34_">
				<use xlink:href="#SVGID_33_"  style="overflow:visible;"/>
			</clipPath>
			<defs>
				<filter id="Adobe_OpacityMaskFilter_4_" filterUnits="userSpaceOnUse" x="46.7" y="0.1" width="13.9" height="13.3">
					<feColorMatrix  type="matrix" values="1 0 0 0 0  0 1 0 0 0  0 0 1 0 0  0 0 0 1 0"/>
				</filter>
			</defs>
			<mask maskUnits="userSpaceOnUse" x="46.7" y="0.1" width="13.9" height="13.3" id="SVGID_35_">
				<g class="st21">
					
						<linearGradient id="SVGID_36_" gradientUnits="userSpaceOnUse" x1="-312.8229" y1="303.2312" x2="-311.8212" y2="303.2312" gradientTransform="matrix(7.353 -4.2926 -4.2926 -7.353 3652.272 895.5399)">
						<stop  offset="0" style="stop-color:#000000"/>
						<stop  offset="0.5" style="stop-color:#FFFFFF"/>
						<stop  offset="1" style="stop-color:#000000"/>
					</linearGradient>
					<polygon class="st22" points="46.7,5.5 56,0.1 60.6,8.1 51.4,13.5 					"/>
				</g>
			</mask>
			<g class="st23">
				<g>
					<defs>
						
							<rect id="SVGID_37_" x="48.3" y="2.2" transform="matrix(0.8636 -0.5042 0.5042 0.8636 3.8916 27.9963)" width="10.7" height="9.2"/>
					</defs>
					<use xlink:href="#SVGID_37_"  style="overflow:visible;fill:#FFFFFF;"/>
					<clipPath id="SVGID_38_">
						<use xlink:href="#SVGID_37_"  style="overflow:visible;"/>
					</clipPath>
					<polygon class="st24" points="46.7,2.4 53.2,13.5 46.7,13.5 					"/>
					<polygon class="st24" points="50.4,0.1 58.2,13.5 53.2,13.5 46.7,2.4 46.7,0.1 					"/>
					<polygon class="st24" points="55.3,0.1 60.6,9.2 60.6,13.5 58.2,13.5 50.4,0.1 					"/>
					<polygon class="st24" points="60.6,9.2 55.3,0.1 60.6,0.1 					"/>
				</g>
			</g>
		</g>
		<g>
			<defs>
				<path id="SVGID_39_" d="M56.4,29.9c-0.7,1.8,1.3,3.5,1.3,3.5c3.6,4.3,3.9,5.3,3.9,5.3c0.4,2.4-2.5,4-3.5,4.6
					c-4.9,2.7-10.8,3-14.4,3.1c-5.5,0.1-6.5,0-8.9-0.2c-2.2-0.2-3.3,0.8-3.3,1.7c-0.1,1.4,1,1.8,1,1.8c1.3,0.2,2.6,0.3,2.6,0.3
					c2.1,0.3,11.7,0.3,11.7,0.3c3.8-0.5,3.1,0.3,3.1,0.3c-1,1.2-3.3,1.4-3.3,1.4c-0.2,0-7.3,1.2-7.3,1.2c-3.5,0.6-5.1,1.1-5.1,2.5
					c0.1,2,2.5,2.1,2.5,2.1c0.8,0.1,7.5-1.7,7.5-1.7c6.3-1.5,9.5-1.8,9.5-1.8c2-0.1,0.7,0.8,0.7,0.8c-1,0.9-3.7,1.9-5,2.3
					c-2.3,0.7-6.6,2.3-8.5,3.6c-1.7,1.2-0.6,2.5,0.2,2.9c1.4,0.7,2.1-0.5,2.1-0.5c1.5-0.6,8.9-3.2,8.9-3.2c4.4-1.5,6-1.4,6-1.4
					c2.3-0.1,1.6,0.8,1.6,0.8c-0.2,0.3-1.6,1-1.6,1s-4.9,2.5-6.6,3.3c-1.8,0.8-3.5,1.8-3.2,3c0.5,2,2.6,1.5,2.6,1.5
					c0.9-0.3,9.6-4.4,9.6-4.4c4.5-1.6,11-5.6,11-5.6c3.8-2.4,6.9-6,6.9-6c1-3.6,0.4-5.8-0.9-7.6c-1.8-2.6-5-5.9-7.5-7.9
					c-3.2-2.6-7.1-6.8-8-7.5c-1.1-0.8-2.1-1.1-3-1.1C57.6,28.3,56.7,29.1,56.4,29.9"/>
			</defs>
			<use xlink:href="#SVGID_39_"  style="overflow:visible;fill:#FFFFFF;"/>
			<clipPath id="SVGID_40_">
				<use xlink:href="#SVGID_39_"  style="overflow:visible;"/>
			</clipPath>
			<g class="st25">
				<g>
					<defs>
						
							<rect id="SVGID_41_" x="24.1" y="18.1" transform="matrix(0.8118 -0.5839 0.5839 0.8118 -17.8992 41.4963)" width="62.6" height="60.9"/>
					</defs>
					<use xlink:href="#SVGID_41_"  style="overflow:visible;fill:#FFFFFF;"/>
					<clipPath id="SVGID_42_">
						<use xlink:href="#SVGID_41_"  style="overflow:visible;"/>
					</clipPath>
					<polygon class="st26" points="24.7,91.5 98.6,38.4 98.6,91.5 					"/>
					<polygon class="st26" points="24.6,91.5 98.6,38.3 98.6,38.4 24.7,91.5 					"/>
					<polygon class="st26" points="24.4,91.5 98.6,38.1 98.6,38.3 24.6,91.5 					"/>
					<polygon class="st26" points="24.3,91.5 98.6,38 98.6,38.1 24.4,91.5 					"/>
					<polygon class="st26" points="24.1,91.5 98.6,37.9 98.6,38 24.3,91.5 					"/>
					<polygon class="st26" points="23.9,91.5 98.6,37.8 98.6,37.9 24.1,91.5 					"/>
					<polygon class="st26" points="23.8,91.5 98.6,37.7 98.6,37.8 23.9,91.5 					"/>
					<polygon class="st26" points="23.6,91.5 98.6,37.6 98.6,37.7 23.8,91.5 					"/>
					<polygon class="st26" points="23.5,91.5 98.6,37.5 98.6,37.6 23.6,91.5 					"/>
					<polygon class="st26" points="23.3,91.5 98.6,37.4 98.6,37.5 23.5,91.5 					"/>
					<polygon class="st26" points="23.2,91.5 98.6,37.2 98.6,37.4 23.3,91.5 					"/>
					<polygon class="st26" points="23,91.5 98.6,37.1 98.6,37.2 23.2,91.5 					"/>
					<polygon class="st26" points="22.8,91.5 98.6,37 98.6,37.1 23,91.5 					"/>
					<polygon class="st26" points="22.7,91.5 98.6,36.9 98.6,37 22.8,91.5 					"/>
					<polygon class="st26" points="22.5,91.5 98.6,36.8 98.6,36.9 22.7,91.5 					"/>
					<polygon class="st26" points="22.4,91.5 98.6,36.7 98.6,36.8 22.5,91.5 					"/>
					<polygon class="st26" points="22.2,91.5 98.6,36.6 98.6,36.7 22.4,91.5 					"/>
					<polygon class="st26" points="22.1,91.5 98.6,36.5 98.6,36.6 22.2,91.5 					"/>
					<polygon class="st26" points="21.9,91.5 98.6,36.3 98.6,36.5 22.1,91.5 					"/>
					<polygon class="st26" points="21.7,91.5 98.6,36.2 98.6,36.3 21.9,91.5 					"/>
					<polygon class="st26" points="21.6,91.5 98.6,36.1 98.6,36.2 21.7,91.5 					"/>
					<polygon class="st26" points="21.4,91.5 98.6,36 98.6,36.1 21.6,91.5 					"/>
					<polygon class="st26" points="21.3,91.5 98.6,35.9 98.6,36 21.4,91.5 					"/>
					<polygon class="st26" points="21.1,91.5 98.6,35.8 98.6,35.9 21.3,91.5 					"/>
					<polygon class="st26" points="21,91.5 98.6,35.7 98.6,35.8 21.1,91.5 					"/>
					<polygon class="st26" points="20.8,91.5 98.6,35.5 98.6,35.7 21,91.5 					"/>
					<polygon class="st26" points="20.6,91.5 98.6,35.4 98.6,35.5 20.8,91.5 					"/>
					<polygon class="st26" points="20.5,91.5 98.6,35.3 98.6,35.4 20.6,91.5 					"/>
					<polygon class="st26" points="20.3,91.5 98.6,35.2 98.6,35.3 20.5,91.5 					"/>
					<polygon class="st26" points="20.2,91.5 98.6,35.1 98.6,35.2 20.3,91.5 					"/>
					<polygon class="st26" points="20,91.5 98.6,35 98.6,35.1 20.2,91.5 					"/>
					<polygon class="st26" points="19.9,91.5 98.6,34.9 98.6,35 20,91.5 					"/>
					<polygon class="st26" points="19.7,91.5 98.6,34.8 98.6,34.9 19.9,91.5 					"/>
					<polygon class="st26" points="19.5,91.5 98.6,34.6 98.6,34.8 19.7,91.5 					"/>
					<polygon class="st26" points="19.4,91.5 98.6,34.5 98.6,34.6 19.5,91.5 					"/>
					<polygon class="st26" points="19.2,91.5 98.6,34.4 98.6,34.5 19.4,91.5 					"/>
					<polygon class="st26" points="19.1,91.5 98.6,34.3 98.6,34.4 19.2,91.5 					"/>
					<polygon class="st26" points="18.9,91.5 98.6,34.2 98.6,34.3 19.1,91.5 					"/>
					<polygon class="st26" points="18.8,91.5 98.6,34.1 98.6,34.2 18.9,91.5 					"/>
					<polygon class="st26" points="18.6,91.5 98.6,34 98.6,34.1 18.8,91.5 					"/>
					<polygon class="st26" points="18.4,91.5 98.6,33.8 98.6,34 18.6,91.5 					"/>
					<polygon class="st26" points="18.3,91.5 98.6,33.7 98.6,33.8 18.4,91.5 					"/>
					<polygon class="st26" points="18.1,91.5 98.6,33.6 98.6,33.7 18.3,91.5 					"/>
					<polygon class="st26" points="18,91.5 98.6,33.5 98.6,33.6 18.1,91.5 					"/>
					<polygon class="st26" points="17.8,91.5 98.6,33.4 98.6,33.5 18,91.5 					"/>
					<polygon class="st26" points="17.6,91.5 98.6,33.3 98.6,33.4 17.8,91.5 					"/>
					<polygon class="st26" points="17.5,91.5 98.6,33.2 98.6,33.3 17.6,91.5 					"/>
					<polygon class="st26" points="17.3,91.5 98.6,33.1 98.6,33.2 17.5,91.5 					"/>
					<polygon class="st26" points="17.2,91.5 98.6,32.9 98.6,33.1 17.3,91.5 					"/>
					<polygon class="st26" points="17,91.5 98.6,32.8 98.6,32.9 17.2,91.5 					"/>
					<polygon class="st26" points="16.9,91.5 98.6,32.7 98.6,32.8 17,91.5 					"/>
					<polygon class="st26" points="16.7,91.5 98.6,32.6 98.6,32.7 16.9,91.5 					"/>
					<polygon class="st26" points="16.5,91.5 98.6,32.5 98.6,32.6 16.7,91.5 					"/>
					<polygon class="st26" points="16.4,91.5 98.6,32.4 98.6,32.5 16.5,91.5 					"/>
					<polygon class="st26" points="16.2,91.5 98.6,32.3 98.6,32.4 16.4,91.5 					"/>
					<polygon class="st26" points="16.1,91.5 98.6,32.2 98.6,32.3 16.2,91.5 					"/>
					<polygon class="st26" points="15.9,91.5 98.6,32 98.6,32.2 16.1,91.5 					"/>
					<polygon class="st26" points="15.8,91.5 98.6,31.9 98.6,32 15.9,91.5 					"/>
					<polygon class="st26" points="15.6,91.5 98.6,31.8 98.6,31.9 15.8,91.5 					"/>
					<polygon class="st26" points="15.4,91.5 98.6,31.7 98.6,31.8 15.6,91.5 					"/>
					<polygon class="st26" points="15.3,91.5 98.6,31.6 98.6,31.7 15.4,91.5 					"/>
					<polygon class="st26" points="15.1,91.5 98.6,31.5 98.6,31.6 15.3,91.5 					"/>
					<polygon class="st26" points="15,91.5 98.6,31.4 98.6,31.5 15.1,91.5 					"/>
					<polygon class="st26" points="14.8,91.5 98.6,31.2 98.6,31.4 15,91.5 					"/>
					<polygon class="st26" points="14.7,91.5 98.6,31.1 98.6,31.2 14.8,91.5 					"/>
					<polygon class="st26" points="14.5,91.5 98.6,31 98.6,31.1 14.7,91.5 					"/>
					<polygon class="st26" points="14.3,91.5 98.6,30.9 98.6,31 14.5,91.5 					"/>
					<polygon class="st26" points="14.2,91.5 98.6,30.8 98.6,30.9 14.3,91.5 					"/>
					<polygon class="st26" points="14,91.5 98.6,30.7 98.6,30.8 14.2,91.5 					"/>
					<polygon class="st26" points="13.9,91.5 98.6,30.6 98.6,30.7 14,91.5 					"/>
					<polygon class="st26" points="13.7,91.5 98.6,30.5 98.6,30.6 13.9,91.5 					"/>
					<polygon class="st26" points="13.6,91.5 98.6,30.3 98.6,30.5 13.7,91.5 					"/>
					<polygon class="st26" points="13.4,91.5 98.6,30.2 98.6,30.3 13.6,91.5 					"/>
					<polygon class="st26" points="13.2,91.5 98.6,30.1 98.6,30.2 13.4,91.5 					"/>
					<polygon class="st26" points="13.1,91.5 98.6,30 98.6,30.1 13.2,91.5 					"/>
					<polygon class="st26" points="12.9,91.5 98.6,29.9 98.6,30 13.1,91.5 					"/>
					<polygon class="st26" points="12.8,91.5 98.6,29.8 98.6,29.9 12.9,91.5 					"/>
					<polygon class="st26" points="12.6,91.5 98.6,29.7 98.6,29.8 12.8,91.5 					"/>
					<polygon class="st26" points="12.5,91.5 98.6,29.5 98.6,29.7 12.6,91.5 					"/>
					<polygon class="st26" points="12.3,91.5 98.6,29.4 98.6,29.5 12.5,91.5 					"/>
					<polygon class="st26" points="12.2,91.5 98.6,29.3 98.6,29.4 12.3,91.5 12.2,91.5 					"/>
					<polygon class="st26" points="12.2,91.4 98.6,29.2 98.6,29.3 12.2,91.5 					"/>
					<polygon class="st26" points="12.2,91.2 98.6,29.1 98.6,29.2 12.2,91.4 					"/>
					<polygon class="st26" points="12.2,91.1 98.6,29 98.6,29.1 12.2,91.2 					"/>
					<polygon class="st26" points="12.2,91 98.6,28.9 98.6,29 12.2,91.1 					"/>
					<polygon class="st26" points="12.2,90.9 98.6,28.8 98.6,28.9 12.2,91 					"/>
					<polygon class="st26" points="12.2,90.8 98.6,28.6 98.6,28.8 12.2,90.9 					"/>
					<polygon class="st26" points="12.2,90.7 98.6,28.5 98.6,28.6 12.2,90.8 					"/>
					<polygon class="st26" points="12.2,90.6 98.6,28.4 98.6,28.5 12.2,90.7 					"/>
					<polygon class="st26" points="12.2,90.5 98.6,28.3 98.6,28.4 12.2,90.6 					"/>
					<polygon class="st26" points="12.2,90.3 98.6,28.2 98.6,28.3 12.2,90.5 					"/>
					<polygon class="st26" points="12.2,90.2 98.6,28.1 98.6,28.2 12.2,90.3 					"/>
					<polygon class="st26" points="12.2,90.1 98.6,28 98.6,28.1 12.2,90.2 					"/>
					<polygon class="st26" points="12.2,90 98.6,27.8 98.6,28 12.2,90.1 					"/>
					<polygon class="st26" points="12.2,89.9 98.6,27.7 98.6,27.8 12.2,90 					"/>
					<polygon class="st26" points="12.2,89.8 98.6,27.6 98.6,27.7 12.2,89.9 					"/>
					<polygon class="st26" points="12.2,89.7 98.6,27.5 98.6,27.6 12.2,89.8 					"/>
					<polygon class="st26" points="12.2,89.5 98.6,27.4 98.6,27.5 12.2,89.7 					"/>
					<polygon class="st26" points="12.2,89.4 98.6,27.3 98.6,27.4 12.2,89.5 					"/>
					<polygon class="st26" points="12.2,89.3 98.6,27.2 98.6,27.3 12.2,89.4 					"/>
					<polygon class="st26" points="12.2,89.2 98.6,27.1 98.6,27.2 12.2,89.3 					"/>
					<polygon class="st26" points="12.2,89.1 98.6,26.9 98.6,27.1 12.2,89.2 					"/>
					<polygon class="st26" points="12.2,89 98.6,26.8 98.6,26.9 12.2,89.1 					"/>
					<polygon class="st26" points="12.2,88.9 98.6,26.7 98.6,26.8 12.2,89 					"/>
					<polygon class="st26" points="12.2,88.8 98.6,26.6 98.6,26.7 12.2,88.9 					"/>
					<polygon class="st26" points="12.2,88.6 98.6,26.5 98.6,26.6 12.2,88.8 					"/>
					<polygon class="st26" points="12.2,88.5 98.6,26.4 98.6,26.5 12.2,88.6 					"/>
					<polygon class="st26" points="12.2,88.4 98.6,26.3 98.6,26.4 12.2,88.5 					"/>
					<polygon class="st26" points="12.2,88.3 98.6,26.2 98.6,26.3 12.2,88.4 					"/>
					<polygon class="st26" points="12.2,88.2 98.6,26 98.6,26.2 12.2,88.3 					"/>
					<polygon class="st26" points="12.2,88.1 98.6,25.9 98.6,26 12.2,88.2 					"/>
					<polygon class="st26" points="12.2,88 98.6,25.8 98.6,25.9 12.2,88.1 					"/>
					<polygon class="st26" points="12.2,87.9 98.6,25.7 98.6,25.8 12.2,88 					"/>
					<polygon class="st26" points="12.2,87.7 98.6,25.6 98.6,25.7 12.2,87.9 					"/>
					<polygon class="st26" points="12.2,87.6 98.6,25.5 98.6,25.6 12.2,87.7 					"/>
					<polygon class="st26" points="12.2,87.5 98.6,25.4 98.6,25.5 12.2,87.6 					"/>
					<polygon class="st26" points="12.2,87.4 98.6,25.2 98.6,25.4 12.2,87.5 					"/>
					<polygon class="st26" points="12.2,87.3 98.6,25.1 98.6,25.2 12.2,87.4 					"/>
					<polygon class="st26" points="12.2,87.2 98.6,25 98.6,25.1 12.2,87.3 					"/>
					<polygon class="st26" points="12.2,87.1 98.6,24.9 98.6,25 12.2,87.2 					"/>
					<polygon class="st26" points="12.2,86.9 98.6,24.8 98.6,24.9 12.2,87.1 					"/>
					<polygon class="st26" points="12.2,86.8 98.6,24.7 98.6,24.8 12.2,86.9 					"/>
					<polygon class="st26" points="12.2,86.7 98.6,24.6 98.6,24.7 12.2,86.8 					"/>
					<polygon class="st26" points="12.2,86.6 98.6,24.5 98.6,24.6 12.2,86.7 					"/>
					<polygon class="st26" points="12.2,86.5 98.6,24.3 98.6,24.5 12.2,86.6 					"/>
					<polygon class="st26" points="12.2,86.4 98.6,24.2 98.6,24.3 12.2,86.5 					"/>
					<polygon class="st26" points="12.2,86.3 98.6,24.1 98.6,24.2 12.2,86.4 					"/>
					<polygon class="st26" points="12.2,86.2 98.6,24 98.6,24.1 12.2,86.3 					"/>
					<polygon class="st26" points="12.2,86 98.6,23.9 98.6,24 12.2,86.2 					"/>
					<polygon class="st26" points="12.2,85.9 98.6,23.8 98.6,23.9 12.2,86 					"/>
					<polygon class="st26" points="12.2,85.8 98.6,23.7 98.6,23.8 12.2,85.9 					"/>
					<polygon class="st26" points="12.2,85.7 98.6,23.5 98.6,23.7 12.2,85.8 					"/>
					<polygon class="st26" points="12.2,85.6 98.6,23.4 98.6,23.5 12.2,85.7 					"/>
					<polygon class="st26" points="12.2,85.5 98.6,23.3 98.6,23.4 12.2,85.6 					"/>
					<polygon class="st26" points="12.2,85.4 98.6,23.2 98.6,23.3 12.2,85.5 					"/>
					<polygon class="st26" points="12.2,85.2 98.6,23.1 98.6,23.2 12.2,85.4 					"/>
					<polygon class="st26" points="12.2,85.1 98.6,23 98.6,23.1 12.2,85.2 					"/>
					<polygon class="st26" points="12.2,85 98.6,22.9 98.6,23 12.2,85.1 					"/>
					<polygon class="st26" points="12.2,84.9 98.6,22.8 98.6,22.9 12.2,85 					"/>
					<polygon class="st26" points="12.2,84.8 98.6,22.6 98.6,22.8 12.2,84.9 					"/>
					<polygon class="st26" points="12.2,84.7 98.6,22.5 98.6,22.6 12.2,84.8 					"/>
					<polygon class="st26" points="12.2,84.6 98.6,22.4 98.6,22.5 12.2,84.7 					"/>
					<polygon class="st26" points="12.2,84.5 98.6,22.3 98.6,22.4 12.2,84.6 					"/>
					<polygon class="st26" points="12.2,84.3 98.6,22.2 98.6,22.3 12.2,84.5 					"/>
					<polygon class="st26" points="12.2,84.2 98.6,22.1 98.6,22.2 12.2,84.3 					"/>
					<polygon class="st26" points="12.2,84.1 98.6,22 98.6,22.1 12.2,84.2 					"/>
					<polygon class="st26" points="12.2,84 98.6,21.9 98.6,22 12.2,84.1 					"/>
					<polygon class="st26" points="12.2,83.9 98.6,21.7 98.6,21.9 12.2,84 					"/>
					<polygon class="st26" points="12.2,83.8 98.6,21.6 98.6,21.7 12.2,83.9 					"/>
					<polygon class="st26" points="12.2,83.7 98.6,21.5 98.6,21.6 12.2,83.8 					"/>
					<polygon class="st26" points="12.2,83.6 98.6,21.4 98.6,21.5 12.2,83.7 					"/>
					<polygon class="st26" points="12.2,83.4 98.6,21.3 98.6,21.4 12.2,83.6 					"/>
					<polygon class="st26" points="12.2,83.3 98.6,21.2 98.6,21.3 12.2,83.4 					"/>
					<polygon class="st26" points="12.2,83.2 98.6,21.1 98.6,21.2 12.2,83.3 					"/>
					<polygon class="st26" points="12.2,83.1 98.6,20.9 98.6,21.1 12.2,83.2 					"/>
					<polygon class="st26" points="12.2,83 98.6,20.8 98.6,20.9 12.2,83.1 					"/>
					<polygon class="st26" points="12.2,82.9 98.6,20.7 98.6,20.8 12.2,83 					"/>
					<polygon class="st26" points="12.2,82.8 98.6,20.6 98.6,20.7 12.2,82.9 					"/>
					<polygon class="st26" points="12.2,82.6 98.6,20.5 98.6,20.6 12.2,82.8 					"/>
					<polygon class="st26" points="12.2,82.5 98.6,20.4 98.6,20.5 12.2,82.6 					"/>
					<polygon class="st26" points="12.2,82.4 98.6,20.3 98.6,20.4 12.2,82.5 					"/>
					<polygon class="st26" points="12.2,82.3 98.6,20.2 98.6,20.3 12.2,82.4 					"/>
					<polygon class="st26" points="12.2,82.2 98.6,20 98.6,20.2 12.2,82.3 					"/>
					<polygon class="st26" points="12.2,82.1 98.6,19.9 98.6,20 12.2,82.2 					"/>
					<polygon class="st26" points="12.2,82 98.6,19.8 98.6,19.9 12.2,82.1 					"/>
					<polygon class="st26" points="12.2,81.9 98.6,19.7 98.6,19.8 12.2,82 					"/>
					<polygon class="st26" points="12.2,81.7 98.6,19.6 98.6,19.7 12.2,81.9 					"/>
					<polygon class="st26" points="12.2,81.6 98.6,19.5 98.6,19.6 12.2,81.7 					"/>
					<polygon class="st26" points="12.2,81.5 98.6,19.4 98.6,19.5 12.2,81.6 					"/>
					<polygon class="st26" points="12.2,81.4 98.6,19.2 98.6,19.4 12.2,81.5 					"/>
					<polygon class="st26" points="12.2,81.3 98.6,19.1 98.6,19.2 12.2,81.4 					"/>
					<polygon class="st26" points="12.2,81.2 98.6,19 98.6,19.1 12.2,81.3 					"/>
					<polygon class="st26" points="12.2,81.1 98.6,18.9 98.6,19 12.2,81.2 					"/>
					<polygon class="st26" points="12.2,80.9 98.6,18.8 98.6,18.9 12.2,81.1 					"/>
					<polygon class="st26" points="12.2,80.8 98.6,18.7 98.6,18.8 12.2,80.9 					"/>
					<polygon class="st26" points="12.2,80.7 98.6,18.6 98.6,18.7 12.2,80.8 					"/>
					<polygon class="st26" points="12.2,80.6 98.6,18.5 98.6,18.6 12.2,80.7 					"/>
					<polygon class="st26" points="12.2,80.5 98.6,18.3 98.6,18.5 12.2,80.6 					"/>
					<polygon class="st26" points="12.2,80.4 98.6,18.2 98.6,18.3 12.2,80.5 					"/>
					<polygon class="st26" points="12.2,80.3 98.6,18.1 98.6,18.2 12.2,80.4 					"/>
					<polygon class="st26" points="12.2,80.2 98.6,18 98.6,18.1 12.2,80.3 					"/>
					<polygon class="st26" points="12.2,80 98.6,17.9 98.6,18 12.2,80.2 					"/>
					<polygon class="st26" points="12.2,79.9 98.6,17.8 98.6,17.9 12.2,80 					"/>
					<polygon class="st26" points="12.2,79.8 98.6,17.7 98.6,17.8 12.2,79.9 					"/>
					<polygon class="st26" points="12.2,79.7 98.6,17.6 98.6,17.7 12.2,79.8 					"/>
					<polygon class="st26" points="12.2,79.6 98.6,17.4 98.6,17.6 12.2,79.7 					"/>
					<polygon class="st26" points="12.2,79.5 98.6,17.3 98.6,17.4 12.2,79.6 					"/>
					<polygon class="st26" points="12.2,79.4 98.6,17.2 98.6,17.3 12.2,79.5 					"/>
					<polygon class="st26" points="12.2,79.3 98.6,17.1 98.6,17.2 12.2,79.4 					"/>
					<polygon class="st26" points="12.2,79.1 98.6,17 98.6,17.1 12.2,79.3 					"/>
					<polygon class="st26" points="12.2,79 98.6,16.9 98.6,17 12.2,79.1 					"/>
					<polygon class="st26" points="12.2,78.9 98.6,16.8 98.6,16.9 12.2,79 					"/>
					<polygon class="st26" points="12.2,78.8 98.6,16.6 98.6,16.8 12.2,78.9 					"/>
					<polygon class="st26" points="12.2,78.7 98.6,16.5 98.6,16.6 12.2,78.8 					"/>
					<polygon class="st26" points="12.2,78.6 98.6,16.4 98.6,16.5 12.2,78.7 					"/>
					<polygon class="st26" points="12.2,78.5 98.6,16.3 98.6,16.4 12.2,78.6 					"/>
					<polygon class="st26" points="12.2,78.3 98.6,16.2 98.6,16.3 12.2,78.5 					"/>
					<polygon class="st26" points="12.2,78.2 98.6,16.1 98.6,16.2 12.2,78.3 					"/>
					<polygon class="st26" points="12.2,78.1 98.6,16 98.6,16.1 12.2,78.2 					"/>
					<polygon class="st26" points="12.2,78 98.6,15.9 98.6,16 12.2,78.1 					"/>
					<polygon class="st26" points="12.2,77.9 98.6,15.7 98.6,15.9 12.2,78 					"/>
					<polygon class="st26" points="12.2,77.8 98.6,15.6 98.6,15.7 12.2,77.9 					"/>
					<polygon class="st26" points="12.2,77.7 98.6,15.5 98.6,15.6 12.2,77.8 					"/>
					<polygon class="st26" points="12.2,77.6 98.6,15.4 98.6,15.5 12.2,77.7 					"/>
					<polygon class="st26" points="12.2,77.4 98.6,15.3 98.6,15.4 12.2,77.6 					"/>
					<polygon class="st26" points="12.2,77.3 98.6,15.2 98.6,15.3 12.2,77.4 					"/>
					<polygon class="st26" points="12.2,77.2 98.6,15.1 98.6,15.2 12.2,77.3 					"/>
					<polygon class="st26" points="12.2,77.1 98.6,14.9 98.6,15.1 12.2,77.2 					"/>
					<polygon class="st26" points="12.2,77 98.6,14.8 98.6,14.9 12.2,77.1 					"/>
					<polygon class="st26" points="12.2,76.9 98.6,14.7 98.6,14.8 12.2,77 					"/>
					<polygon class="st26" points="12.2,76.8 98.6,14.6 98.6,14.7 12.2,76.9 					"/>
					<polygon class="st26" points="12.2,76.6 98.6,14.5 98.6,14.6 12.2,76.8 					"/>
					<polygon class="st26" points="12.2,76.5 98.6,14.4 98.6,14.5 12.2,76.6 					"/>
					<polygon class="st26" points="12.2,76.4 98.6,14.3 98.6,14.4 12.2,76.5 					"/>
					<polygon class="st26" points="12.2,76.3 98.6,14.2 98.6,14.3 12.2,76.4 					"/>
					<polygon class="st26" points="98.6,14.2 12.2,76.3 12.2,5.5 98.6,5.5 					"/>
				</g>
			</g>
		</g>
		<g>
			<defs>
				<path id="SVGID_43_" d="M56.4,31.3c0.1,1.1,1.8,3,1.8,3c3.6,4.3,3.4,5.5,3.4,5.5c0.4,2.4-2.9,3.9-2.9,3.9
					c-4.7,3-14.3,3.4-14.3,3.4c-5.5,0.2-9.9-0.3-9.9-0.3c-2.4-0.1-2.8,1.3-2.8,1.3c-0.2,0.7,0.4,1.3,0.4,1.3c1,1.1,3.7,1,3.7,1
					c2.2,0.3,11.7,0.3,11.7,0.3c3.8-0.5,3.1,0.3,3.1,0.3c-1,1.2-3.3,1.4-3.3,1.4c-0.2,0-7.3,1.2-7.3,1.2c-4.9,0.9-5,1.7-5,1.7
					c-1.4,2.2,1.9,2.6,1.9,2.6c0.8,0.1,8-1.4,8-1.4c6.3-1.5,9.5-1.8,9.5-1.8c2-0.1,0.7,0.8,0.7,0.8c-1,0.9-5,2.3-5,2.3
					c-8.4,3.1-9.1,3.9-9.1,3.9c-1.5,1.1,0,2,0,2c1.1,0.9,3,0,3,0c1.5-0.6,8.9-3.2,8.9-3.2c4.4-1.5,6-1.4,6-1.4
					c2.3-0.1,1.6,0.8,1.6,0.8c-0.2,0.3-1.6,1-1.6,1l-6.6,3.3c-3.7,1.6-3.6,2.4-3.6,2.4c0.2,2.2,2.5,1.7,2.5,1.7
					c0.9-0.3,10.2-4.1,10.2-4.1c4.5-1.6,11-5.6,11-5.6c3.8-2.4,5.5-5.2,5.5-5.2C80,50,78,46.5,78,46.5c-0.8-1.9-4-4.8-4-4.8
					c-0.4-0.4-5.3-4.6-5.3-4.6c-2.1-1.7-4.6-4.3-4.6-4.3c-2.2-2.6-3.3-2.9-3.3-2.9c-0.8-0.2-1.5-0.3-2.1-0.3
					C56.3,29.5,56.4,31.3,56.4,31.3"/>
			</defs>
			<use xlink:href="#SVGID_43_"  style="overflow:visible;fill:#FFFFFF;"/>
			<clipPath id="SVGID_44_">
				<use xlink:href="#SVGID_43_"  style="overflow:visible;"/>
			</clipPath>
			<g class="st27">
				<g>
					<defs>
						
							<rect id="SVGID_45_" x="25.8" y="15.5" transform="matrix(0.8574 -0.5147 0.5147 0.8574 -15.483 35.8727)" width="62.4" height="60.7"/>
					</defs>
					<use xlink:href="#SVGID_45_"  style="overflow:visible;fill:#FFFFFF;"/>
					<clipPath id="SVGID_46_">
						<use xlink:href="#SVGID_45_"  style="overflow:visible;"/>
					</clipPath>
					<polygon class="st28" points="16.2,88 99.4,38 99.4,88 					"/>
					<polygon class="st28" points="16,88 99.4,37.9 99.4,38 16.2,88 					"/>
					<polygon class="st28" points="15.7,88 99.4,37.8 99.4,37.9 16,88 					"/>
					<polygon class="st28" points="15.5,88 99.4,37.6 99.4,37.8 15.7,88 					"/>
					<polygon class="st28" points="15.3,88 99.4,37.5 99.4,37.6 15.5,88 					"/>
					<polygon class="st28" points="15,88 99.4,37.3 99.4,37.5 15.3,88 					"/>
					<polygon class="st28" points="14.8,88 99.4,37.2 99.4,37.3 15,88 					"/>
					<polygon class="st28" points="14.6,87.9 99.4,37 99.4,37.2 14.8,88 14.6,88 					"/>
					<polygon class="st28" points="14.6,87.8 99.4,36.9 99.4,37 14.6,87.9 					"/>
					<polygon class="st28" points="14.6,87.7 99.4,36.8 99.4,36.9 14.6,87.8 					"/>
					<polygon class="st28" points="14.6,87.5 99.4,36.6 99.4,36.8 14.6,87.7 					"/>
					<polygon class="st28" points="14.6,87.4 99.4,36.5 99.4,36.6 14.6,87.5 					"/>
					<polygon class="st28" points="14.6,87.2 99.4,36.3 99.4,36.5 14.6,87.4 					"/>
					<polygon class="st28" points="14.6,87.1 99.4,36.2 99.4,36.3 14.6,87.2 					"/>
					<polygon class="st28" points="14.6,86.9 99.4,36.1 99.4,36.2 14.6,87.1 					"/>
					<polygon class="st28" points="14.6,86.8 99.4,35.9 99.4,36.1 14.6,86.9 					"/>
					<polygon class="st28" points="14.6,86.7 99.4,35.8 99.4,35.9 14.6,86.8 					"/>
					<polygon class="st28" points="14.6,86.5 99.4,35.6 99.4,35.8 14.6,86.7 					"/>
					<polygon class="st28" points="14.6,86.4 99.4,35.5 99.4,35.6 14.6,86.5 					"/>
					<polygon class="st28" points="14.6,86.2 99.4,35.3 99.4,35.5 14.6,86.4 					"/>
					<polygon class="st28" points="14.6,86.1 99.4,35.2 99.4,35.3 14.6,86.2 					"/>
					<polygon class="st28" points="14.6,86 99.4,35.1 99.4,35.2 14.6,86.1 					"/>
					<polygon class="st28" points="14.6,85.8 99.4,34.9 99.4,35.1 14.6,86 					"/>
					<polygon class="st28" points="14.6,85.7 99.4,34.8 99.4,34.9 14.6,85.8 					"/>
					<polygon class="st28" points="14.6,85.5 99.4,34.6 99.4,34.8 14.6,85.7 					"/>
					<polygon class="st28" points="14.6,85.4 99.4,34.5 99.4,34.6 14.6,85.5 					"/>
					<polygon class="st28" points="14.6,85.2 99.4,34.4 99.4,34.5 14.6,85.4 					"/>
					<polygon class="st28" points="14.6,85.1 99.4,34.2 99.4,34.4 14.6,85.2 					"/>
					<polygon class="st28" points="14.6,85 99.4,34.1 99.4,34.2 14.6,85.1 					"/>
					<polygon class="st28" points="14.6,84.8 99.4,33.9 99.4,34.1 14.6,85 					"/>
					<polygon class="st28" points="14.6,84.7 99.4,33.8 99.4,33.9 14.6,84.8 					"/>
					<polygon class="st28" points="14.6,84.5 99.4,33.6 99.4,33.8 14.6,84.7 					"/>
					<polygon class="st28" points="14.6,84.4 99.4,33.5 99.4,33.6 14.6,84.5 					"/>
					<polygon class="st28" points="14.6,84.3 99.4,33.4 99.4,33.5 14.6,84.4 					"/>
					<polygon class="st28" points="14.6,84.1 99.4,33.2 99.4,33.4 14.6,84.3 					"/>
					<polygon class="st28" points="14.6,84 99.4,33.1 99.4,33.2 14.6,84.1 					"/>
					<polygon class="st28" points="14.6,83.8 99.4,32.9 99.4,33.1 14.6,84 					"/>
					<polygon class="st28" points="14.6,83.7 99.4,32.8 99.4,32.9 14.6,83.8 					"/>
					<polygon class="st28" points="14.6,83.5 99.4,32.7 99.4,32.8 14.6,83.7 					"/>
					<polygon class="st28" points="14.6,83.4 99.4,32.5 99.4,32.7 14.6,83.5 					"/>
					<polygon class="st28" points="14.6,83.3 99.4,32.4 99.4,32.5 14.6,83.4 					"/>
					<polygon class="st28" points="14.6,83.1 99.4,32.2 99.4,32.4 14.6,83.3 					"/>
					<polygon class="st28" points="14.6,83 99.4,32.1 99.4,32.2 14.6,83.1 					"/>
					<polygon class="st28" points="14.6,82.8 99.4,31.9 99.4,32.1 14.6,83 					"/>
					<polygon class="st28" points="14.6,82.7 99.4,31.8 99.4,31.9 14.6,82.8 					"/>
					<polygon class="st28" points="14.6,82.6 99.4,31.7 99.4,31.8 14.6,82.7 					"/>
					<polygon class="st28" points="14.6,82.4 99.4,31.5 99.4,31.7 14.6,82.6 					"/>
					<polygon class="st28" points="14.6,82.3 99.4,31.4 99.4,31.5 14.6,82.4 					"/>
					<polygon class="st28" points="14.6,82.1 99.4,31.2 99.4,31.4 14.6,82.3 					"/>
					<polygon class="st28" points="14.6,82 99.4,31.1 99.4,31.2 14.6,82.1 					"/>
					<polygon class="st28" points="14.6,81.8 99.4,31 99.4,31.1 14.6,82 					"/>
					<polygon class="st28" points="14.6,81.7 99.4,30.8 99.4,31 14.6,81.8 					"/>
					<polygon class="st28" points="14.6,81.6 99.4,30.7 99.4,30.8 14.6,81.7 					"/>
					<polygon class="st28" points="14.6,81.4 99.4,30.5 99.4,30.7 14.6,81.6 					"/>
					<polygon class="st28" points="14.6,81.3 99.4,30.4 99.4,30.5 14.6,81.4 					"/>
					<polygon class="st28" points="14.6,81.1 99.4,30.2 99.4,30.4 14.6,81.3 					"/>
					<polygon class="st28" points="14.6,81 99.4,30.1 99.4,30.2 14.6,81.1 					"/>
					<polygon class="st28" points="14.6,80.9 99.4,30 99.4,30.1 14.6,81 					"/>
					<polygon class="st28" points="14.6,80.7 99.4,29.8 99.4,30 14.6,80.9 					"/>
					<polygon class="st28" points="14.6,80.6 99.4,29.7 99.4,29.8 14.6,80.7 					"/>
					<polygon class="st28" points="14.6,80.4 99.4,29.5 99.4,29.7 14.6,80.6 					"/>
					<polygon class="st28" points="14.6,80.3 99.4,29.4 99.4,29.5 14.6,80.4 					"/>
					<polygon class="st28" points="14.6,80.1 99.4,29.3 99.4,29.4 14.6,80.3 					"/>
					<polygon class="st28" points="14.6,80 99.4,29.1 99.4,29.3 14.6,80.1 					"/>
					<polygon class="st28" points="14.6,79.9 99.4,29 99.4,29.1 14.6,80 					"/>
					<polygon class="st28" points="14.6,79.7 99.4,28.8 99.4,29 14.6,79.9 					"/>
					<polygon class="st28" points="14.6,79.6 99.4,28.7 99.4,28.8 14.6,79.7 					"/>
					<polygon class="st28" points="14.6,79.4 99.4,28.5 99.4,28.7 14.6,79.6 					"/>
					<polygon class="st28" points="14.6,79.3 99.4,28.4 99.4,28.5 14.6,79.4 					"/>
					<polygon class="st28" points="14.6,79.2 99.4,28.3 99.4,28.4 14.6,79.3 					"/>
					<polygon class="st28" points="14.6,79 99.4,28.1 99.4,28.3 14.6,79.2 					"/>
					<polygon class="st28" points="14.6,78.9 99.4,28 99.4,28.1 14.6,79 					"/>
					<polygon class="st28" points="14.6,78.7 99.4,27.8 99.4,28 14.6,78.9 					"/>
					<polygon class="st28" points="14.6,78.6 99.4,27.7 99.4,27.8 14.6,78.7 					"/>
					<polygon class="st28" points="14.6,78.4 99.4,27.6 99.4,27.7 14.6,78.6 					"/>
					<polygon class="st28" points="14.6,78.3 99.4,27.4 99.4,27.6 14.6,78.4 					"/>
					<polygon class="st28" points="14.6,78.2 99.4,27.3 99.4,27.4 14.6,78.3 					"/>
					<polygon class="st28" points="14.6,78 99.4,27.1 99.4,27.3 14.6,78.2 					"/>
					<polygon class="st28" points="14.6,77.9 99.4,27 99.4,27.1 14.6,78 					"/>
					<polygon class="st28" points="14.6,77.7 99.4,26.8 99.4,27 14.6,77.9 					"/>
					<polygon class="st28" points="14.6,77.6 99.4,26.7 99.4,26.8 14.6,77.7 					"/>
					<polygon class="st28" points="14.6,77.5 99.4,26.6 99.4,26.7 14.6,77.6 					"/>
					<polygon class="st28" points="14.6,77.3 99.4,26.4 99.4,26.6 14.6,77.5 					"/>
					<polygon class="st28" points="14.6,77.2 99.4,26.3 99.4,26.4 14.6,77.3 					"/>
					<polygon class="st28" points="14.6,77 99.4,26.1 99.4,26.3 14.6,77.2 					"/>
					<polygon class="st28" points="14.6,76.9 99.4,26 99.4,26.1 14.6,77 					"/>
					<polygon class="st28" points="14.6,76.7 99.4,25.9 99.4,26 14.6,76.9 					"/>
					<polygon class="st28" points="14.6,76.6 99.4,25.7 99.4,25.9 14.6,76.7 					"/>
					<polygon class="st28" points="14.6,76.5 99.4,25.6 99.4,25.7 14.6,76.6 					"/>
					<polygon class="st28" points="14.6,76.3 99.4,25.4 99.4,25.6 14.6,76.5 					"/>
					<polygon class="st28" points="14.6,76.2 99.4,25.3 99.4,25.4 14.6,76.3 					"/>
					<polygon class="st28" points="14.6,76 99.4,25.1 99.4,25.3 14.6,76.2 					"/>
					<polygon class="st28" points="14.6,75.9 99.4,25 99.4,25.1 14.6,76 					"/>
					<polygon class="st28" points="14.6,75.8 99.4,24.9 99.4,25 14.6,75.9 					"/>
					<polygon class="st28" points="14.6,75.6 99.4,24.7 99.4,24.9 14.6,75.8 					"/>
					<polygon class="st28" points="14.6,75.5 99.4,24.6 99.4,24.7 14.6,75.6 					"/>
					<polygon class="st28" points="14.6,75.3 99.4,24.4 99.4,24.6 14.6,75.5 					"/>
					<polygon class="st28" points="14.6,75.2 99.4,24.3 99.4,24.4 14.6,75.3 					"/>
					<polygon class="st28" points="14.6,75 99.4,24.2 99.4,24.3 14.6,75.2 					"/>
					<polygon class="st28" points="14.6,74.9 99.4,24 99.4,24.2 14.6,75 					"/>
					<polygon class="st28" points="14.6,74.8 99.4,23.9 99.4,24 14.6,74.9 					"/>
					<polygon class="st28" points="14.6,74.6 99.4,23.7 99.4,23.9 14.6,74.8 					"/>
					<polygon class="st28" points="14.6,74.5 99.4,23.6 99.4,23.7 14.6,74.6 					"/>
					<polygon class="st28" points="14.6,74.3 99.4,23.4 99.4,23.6 14.6,74.5 					"/>
					<polygon class="st28" points="14.6,74.2 99.4,23.3 99.4,23.4 14.6,74.3 					"/>
					<polygon class="st28" points="14.6,74.1 99.4,23.2 99.4,23.3 14.6,74.2 					"/>
					<polygon class="st28" points="14.6,73.9 99.4,23 99.4,23.2 14.6,74.1 					"/>
					<polygon class="st28" points="14.6,73.8 99.4,22.9 99.4,23 14.6,73.9 					"/>
					<polygon class="st28" points="14.6,73.6 99.4,22.7 99.4,22.9 14.6,73.8 					"/>
					<polygon class="st28" points="14.6,73.5 99.4,22.6 99.4,22.7 14.6,73.6 					"/>
					<polygon class="st28" points="14.6,73.3 99.4,22.5 99.4,22.6 14.6,73.5 					"/>
					<polygon class="st28" points="14.6,73.2 99.4,22.3 99.4,22.5 14.6,73.3 					"/>
					<polygon class="st28" points="14.6,73.1 99.4,22.2 99.4,22.3 14.6,73.2 					"/>
					<polygon class="st28" points="14.6,72.9 99.4,22 99.4,22.2 14.6,73.1 					"/>
					<polygon class="st28" points="14.6,72.8 99.4,21.9 99.4,22 14.6,72.9 					"/>
					<polygon class="st28" points="14.6,72.6 99.4,21.7 99.4,21.9 14.6,72.8 					"/>
					<polygon class="st28" points="14.6,72.5 99.4,21.6 99.4,21.7 14.6,72.6 					"/>
					<polygon class="st28" points="14.6,72.4 99.4,21.5 99.4,21.6 14.6,72.5 					"/>
					<polygon class="st28" points="14.6,72.2 99.4,21.3 99.4,21.5 14.6,72.4 					"/>
					<polygon class="st28" points="14.6,72.1 99.4,21.2 99.4,21.3 14.6,72.2 					"/>
					<polygon class="st28" points="14.6,71.9 99.4,21 99.4,21.2 14.6,72.1 					"/>
					<polygon class="st28" points="14.6,71.8 99.4,20.9 99.4,21 14.6,71.9 					"/>
					<polygon class="st28" points="14.6,71.6 99.4,20.8 99.4,20.9 14.6,71.8 					"/>
					<polygon class="st28" points="14.6,71.5 99.4,20.6 99.4,20.8 14.6,71.6 					"/>
					<polygon class="st28" points="14.6,71.4 99.4,20.5 99.4,20.6 14.6,71.5 					"/>
					<polygon class="st28" points="14.6,71.2 99.4,20.3 99.4,20.5 14.6,71.4 					"/>
					<polygon class="st28" points="14.6,71.1 99.4,20.2 99.4,20.3 14.6,71.2 					"/>
					<polygon class="st28" points="14.6,70.9 99.4,20 99.4,20.2 14.6,71.1 					"/>
					<polygon class="st28" points="14.6,70.8 99.4,19.9 99.4,20 14.6,70.9 					"/>
					<polygon class="st28" points="14.6,70.7 99.4,19.8 99.4,19.9 14.6,70.8 					"/>
					<polygon class="st28" points="14.6,70.5 99.4,19.6 99.4,19.8 14.6,70.7 					"/>
					<polygon class="st28" points="14.6,70.4 99.4,19.5 99.4,19.6 14.6,70.5 					"/>
					<polygon class="st28" points="14.6,70.2 99.4,19.3 99.4,19.5 14.6,70.4 					"/>
					<polygon class="st28" points="14.6,70.1 99.4,19.2 99.4,19.3 14.6,70.2 					"/>
					<polygon class="st28" points="14.6,69.9 99.4,19.1 99.4,19.2 14.6,70.1 					"/>
					<polygon class="st28" points="14.6,69.8 99.4,18.9 99.4,19.1 14.6,69.9 					"/>
					<polygon class="st28" points="14.6,69.7 99.4,18.8 99.4,18.9 14.6,69.8 					"/>
					<polygon class="st28" points="14.6,69.5 99.4,18.6 99.4,18.8 14.6,69.7 					"/>
					<polygon class="st28" points="14.6,69.4 99.4,18.5 99.4,18.6 14.6,69.5 					"/>
					<polygon class="st28" points="14.6,69.2 99.4,18.3 99.4,18.5 14.6,69.4 					"/>
					<polygon class="st28" points="14.6,69.1 99.4,18.2 99.4,18.3 14.6,69.2 					"/>
					<polygon class="st28" points="14.6,68.9 99.4,18.1 99.4,18.2 14.6,69.1 					"/>
					<polygon class="st28" points="14.6,68.8 99.4,17.9 99.4,18.1 14.6,68.9 					"/>
					<polygon class="st28" points="14.6,68.7 99.4,17.8 99.4,17.9 14.6,68.8 					"/>
					<polygon class="st28" points="14.6,68.5 99.4,17.6 99.4,17.8 14.6,68.7 					"/>
					<polygon class="st28" points="14.6,68.4 99.4,17.5 99.4,17.6 14.6,68.5 					"/>
					<polygon class="st28" points="14.6,68.2 99.4,17.4 99.4,17.5 14.6,68.4 					"/>
					<polygon class="st28" points="99.4,17.4 14.6,68.2 14.6,3.8 99.4,3.8 					"/>
				</g>
			</g>
		</g>
		<g>
			<defs>
				<path id="SVGID_47_" d="M78,46.5C78,46.5,78,46.5,78,46.5L78,46.5 M78,46.5C78,46.5,78,46.5,78,46.5C78,46.5,78,46.5,78,46.5
					 M78,46.5c0-0.1-0.1-0.3-0.2-0.4C78,46.3,78,46.5,78,46.5 M56.4,30.8c0.7-1.3,3.5-1.6,5.5,0c2,1.6,4.1,4.5,7.5,7.1
					c2.6,2,7.3,6.1,8.4,8.2c-0.5-1-2.3-3.7-7.5-7.9c-4.9-3.9-6.3-6.5-8.3-7.9c-1-0.7-2.1-1-3-1C57.8,29.3,56.8,29.8,56.4,30.8"/>
			</defs>
			<use xlink:href="#SVGID_47_"  style="overflow:visible;fill:#FFFFFF;"/>
			<clipPath id="SVGID_48_">
				<use xlink:href="#SVGID_47_"  style="overflow:visible;"/>
			</clipPath>
			<defs>
				<filter id="Adobe_OpacityMaskFilter_5_" filterUnits="userSpaceOnUse" x="48" y="18.7" width="38.4" height="38.3">
					<feColorMatrix  type="matrix" values="1 0 0 0 0  0 1 0 0 0  0 0 1 0 0  0 0 0 1 0"/>
				</filter>
			</defs>
			<mask maskUnits="userSpaceOnUse" x="48" y="18.7" width="38.4" height="38.3" id="SVGID_49_">
				<g class="st29">
					
						<linearGradient id="SVGID_50_" gradientUnits="userSpaceOnUse" x1="-322.6702" y1="285.9196" x2="-321.6688" y2="285.9196" gradientTransform="matrix(-16.8522 -13.3093 -13.3093 16.8522 -1559.6663 -9070.7656)">
						<stop  offset="0" style="stop-color:#000000"/>
						<stop  offset="0.5" style="stop-color:#FFFFFF"/>
						<stop  offset="1" style="stop-color:#000000"/>
					</linearGradient>
					<polygon class="st30" points="69.7,57 48,39.9 64.7,18.7 86.4,35.8 					"/>
				</g>
			</mask>
			<g class="st31">
				<g>
					<defs>
						
							<rect id="SVGID_51_" x="53.8" y="24" transform="matrix(0.6198 -0.7848 0.7848 0.6198 -4.1386 67.1575)" width="26.9" height="27.6"/>
					</defs>
					<use xlink:href="#SVGID_51_"  style="overflow:visible;fill:#FFFFFF;"/>
					<clipPath id="SVGID_52_">
						<use xlink:href="#SVGID_51_"  style="overflow:visible;"/>
					</clipPath>
					<polygon class="st32" points="60.9,57 86.4,24.7 86.4,57 					"/>
					<polygon class="st32" points="48,55.9 77.4,18.7 86.4,18.7 86.4,24.7 60.9,57 48,57 					"/>
					<polygon class="st32" points="48,38.6 63.7,18.7 77.4,18.7 48,55.9 					"/>
					<polygon class="st32" points="63.7,18.7 48,38.6 48,18.7 					"/>
				</g>
			</g>
		</g>
		<g>
			<defs>
				<path id="SVGID_53_" d="M40.4,47c-1.5,0-2.7-0.1-3.7-0.2c-1.3-0.1-2.3-0.3-3.1-0.1c-1.4,0.3-1.6,1-1.6,1c1.6-1,2.4-0.7,4.7-0.5
					c1.7,0.2,4.3,0.3,8.7,0c10.6-0.7,14.2-4.1,14.2-4.1C53,47.2,43.9,47,40.4,47"/>
			</defs>
			<use xlink:href="#SVGID_53_"  style="overflow:visible;fill:#FFFFFF;"/>
			<clipPath id="SVGID_54_">
				<use xlink:href="#SVGID_53_"  style="overflow:visible;"/>
			</clipPath>
			<defs>
				<filter id="Adobe_OpacityMaskFilter_6_" filterUnits="userSpaceOnUse" x="31.2" y="38.8" width="29.1" height="13.2">
					<feColorMatrix  type="matrix" values="1 0 0 0 0  0 1 0 0 0  0 0 1 0 0  0 0 0 1 0"/>
				</filter>
			</defs>
			<mask maskUnits="userSpaceOnUse" x="31.2" y="38.8" width="29.1" height="13.2" id="SVGID_55_">
				<g class="st33">
					
						<linearGradient id="SVGID_56_" gradientUnits="userSpaceOnUse" x1="-327.2452" y1="287.4946" x2="-326.2437" y2="287.4946" gradientTransform="matrix(-27.6065 4.417 4.417 27.6065 -10244.3213 -6448.0576)">
						<stop  offset="0" style="stop-color:#000000"/>
						<stop  offset="0.5" style="stop-color:#FFFFFF"/>
						<stop  offset="1" style="stop-color:#000000"/>
					</linearGradient>
					<polygon class="st34" points="60.3,47.6 32.6,52 31.2,43.3 58.9,38.8 					"/>
				</g>
			</mask>
			<g class="st35">
				<g>
					<defs>
						
							<rect id="SVGID_57_" x="31.7" y="41" transform="matrix(0.9874 -0.158 0.158 0.9874 -6.6029 7.8021)" width="28.1" height="8.9"/>
					</defs>
					<use xlink:href="#SVGID_57_"  style="overflow:visible;fill:#FFFFFF;"/>
					<clipPath id="SVGID_58_">
						<use xlink:href="#SVGID_57_"  style="overflow:visible;"/>
					</clipPath>
					<polygon class="st36" points="60.3,47.6 58.9,38.8 60.3,38.8 					"/>
					<polygon class="st36" points="46.9,52 44.8,38.8 58.9,38.8 60.3,47.6 60.3,52 					"/>
					<polygon class="st36" points="32.7,52 31.2,42.9 31.2,38.8 44.8,38.8 46.9,52 					"/>
					<polygon class="st36" points="31.2,42.9 32.7,52 31.2,52 					"/>
				</g>
			</g>
		</g>
		<g>
			<defs>
				<path id="SVGID_59_" d="M36.8,54.3c-2.2,0.6-2.1,1.9-2.1,1.9c0.4-1.3,2.6-1.6,5.4-2.3c2.9-0.7,7.7-1.4,7.7-1.4
					C44.2,52.6,38.7,53.8,36.8,54.3"/>
			</defs>
			<use xlink:href="#SVGID_59_"  style="overflow:visible;fill:#FFFFFF;"/>
			<clipPath id="SVGID_60_">
				<use xlink:href="#SVGID_59_"  style="overflow:visible;"/>
			</clipPath>
			<defs>
				<filter id="Adobe_OpacityMaskFilter_7_" filterUnits="userSpaceOnUse" x="34" y="50.3" width="14.4" height="7.8">
					<feColorMatrix  type="matrix" values="1 0 0 0 0  0 1 0 0 0  0 0 1 0 0  0 0 0 1 0"/>
				</filter>
			</defs>
			<mask maskUnits="userSpaceOnUse" x="34" y="50.3" width="14.4" height="7.8" id="SVGID_61_">
				<g class="st37">
					
						<linearGradient id="SVGID_62_" gradientUnits="userSpaceOnUse" x1="-329.6637" y1="282.6179" x2="-328.6626" y2="282.6179" gradientTransform="matrix(-13.2955 2.1273 2.1273 13.2955 -4936.3584 -3003.0723)">
						<stop  offset="0" style="stop-color:#000000"/>
						<stop  offset="0.5" style="stop-color:#FFFFFF"/>
						<stop  offset="1" style="stop-color:#000000"/>
					</linearGradient>
					<polygon class="st38" points="48.4,56 34.9,58.2 34,52.5 47.4,50.3 					"/>
				</g>
			</mask>
			<g class="st39">
				<g>
					<defs>
						
							<rect id="SVGID_63_" x="34.3" y="51.4" transform="matrix(0.9874 -0.158 0.158 0.9874 -8.0539 7.1838)" width="13.6" height="5.7"/>
					</defs>
					<use xlink:href="#SVGID_63_"  style="overflow:visible;fill:#FFFFFF;"/>
					<clipPath id="SVGID_64_">
						<use xlink:href="#SVGID_63_"  style="overflow:visible;"/>
					</clipPath>
					<polygon class="st40" points="48.4,56 47.4,50.3 48.4,50.3 					"/>
					<polygon class="st40" points="41.9,58.2 40.6,50.3 47.4,50.3 48.4,56 48.4,58.2 					"/>
					<polygon class="st40" points="35,58.2 34,51.5 34,50.3 40.6,50.3 41.9,58.2 					"/>
					<polygon class="st40" points="34,51.5 35,58.2 34,58.2 					"/>
				</g>
			</g>
		</g>
		<g>
			<defs>
				<path id="SVGID_65_" d="M42.6,60.8c-2.1,0.8-2.3,1.8-2.3,1.8c0.9-1.3,3.9-2.2,5-2.7c1.1-0.5,6.5-2.7,6.5-2.7
					C50.5,57.5,44.5,60,42.6,60.8"/>
			</defs>
			<use xlink:href="#SVGID_65_"  style="overflow:visible;fill:#FFFFFF;"/>
			<clipPath id="SVGID_66_">
				<use xlink:href="#SVGID_65_"  style="overflow:visible;"/>
			</clipPath>
			<defs>
				<filter id="Adobe_OpacityMaskFilter_8_" filterUnits="userSpaceOnUse" x="38.3" y="53.1" width="15.4" height="13.9">
					<feColorMatrix  type="matrix" values="1 0 0 0 0  0 1 0 0 0  0 0 1 0 0  0 0 0 1 0"/>
				</filter>
			</defs>
			<mask maskUnits="userSpaceOnUse" x="38.3" y="53.1" width="15.4" height="13.9" id="SVGID_67_">
				<g class="st41">
					
						<linearGradient id="SVGID_68_" gradientUnits="userSpaceOnUse" x1="-334.0165" y1="281.786" x2="-333.0151" y2="281.786" gradientTransform="matrix(-9.4068 4.2105 4.2105 9.4068 -4277.9443 -1186.3396)">
						<stop  offset="0" style="stop-color:#000000"/>
						<stop  offset="0.5" style="stop-color:#FFFFFF"/>
						<stop  offset="1" style="stop-color:#000000"/>
					</linearGradient>
					<polygon class="st42" points="53.8,61.8 42.2,66.9 38.3,58.2 49.9,53.1 					"/>
				</g>
			</mask>
			<g class="st43">
				<g>
					<defs>
						
							<rect id="SVGID_69_" x="39.7" y="55.2" transform="matrix(0.9127 -0.4086 0.4086 0.9127 -20.4935 24.0608)" width="12.7" height="9.5"/>
					</defs>
					<use xlink:href="#SVGID_69_"  style="overflow:visible;fill:#FFFFFF;"/>
					<clipPath id="SVGID_70_">
						<use xlink:href="#SVGID_69_"  style="overflow:visible;"/>
					</clipPath>
					<polygon class="st44" points="53.8,65.2 48.3,53.1 53.8,53.1 					"/>
					<polygon class="st44" points="48.9,66.9 42.7,53.1 48.3,53.1 53.8,65.2 53.8,66.9 					"/>
					<polygon class="st44" points="43.2,66.9 38.3,56 38.3,53.1 42.7,53.1 48.9,66.9 					"/>
					<polygon class="st44" points="38.3,56 43.2,66.9 38.3,66.9 					"/>
				</g>
			</g>
		</g>
		<g>
			<defs>
				<path id="SVGID_71_" d="M49.9,65.4c-1.3,0.8-1.2,1.4-1.2,1.4c0.6-0.7,1.2-1,2.1-1.6c0.8-0.5,7.2-3.7,7.2-3.7
					C56.8,61.9,51.2,64.6,49.9,65.4"/>
			</defs>
			<use xlink:href="#SVGID_71_"  style="overflow:visible;fill:#FFFFFF;"/>
			<clipPath id="SVGID_72_">
				<use xlink:href="#SVGID_71_"  style="overflow:visible;"/>
			</clipPath>
			<defs>
				<filter id="Adobe_OpacityMaskFilter_9_" filterUnits="userSpaceOnUse" x="46.3" y="57.5" width="13.9" height="13.3">
					<feColorMatrix  type="matrix" values="1 0 0 0 0  0 1 0 0 0  0 0 1 0 0  0 0 0 1 0"/>
				</filter>
			</defs>
			<mask maskUnits="userSpaceOnUse" x="46.3" y="57.5" width="13.9" height="13.3" id="SVGID_73_">
				<g class="st45">
					
						<linearGradient id="SVGID_74_" gradientUnits="userSpaceOnUse" x1="-337.1973" y1="280.9428" x2="-336.1957" y2="280.9428" gradientTransform="matrix(-7.3529 4.2926 4.2926 7.3529 -3628.863 -556.0429)">
						<stop  offset="0" style="stop-color:#000000"/>
						<stop  offset="0.5" style="stop-color:#FFFFFF"/>
						<stop  offset="1" style="stop-color:#000000"/>
					</linearGradient>
					<polygon class="st46" points="60.2,65.4 51,70.8 46.3,62.9 55.5,57.5 					"/>
				</g>
			</mask>
			<g class="st47">
				<g>
					<defs>
						
							<rect id="SVGID_75_" x="47.9" y="59.5" transform="matrix(0.8636 -0.5041 0.5041 0.8636 -25.0755 35.5867)" width="10.7" height="9.2"/>
					</defs>
					<use xlink:href="#SVGID_75_"  style="overflow:visible;fill:#FFFFFF;"/>
					<clipPath id="SVGID_76_">
						<use xlink:href="#SVGID_75_"  style="overflow:visible;"/>
					</clipPath>
					<polygon class="st48" points="60.2,68.6 53.7,57.5 60.2,57.5 					"/>
					<polygon class="st48" points="56.6,70.8 48.8,57.5 53.7,57.5 60.2,68.6 60.2,70.8 					"/>
					<polygon class="st48" points="51.6,70.8 46.3,61.7 46.3,57.5 48.8,57.5 56.6,70.8 					"/>
					<polygon class="st48" points="46.3,61.7 51.6,70.8 46.3,70.8 					"/>
				</g>
			</g>
		</g>
	</g>
</g>
</svg>
