<?xml version="1.0" encoding="utf-8"?>
<!-- Generator: Adobe Illustrator 21.1.0, SVG Export Plug-In . SVG Version: 6.00 Build 0)  -->
<svg version="1.1" id="图层_1" xmlns="http://www.w3.org/2000/svg" xmlns:xlink="http://www.w3.org/1999/xlink" x="0px" y="0px"
	 viewBox="0 0 200 200" style="enable-background:new 0 0 200 200;" xml:space="preserve">
<style type="text/css">
	.st0{fill:#FFFFFF;}
</style>
<path class="st0" d="M183.1,170.4c-1.7-7.9-8.3-13.2-16.5-13.3c-2.2,0-4.5,0-6.7,0c9.2-3.9,15.2-13,15.2-23
	c0-13.8-11.1-25-24.9-25.1c-13.7,0-24.9,11.2-25,25c0,10.1,6,19.1,15.2,23.1c-2.4,0-4.8,0-7.2,0.1c-7.8,0.2-14.2,5.3-15.8,12.9
	c-0.5,2.4-0.4,4.6-0.5,7c-0.1,1.5,0,4.3,0,4.3h-1.4c0-3.5,0-5,0-7.6c-0.1-9.8-7.3-16.9-17.1-16.9c-2.1,0-4.2,0-6.2,0
	c9.1-4,14.9-13,14.9-22.9c0-13.8-11.2-25-24.9-25.1c-13.7,0-24.9,11.2-24.9,25c0,10,5.9,19.1,15.1,23c-2.1,0-4.3,0-6.4,0
	c-2,0-4,0.4-5.9,1c-6.8,2.3-11.1,8.5-11.2,15.9c0,2.7,0,5.4,0,8l0.2,2.4c-19.9-3-35.3-20.2-35.3-41v-6.9c0-22.7,18.2-41.1,40.7-41.5
	c44.3,0,82.6,0,127.3,0h1.5c0,0,0-0.5,0-0.7c0-8.1,0-16.1,0-24.2c0-1.1-0.1-2.3-0.4-3.4c-1.7-7.9-8.3-13.2-16.5-13.3
	c-2.2,0-4.5,0-6.7,0c9.2-3.9,15.2-13,15.2-23c0-13.8-11.1-25-24.9-25.1c-13.7,0-24.9,11.2-25,25c0,10.1,6,19.1,15.2,23.1
	c-2.4,0-4.8,0-7.2,0.1c-7.8,0.2-14.2,5.3-15.8,12.9c-0.5,2.4-0.4,4.6-0.5,7c-0.1,1.5,0,4.3,0,4.3h-1.4c0-3.5,0-5,0-7.6
	c-0.1-9.8-7.3-16.9-17.1-16.9c-2.1,0-4.2,0-6.2,0c9.1-4,14.9-13,14.9-22.9c0-13.8-11.2-25-24.9-25.1c-13.7,0-24.9,11.2-24.9,25
	c0,10,5.9,19.1,15.1,23c-2.1,0-4.3,0-6.4,0c-2,0-4,0.4-5.9,1c-6.8,2.3-11.1,8.5-11.2,15.9c0,2.7,0,5.4,0,8l0.2,3.3
	C21.6,84.5,0,108,0,136.5v6.9c0,28.2,21.2,51.5,48.4,54.9l0,0.5v0c48.4,0,87.3,0,133.5,0h1.5c0,0,0-0.5,0-0.7c0-8.1,0-16.1,0-24.2
	C183.4,172.7,183.3,171.5,183.1,170.4L183.1,170.4z"/>
</svg>
