<?xml version="1.0" standalone="no"?><!DOCTYPE svg PUBLIC "-//W3C//DTD SVG 1.1//EN" "http://www.w3.org/Graphics/SVG/1.1/DTD/svg11.dtd"><svg class="icon" width="200px" height="200.00px" viewBox="0 0 1000 1000" version="1.1" xmlns="http://www.w3.org/2000/svg"><path fill="#ffffff" d="M799.2639 380.6349c-0.5956 8.0366-1.4681 16.3299-2.7383 25.101-21.1925 144.7319-137.5934 249.8166-276.7347 249.8166h-45.322129803315285l-8.2947 8.5332c31.2331 57.1862 89.3351 94.5099 154.6585 94.5099h45.04430677658332l89.1362 91.7718c5.7743 5.912 13.5724 9.0679 21.5493 9.0679 3.7296 0 7.5012-0.6945 11.1119-2.1236 11.3108-4.446 18.6921-15.2597 18.6921-27.2645v-75.0041471882064c82.9851-16.9845 144.42-93.8344 144.42-186.6784C950.7873 473.419 884.9283 394.7434 799.2639 380.6349zM754.0617 399.684c2.0627-14.2274 3.0561-27.0057 3.0561-39.1295 0-139.2946-106.4592-252.6347-237.3268-252.6347H314.74950456559174C183.8829 107.9198 77.4037 221.26 77.4037 360.5545c0 125.0672 83.8186 228.2293 196.1511 248.8653V715.9146098944915c0 13.9885 8.6315 26.57 21.7881 31.7874 4.2263 1.6469 8.5925 2.4613 12.9178 2.4613 9.3271 0 18.4143-3.6905 25.102-10.5568l122.7708-126.3963h63.65745020421991C637.422 613.2082 735.9242 523.4021 754.0617 399.684zM248.7705 282.4745h333.5665181279525c9.3271 0 16.9462 7.8966 16.9462 17.6201 0 9.7434-7.6191 17.64-16.9462 17.64H248.77053317037047c-9.3261 0-16.9462-7.8976-16.9462-17.64C231.8243 290.3711 239.4445 282.4745 248.7705 282.4745zM449.049 446.1155H248.77053317037047c-9.3261 0-16.9462-7.8966-16.9462-17.6001 0-9.7624 7.6201-17.659 16.9462-17.659h200.27842264477528c9.3271 0 16.9272 7.8966 16.9272 17.659C465.9752 438.2179 458.375 446.1155 449.049 446.1155z" /></svg>