<?xml version="1.0" encoding="utf-8"?>
<!-- Generator: Adobe Illustrator 21.1.0, SVG Export Plug-In . SVG Version: 6.00 Build 0)  -->
<svg version="1.1" id="图层_1" xmlns="http://www.w3.org/2000/svg" xmlns:xlink="http://www.w3.org/1999/xlink" x="0px" y="0px"
	 viewBox="0 0 200 200" style="enable-background:new 0 0 200 200;" xml:space="preserve">
<style type="text/css">
	.st0{fill:#FFFFFF;}
</style>
<path class="st0" d="M153.3,71.9c-0.1,1.5-0.3,3.1-0.5,4.7c-4,27.2-25.9,47-52.1,47h-8.5l-1.6,1.6c5.9,10.8,16.8,17.8,29.1,17.8h8.5
	l16.8,17.3c1.1,1.1,2.6,1.7,4.1,1.7c0.7,0,1.4-0.1,2.1-0.4c2.1-0.8,3.5-2.9,3.5-5.1v-14.1c15.6-3.2,27.2-17.7,27.2-35.1
	C181.8,89.4,169.4,74.6,153.3,71.9z M144.8,75.5c0.4-2.7,0.6-5.1,0.6-7.4c0-26.2-20-47.5-44.7-47.5H62.1
	c-24.6,0-44.7,21.3-44.7,47.5c0,23.5,15.8,42.9,36.9,46.8v20c0,2.6,1.6,5,4.1,6c0.8,0.3,1.6,0.5,2.4,0.5c1.8,0,3.5-0.7,4.7-2
	l23.1-23.8h12C122.9,115.7,141.4,98.8,144.8,75.5z M49.7,53.4h62.8c1.8,0,3.2,1.5,3.2,3.3c0,1.8-1.4,3.3-3.2,3.3H49.7
	c-1.8,0-3.2-1.5-3.2-3.3C46.5,54.9,48,53.4,49.7,53.4z M87.4,84.2H49.7c-1.8,0-3.2-1.5-3.2-3.3c0-1.8,1.4-3.3,3.2-3.3h37.7
	c1.8,0,3.2,1.5,3.2,3.3C90.6,82.7,89.2,84.2,87.4,84.2z"/>
</svg>
