<?xml version="1.0" encoding="utf-8"?>
<!-- Generator: Adobe Illustrator 21.1.0, SVG Export Plug-In . SVG Version: 6.00 Build 0)  -->
<svg version="1.1" id="图层_1" xmlns="http://www.w3.org/2000/svg" xmlns:xlink="http://www.w3.org/1999/xlink" x="0px" y="0px"
	 viewBox="0 0 200 200" style="enable-background:new 0 0 200 200;" xml:space="preserve">
<style type="text/css">
	.st0{fill:#1C5DFF;}
</style>
<g>
	<path class="st0" d="M162.5,78h-29.2c-8.7,0-15.8-7-15.8-15.8V34.5h9.5v27.7c0,3.5,2.8,6.2,6.2,6.2h29.2L162.5,78L162.5,78z"/>
</g>
<g>
	<rect x="161.2" y="68.5" class="st0" width="10" height="30"/>
</g>
<g>
	<path class="st0" d="M89.2,181.5H57.6c-13.6,0-24.6-11-24.6-24.6v-107c0-13.6,11-24.6,24.6-24.6H127v10H57.6
		c-8.1,0-14.6,6.5-14.6,14.6v107c0,8,6.5,14.6,14.6,14.6h31.6V181.5z"/>
</g>
<g>
	<path class="st0" d="M170.2,71.7L170.2,71.7c-1.7,2.1-4.8,2.4-6.9,0.7L123.6,34c-2.1-1.7-2.4-4.8-0.7-6.9l0,0
		c1.7-2.1,4.8-2.4,6.9-0.7l39.6,38.4C171.4,66.6,171.9,69.6,170.2,71.7z"/>
</g>
<g>
	<path class="st0" d="M166.4,142.4H97.7c-2.6,0-4.8-2.1-4.8-4.8l0,0c0-2.6,2.1-4.8,4.8-4.8h68.7c2.6,0,4.8,2.1,4.8,4.8l0,0
		C171.1,140.2,169,142.4,166.4,142.4z"/>
</g>
<g>
	<path class="st0" d="M135.9,103.3v73.4c0,2.6-2.1,4.8-4.8,4.8h0c-2.6,0-4.8-2.1-4.8-4.8v-73.4c0-2.6,2.1-4.8,4.8-4.8h0
		C133.7,98.5,135.9,100.6,135.9,103.3z"/>
</g>
<path class="st0" d="M37.5,49.4l3,115.6l2.5,4.5h4.5l4.5,5l28,2.5v4.5h41.8v-34H91.5c0,0-12.1-9.9,0-20.2h30.3V98.1
	c0,0,8.6-10.1,18.9,0.2v27.2h24.7h6.2l-0.5-30.1L165.3,77l-2.8-1.3l-8.3-0.6c0,0-12.4-0.6-15-0.9c-2.6-0.3-12.2-2.2-12.2-2.2
	l-4.4-9.7l0.8-7.8l-1.6-16.5l-1.5-6.8L61,32.6c0,0-10.1-0.2-10.3-0.1S39.1,36,39.1,36s-1.3,6.1-1.6,6.3S37.5,49.4,37.5,49.4z"/>
</svg>
