<?xml version="1.0" encoding="utf-8"?>
<!-- Generator: Adobe Illustrator 21.1.0, SVG Export Plug-In . SVG Version: 6.00 Build 0)  -->
<svg version="1.1" id="图层_1" xmlns="http://www.w3.org/2000/svg" xmlns:xlink="http://www.w3.org/1999/xlink" x="0px" y="0px"
	 viewBox="0 0 256 72" style="enable-background:new 0 0 256 72;" xml:space="preserve">
<style type="text/css">
	.st0{clip-path:url(#SVGID_2_);}
	.st1{fill:#FFFFFF;}
	.st2{clip-path:url(#SVGID_4_);}
	.st3{clip-path:url(#SVGID_6_);}
	.st4{clip-path:url(#SVGID_8_);}
	.st5{clip-path:url(#SVGID_10_);}
	.st6{clip-path:url(#SVGID_12_);}
	.st7{clip-path:url(#SVGID_14_);}
	.st8{clip-path:url(#SVGID_16_);}
	.st9{clip-path:url(#SVGID_18_);}
	.st10{clip-path:url(#SVGID_20_);}
	.st11{clip-path:url(#SVGID_22_);}
	.st12{clip-path:url(#SVGID_24_);}
	.st13{clip-path:url(#SVGID_26_);}
	.st14{clip-path:url(#SVGID_28_);}
	.st15{clip-path:url(#SVGID_30_);}
	.st16{clip-path:url(#SVGID_32_);}
	.st17{clip-path:url(#SVGID_34_);}
	.st18{clip-path:url(#SVGID_36_);}
</style>
<g>
	<defs>
		<path id="SVGID_1_" d="M59.6,1.6H12.2c-4.4,0-8,3.6-8,8v47.2c0,4.4,3.6,8,8,8h47.4c4.4,0,8-3.6,8-8V9.5C67.6,5.1,64,1.6,59.6,1.6z
			 M58.1,37.2c0,0,0,0.1,0,0.1c0,0.1,0,0.1,0,0.2c0,9.4-9.9,17-22.2,17s-22.2-7.6-22.2-17c0-0.1,0-0.1,0-0.2c0,0,0-0.1,0-0.1V18.2
			c0-2.7,2.4-4.8,5.3-4.8h33.7c3,0,5.3,2.2,5.3,4.8V37.2z"/>
	</defs>
	<use xlink:href="#SVGID_1_"  style="overflow:visible;fill-rule:evenodd;clip-rule:evenodd;fill:#FFFFFF;"/>
	<clipPath id="SVGID_2_">
		<use xlink:href="#SVGID_1_"  style="overflow:visible;"/>
	</clipPath>
	<g class="st0">
		<rect x="-5.5" y="-8.1" class="st1" width="82.7" height="82.5"/>
	</g>
</g>
<g>
	<defs>
		<path id="SVGID_3_" d="M47.3,24.5c-0.8,0-1.5,0.3-2.1,0.9l-9.5,9.4l-9.3-9.3l0,0c-0.5-0.5-1.2-0.8-2-0.8c-1.6,0-2.9,1.3-2.9,2.9
			c0,0.8,0.3,1.5,0.8,2l0,0L33.6,41l0,0c0.5,0.5,1.2,0.8,2,0.8c0.8,0,1.5-0.3,2.1-0.9l11.9-11.8c0.5-0.5,0.7-0.9,0.7-1.7
			C50.3,25.8,49,24.5,47.3,24.5"/>
	</defs>
	<use xlink:href="#SVGID_3_"  style="overflow:visible;fill-rule:evenodd;clip-rule:evenodd;fill:#FFFFFF;"/>
	<clipPath id="SVGID_4_">
		<use xlink:href="#SVGID_3_"  style="overflow:visible;"/>
	</clipPath>
	<g class="st2">
		<rect x="11.8" y="14.8" class="st1" width="48.2" height="36.6"/>
	</g>
</g>
<g>
	<defs>
		<path id="SVGID_5_" d="M103.2,11.4h15.3v28.4H84.3V11.4h12l2-5.7H81.8V2.2H121v3.5h-15.8L103.2,11.4z M93,22.4
			c4.6,1.4,13.6,1.4,18.3,0c4.6-1.4,4.6-4.2,0-5.6c-4.6-1.4-13.7-1.4-18.3,0C88.4,18.2,88.4,21,93,22.4z M93,34
			c4.6,1.4,13.7,1.4,18.3,0c4.6-1.4,4.6-4.2,0-5.6c-4.6-1.4-13.7-1.4-18.3,0C88.5,29.8,88.4,32.6,93,34z"/>
	</defs>
	<use xlink:href="#SVGID_5_"  style="overflow:visible;fill-rule:evenodd;clip-rule:evenodd;fill:#FFFFFF;"/>
	<clipPath id="SVGID_6_">
		<use xlink:href="#SVGID_5_"  style="overflow:visible;"/>
	</clipPath>
	<g class="st3">
		<rect x="72.2" y="-7.5" class="st1" width="58.5" height="57"/>
	</g>
</g>
<g>
	<defs>
		<path id="SVGID_7_" d="M125.6,37l1-23.8h3.2L128.9,37H125.6z M136.2,39.8h-5.4v-29h-5.1V7.3h5.1V1.6h5.4v5.6h4.9v3.5h-4.9V39.8z
			 M152.1,19.2l-4.3,4.3h-6.9l0.6,13.5H138l-0.9-23.8h3.3l0.4,10l7.2-7.2l-5.6-4.5h7.7l1.4,1.1l4.3-4.3h-6.2l-1.4,2h-6.5l6.2-8.7
			h6.5L152,4.8h10.9v3.6l-7.4,7.4l9.5,7.8h-7.5L152.1,19.2z M142.7,39.8h19.8V25h-19.8V39.8z M148,36.3c2.3,1.9,6.8,2,9.1,0
			c2.3-2,2.3-5.8,0-7.8c-2.3-1.9-6.8-1.9-9.1,0C145.7,30.5,145.7,34.4,148,36.3z"/>
	</defs>
	<use xlink:href="#SVGID_7_"  style="overflow:visible;fill-rule:evenodd;clip-rule:evenodd;fill:#FFFFFF;"/>
	<clipPath id="SVGID_8_">
		<use xlink:href="#SVGID_7_"  style="overflow:visible;"/>
	</clipPath>
	<g class="st4">
		<rect x="115.9" y="-8.1" class="st1" width="58.8" height="57.6"/>
	</g>
</g>
<g>
	<defs>
		<path id="SVGID_9_" d="M168.8,1.6h6.2l5.4,9.4h-6.2L168.8,1.6z M168.9,39.7l4.8-15.4h6.1l-4.8,15.4H168.9z M169.3,12.5h6.2l5,10.2
			h-6.2L169.3,12.5z M197.1,7.1V13h11v3.5h-11V22h9.5v17.7h-24.8V22h9.5v-5.6h-11V13h11V7.1h-9.8V3.6h19.2l1.1-2h6.6l-3,5.5H197.1z
			 M188.3,36.5c2.8,2.5,8.4,2.5,11.2,0c2.9-2.5,2.8-7.4,0-9.8c-2.8-2.5-8.4-2.5-11.2,0C185.5,29.2,185.5,34.1,188.3,36.5z"/>
	</defs>
	<use xlink:href="#SVGID_9_"  style="overflow:visible;fill-rule:evenodd;clip-rule:evenodd;fill:#FFFFFF;"/>
	<clipPath id="SVGID_10_">
		<use xlink:href="#SVGID_9_"  style="overflow:visible;"/>
	</clipPath>
	<g class="st5">
		<rect x="159.1" y="-8" class="st1" width="58.9" height="57.4"/>
	</g>
</g>
<g>
	<defs>
		<path id="SVGID_11_" d="M240,36.2h5.3V11.6h-4.5v20.2l-3.6,7.9h-6.2l0.4-1c0,0-3.5,0.5-4.5,0c-1-0.5-0.5-2.7-0.5-2.7l-1.4,2.7
			h-11.6v-3.5l4.5-16.8h-5.1V15h19.6v3.5h-8.6l-4.5,16.8h6.9c0,0-2.9-9.8-2.3-11.7c0.5-1.9,2.8-4.8,5.7,0c2.9,4.8,1.7,12.3,2.6,13.5
			c0.9,1.2,2.8-6.1,2.8-6.1V11.6h-3.4V8.1h3.4V1.6h5.8v6.5H251v31.6h-9.3L240,36.2z M213.8,6.6h17.8V3.2h-17.8V6.6z"/>
	</defs>
	<use xlink:href="#SVGID_11_"  style="overflow:visible;fill-rule:evenodd;clip-rule:evenodd;fill:#FFFFFF;"/>
	<clipPath id="SVGID_12_">
		<use xlink:href="#SVGID_11_"  style="overflow:visible;"/>
	</clipPath>
	<g class="st6">
		<rect x="203.2" y="-8" class="st1" width="57.4" height="57.4"/>
	</g>
</g>
<g>
	<defs>
		<path id="SVGID_13_" d="M82,64.7V46.3H86v6.5c1-0.6,2.1-0.8,3.2-0.8c1.8,0,3.3,0.6,4.4,1.8c1.1,1.2,1.7,2.7,1.7,4.6
			c0,2-0.6,3.5-1.7,4.7c-1.1,1.2-2.4,1.8-4.1,1.8c-1.3,0-2.5-0.4-3.6-1.3v1H82z M86,61.3c0.8,0.7,1.6,1.1,2.3,1.1
			c0.9,0,1.6-0.3,2.2-1c0.5-0.7,0.8-1.7,0.8-3c0-1.1-0.3-2-0.8-2.7c-0.5-0.7-1.3-1-2.2-1c-0.7,0-1.5,0.3-2.3,0.9V61.3z"/>
	</defs>
	<use xlink:href="#SVGID_13_"  style="overflow:visible;fill-rule:evenodd;clip-rule:evenodd;fill:#FFFFFF;"/>
	<clipPath id="SVGID_14_">
		<use xlink:href="#SVGID_13_"  style="overflow:visible;"/>
	</clipPath>
	<g class="st7">
		<rect x="72.4" y="36.7" class="st1" width="32.6" height="38"/>
	</g>
</g>
<g>
	<defs>
		<path id="SVGID_15_" d="M104.1,56.4c0-1.2-0.7-1.8-2.2-1.8c-1.7,0-3.2,0.7-4.6,2v-3.2c1.7-1,3.5-1.5,5.5-1.5
			c3.5,0,5.2,1.3,5.2,3.8v5.5c0,0.7,0.2,1,0.7,1c0.3,0,0.8-0.2,1.5-0.7v2.2c-1.3,0.8-2.5,1.2-3.7,1.2c-1.2,0-1.9-0.5-2.2-1.5
			c-1.4,1-2.8,1.5-4.1,1.5c-1,0-1.8-0.3-2.5-0.9c-0.7-0.6-1-1.3-1-2.2c0-1.1,0.4-2,1.1-2.6c0.8-0.6,2.3-1.3,4.7-2l1.7-0.5V56.4z
			 M104.1,58.7c-1.5,0.5-2.5,1-2.9,1.4c-0.4,0.4-0.6,0.8-0.6,1.2c0,0.4,0.1,0.7,0.4,1c0.2,0.3,0.6,0.4,1,0.4c0.7,0,1.4-0.3,2.1-0.9
			V58.7z"/>
	</defs>
	<use xlink:href="#SVGID_15_"  style="overflow:visible;fill-rule:evenodd;clip-rule:evenodd;fill:#FFFFFF;"/>
	<clipPath id="SVGID_16_">
		<use xlink:href="#SVGID_15_"  style="overflow:visible;"/>
	</clipPath>
	<g class="st8">
		<rect x="86.9" y="42.3" class="st1" width="32.9" height="32.3"/>
	</g>
</g>
<g>
	<defs>
		<path id="SVGID_17_" d="M113.7,64.2c-0.4-0.1-0.8-0.3-1.1-0.6c-0.3-0.3-0.5-0.7-0.5-1.1c0-0.9,0.8-1.5,2.3-1.9
			c-1-0.2-1.9-0.6-2.6-1.3c-0.7-0.7-1-1.6-1-2.6c0-1.2,0.5-2.3,1.4-3.1c1-0.9,2.3-1.3,4.1-1.3h7.5v2.6h-1.7c0.4,0.7,0.6,1.3,0.6,2
			c0,1.3-0.5,2.3-1.4,3c-0.9,0.7-2.1,1.1-3.7,1.3c-1.3,0.1-2,0.4-2,0.9c0,0.5,0.7,0.8,2,0.9c1.4,0.1,2.4,0.3,3.2,0.5
			c1.7,0.5,2.6,1.7,2.6,3.3c0,2.7-2.2,4.1-6.7,4.1c-2.2,0-3.9-0.3-5-0.9c-1.1-0.6-1.7-1.5-1.7-2.6C110.3,65.8,111.4,64.8,113.7,64.2
			z M113.9,67.1c0,0.9,1,1.3,3.1,1.3h0.2c1.9,0,2.8-0.5,2.8-1.5c0-0.9-1-1.3-2.9-1.3h-0.2C114.9,65.7,113.9,66.2,113.9,67.1z
			 M114.5,56.9c0,0.6,0.2,1.1,0.7,1.5c0.4,0.4,1,0.6,1.7,0.6c0.6,0,1.2-0.2,1.6-0.7c0.5-0.5,0.7-1,0.7-1.6c0-0.6-0.2-1.1-0.6-1.6
			c-0.4-0.4-1-0.6-1.7-0.6c-0.7,0-1.2,0.2-1.7,0.7C114.7,55.7,114.5,56.3,114.5,56.9z"/>
	</defs>
	<use xlink:href="#SVGID_17_"  style="overflow:visible;fill-rule:evenodd;clip-rule:evenodd;fill:#FFFFFF;"/>
	<clipPath id="SVGID_18_">
		<use xlink:href="#SVGID_17_"  style="overflow:visible;"/>
	</clipPath>
	<g class="st9">
		<rect x="100.6" y="42.6" class="st1" width="33" height="37.9"/>
	</g>
</g>
<g>
	<defs>
		<path id="SVGID_19_" d="M137.6,58.3v0.8h-8.9c0,1,0.4,1.9,1.1,2.5c0.7,0.6,1.7,1,2.9,1c1.6,0,3.2-0.6,4.6-1.9v2.5
			c-1.6,1.1-3.4,1.7-5.3,1.7c-2.4,0-4.2-0.6-5.5-1.8c-1.3-1.2-1.9-2.7-1.9-4.6c0-1.9,0.6-3.5,1.8-4.7c1.2-1.2,2.8-1.9,4.8-1.9
			c1.9,0,3.4,0.6,4.6,1.8C137,55,137.6,56.5,137.6,58.3z M133.3,55.2c-0.5-0.6-1.1-0.8-1.9-0.8c-0.7,0-1.3,0.2-1.8,0.7
			c-0.5,0.4-0.8,1.1-0.8,2.1h5.2C134,56.4,133.8,55.7,133.3,55.2z"/>
	</defs>
	<use xlink:href="#SVGID_19_"  style="overflow:visible;fill-rule:evenodd;clip-rule:evenodd;fill:#FFFFFF;"/>
	<clipPath id="SVGID_20_">
		<use xlink:href="#SVGID_19_"  style="overflow:visible;"/>
	</clipPath>
	<g class="st10">
		<rect x="115" y="42.3" class="st1" width="32.3" height="32.3"/>
	</g>
</g>
<g>
	<defs>
		<polyline id="SVGID_21_" points="144.9,59.1 147.6,52.2 151.8,52.2 146,65 143.8,65 138.1,52.2 142.3,52.2 144.9,59.1 		"/>
	</defs>
	<use xlink:href="#SVGID_21_"  style="overflow:visible;fill-rule:evenodd;clip-rule:evenodd;fill:#FFFFFF;"/>
	<clipPath id="SVGID_22_">
		<use xlink:href="#SVGID_21_"  style="overflow:visible;"/>
	</clipPath>
	<g class="st11">
		<rect x="128.4" y="42.6" class="st1" width="33" height="32.1"/>
	</g>
</g>
<g>
	<defs>
		<path id="SVGID_23_" d="M165.3,58.3v0.8h-8.9c0,1,0.4,1.9,1.1,2.5c0.7,0.6,1.7,1,2.9,1c1.7,0,3.2-0.6,4.6-1.9v2.5
			c-1.6,1.1-3.4,1.7-5.3,1.7c-2.4,0-4.2-0.6-5.5-1.8c-1.3-1.2-1.9-2.7-1.9-4.6c0-1.9,0.6-3.5,1.8-4.7c1.2-1.2,2.8-1.9,4.8-1.9
			c1.9,0,3.4,0.6,4.6,1.8C164.7,55,165.3,56.5,165.3,58.3z M161,55.2c-0.5-0.6-1.1-0.8-1.9-0.8c-0.7,0-1.3,0.2-1.8,0.7
			c-0.5,0.4-0.8,1.1-0.8,2.1h5.2C161.7,56.4,161.5,55.7,161,55.2z"/>
	</defs>
	<use xlink:href="#SVGID_23_"  style="overflow:visible;fill-rule:evenodd;clip-rule:evenodd;fill:#FFFFFF;"/>
	<clipPath id="SVGID_24_">
		<use xlink:href="#SVGID_23_"  style="overflow:visible;"/>
	</clipPath>
	<g class="st12">
		<rect x="142.7" y="42.3" class="st1" width="32.3" height="32.3"/>
	</g>
</g>
<g>
	<defs>
		<path id="SVGID_25_" d="M167.4,64.7V52.2h3.9v1.8c1.1-1.4,2.4-2.1,4.1-2.1c1.3,0,2.4,0.4,3.3,1.3c0.8,0.8,1.3,2,1.3,3.5v7.9h-3.9
			v-7.6c0-0.9-0.2-1.5-0.5-1.9c-0.3-0.4-0.8-0.6-1.5-0.6c-0.9,0-1.9,0.7-2.8,2.1v8H167.4"/>
	</defs>
	<use xlink:href="#SVGID_25_"  style="overflow:visible;fill-rule:evenodd;clip-rule:evenodd;fill:#FFFFFF;"/>
	<clipPath id="SVGID_26_">
		<use xlink:href="#SVGID_25_"  style="overflow:visible;"/>
	</clipPath>
	<g class="st13">
		<rect x="157.7" y="42.3" class="st1" width="32" height="32.1"/>
	</g>
</g>
<g>
	<defs>
		<path id="SVGID_27_" d="M181.4,54.2l5.2-5.9h0.5v4h4.7v2.7h-4.7v5c0,1.4,0.6,2.1,1.9,2.1c0.9,0,1.8-0.2,2.8-0.6v2.8
			c-1.3,0.5-2.5,0.8-3.7,0.8c-1.6,0-2.8-0.4-3.7-1.2c-0.8-0.8-1.2-2-1.2-3.4v-5.4h-1.8V54.2"/>
	</defs>
	<use xlink:href="#SVGID_27_"  style="overflow:visible;fill-rule:evenodd;clip-rule:evenodd;fill:#FFFFFF;"/>
	<clipPath id="SVGID_28_">
		<use xlink:href="#SVGID_27_"  style="overflow:visible;"/>
	</clipPath>
	<g class="st14">
		<rect x="171.7" y="38.6" class="st1" width="29.7" height="36.1"/>
	</g>
</g>
<g>
	<defs>
		<path id="SVGID_29_" d="M192.8,62.6c0-0.6,0.2-1.2,0.7-1.6c0.5-0.5,1-0.7,1.7-0.7c0.6,0,1.2,0.2,1.7,0.7c0.5,0.5,0.7,1,0.7,1.6
			c0,0.7-0.2,1.2-0.7,1.7c-0.5,0.5-1,0.7-1.7,0.7c-0.7,0-1.2-0.2-1.7-0.7C193,63.8,192.8,63.3,192.8,62.6"/>
	</defs>
	<use xlink:href="#SVGID_29_"  style="overflow:visible;fill-rule:evenodd;clip-rule:evenodd;fill:#FFFFFF;"/>
	<clipPath id="SVGID_30_">
		<use xlink:href="#SVGID_29_"  style="overflow:visible;"/>
	</clipPath>
	<g class="st15">
		<rect x="183.1" y="50.6" class="st1" width="24.1" height="24"/>
	</g>
</g>
<g>
	<defs>
		<path id="SVGID_31_" d="M210.8,61.3v2.8c-1.4,0.6-2.8,0.8-4.1,0.8c-2.2,0-4-0.6-5.3-1.8c-1.3-1.2-1.9-2.7-1.9-4.7
			c0-1.9,0.7-3.4,2-4.7c1.3-1.2,3-1.9,5.1-1.9c1.4,0,2.8,0.3,4.1,0.8v2.9c-1-0.6-2.1-0.8-3.1-0.8c-1.1,0-2.1,0.3-2.8,1
			c-0.7,0.6-1.1,1.5-1.1,2.6c0,1.1,0.3,2,1,2.7c0.7,0.7,1.6,1,2.6,1c0.6,0,1.2-0.1,1.8-0.3C209.8,61.6,210.3,61.5,210.8,61.3"/>
	</defs>
	<use xlink:href="#SVGID_31_"  style="overflow:visible;fill-rule:evenodd;clip-rule:evenodd;fill:#FFFFFF;"/>
	<clipPath id="SVGID_32_">
		<use xlink:href="#SVGID_31_"  style="overflow:visible;"/>
	</clipPath>
	<g class="st16">
		<rect x="189.8" y="42.3" class="st1" width="30.7" height="32.3"/>
	</g>
</g>
<g>
	<defs>
		<path id="SVGID_33_" d="M212.3,58.4c0-1.9,0.7-3.5,2-4.7c1.3-1.2,3.1-1.8,5.3-1.8c2,0,3.7,0.6,5,1.8c1.3,1.2,1.9,2.8,1.9,4.7
			c0,2-0.7,3.6-2.1,4.8c-1.4,1.1-3,1.7-5,1.7c-2.2,0-3.9-0.6-5.2-1.8C213,61.9,212.3,60.4,212.3,58.4z M216.5,58.5
			c0,2.8,1,4.2,3,4.2c1.9,0,2.8-1.4,2.8-4.2c0-2.7-0.9-4.1-2.8-4.1C217.5,54.3,216.5,55.7,216.5,58.5z"/>
	</defs>
	<use xlink:href="#SVGID_33_"  style="overflow:visible;fill-rule:evenodd;clip-rule:evenodd;fill:#FFFFFF;"/>
	<clipPath id="SVGID_34_">
		<use xlink:href="#SVGID_33_"  style="overflow:visible;"/>
	</clipPath>
	<g class="st17">
		<rect x="202.7" y="42.3" class="st1" width="33.5" height="32.3"/>
	</g>
</g>
<g>
	<defs>
		<path id="SVGID_35_" d="M228.6,52.2h3.9v1.6c1.4-1.3,2.8-1.9,4.4-1.9c2.1,0,3.6,0.9,4.4,2.7c1.5-1.8,3.2-2.7,4.9-2.7
			c1.4,0,2.6,0.4,3.5,1.3c0.9,0.8,1.4,2,1.4,3.5v7.9h-3.9v-7.3c0-1.9-0.8-2.8-2.3-2.8c-1.2,0-2.2,0.7-3.1,2.1v8H238v-7.4
			c0-0.8-0.2-1.5-0.6-1.9c-0.4-0.5-1-0.7-1.7-0.7c-1,0-2,0.6-3,1.7v8.4h-3.9V52.2"/>
	</defs>
	<use xlink:href="#SVGID_35_"  style="overflow:visible;fill-rule:evenodd;clip-rule:evenodd;fill:#FFFFFF;"/>
	<clipPath id="SVGID_36_">
		<use xlink:href="#SVGID_35_"  style="overflow:visible;"/>
	</clipPath>
	<g class="st18">
		<rect x="219" y="42.3" class="st1" width="41.9" height="32.1"/>
	</g>
</g>
</svg>
