<?xml version="1.0" encoding="utf-8"?>
<!-- Generator: Adobe Illustrator 21.1.0, SVG Export Plug-In . SVG Version: 6.00 Build 0)  -->
<svg version="1.1" id="图层_1" xmlns="http://www.w3.org/2000/svg" xmlns:xlink="http://www.w3.org/1999/xlink" x="0px" y="0px"
	 viewBox="0 0 256 72" style="enable-background:new 0 0 256 72;" xml:space="preserve">
<style type="text/css">
	.st0{fill:#FFFFFF;}
</style>
<g>
	<polygon class="st0" points="14.2,15.7 14.2,49.3 14.2,54.9 14.3,54.8 15.3,54.4 15.3,17.4 54.8,35.9 56.1,35.3 	"/>
	<path class="st0" d="M69,30.3c-0.7-0.8-1.4-1.6-2.4-2.1c0.6,0.4,1.1,0.9,1.5,1.5c0.9,1.2,1.5,2.5,1.8,4c0.1,0.5,0.1,1,0.1,1.5
		c0,2.1-0.7,4.1-2,5.6c-0.8,1-1.7,1.8-2.8,2.4l0,0l-0.1,0C65,43.4,14.9,66.8,14.9,66.8c-0.9,0.3-1.8,0.4-2.8,0.4c0,0,0,0,0,0
		c0,0,0,0,0,0c-1.2,0-2.4-0.2-3.4-0.7c-2.5-1-4.5-3.2-5.3-5.8c-0.2-0.8-0.4-1.7-0.4-2.6v1.1c0,0.9,0.1,1.8,0.4,2.6
		c0.8,2.7,2.8,4.9,5.3,5.9c1.1,0.4,2.3,0.7,3.5,0.7c1,0,1.9-0.2,2.8-0.4c0,0,50.7-23.7,50.9-23.8l0.1,0l0,0c1.1-0.6,2.1-1.4,2.9-2.4
		c1.2-1.6,2-3.5,2-5.7C71,33.8,70.2,31.8,69,30.3z"/>
	<g>
		<path class="st0" d="M69.9,33.7c-0.3-1.5-0.9-2.9-1.8-4c-0.4-0.6-0.9-1.1-1.5-1.5c-0.5-0.4-1.1-0.8-1.7-1.1L15.7,4.1
			c-1.1-0.5-2.3-0.7-3.5-0.7C10.2,3.4,8.4,4,7,5.1c-1.9,1.3-3.2,3.3-3.7,5.6c-0.1,0.4-0.1,0.8-0.2,1.1c0,0.2,0,46.3,0,46.3
			c0,0.9,0.1,1.8,0.4,2.6c0.8,2.6,2.7,4.8,5.3,5.8c1.1,0.4,2.2,0.7,3.4,0.7c0,0,0,0,0,0c1,0,1.9-0.2,2.8-0.4
			c0,0,50.1-23.3,50.3-23.5l0.1,0l0,0c1.1-0.6,2.1-1.4,2.8-2.4c1.2-1.5,2-3.5,2-5.6C70.1,34.7,70,34.2,69.9,33.7z M14.3,54.8
			l-0.1,0.1V15.7l41.9,19.6L14.3,54.8z"/>
	</g>
</g>
<g>
	<path class="st0" d="M124.4,55.8c0.2,0,0.4-0.1,0.7-0.1c0.2,0,0.5,0,0.7,0c0.3,0,0.5,0,0.7,0c0.2,0,0.4,0.1,0.6,0.1
		c0,0.1,0.1,0.2,0.1,0.3c0,0.2,0.1,0.3,0.1,0.5c0,0.2,0.1,0.3,0.1,0.5c0,0.2,0,0.3,0.1,0.4c0.1-0.2,0.3-0.5,0.5-0.7
		c0.2-0.2,0.5-0.5,0.7-0.6c0.3-0.2,0.6-0.3,1-0.5c0.4-0.1,0.8-0.2,1.2-0.2c1.9,0,3.2,0.7,3.7,2.2c0.3-0.6,0.8-1.1,1.3-1.6
		c0.6-0.4,1.3-0.7,2.2-0.7c1.4,0,2.4,0.4,3.1,1.2c0.7,0.8,1,2,1,3.6v7.9c-0.6,0.1-1.1,0.1-1.7,0.1s-1.1,0-1.7-0.1v-7
		c0-0.9-0.1-1.5-0.3-2c-0.2-0.5-0.6-0.7-1.3-0.7c-0.3,0-0.5,0-0.8,0.1c-0.3,0.1-0.5,0.2-0.7,0.4c-0.2,0.2-0.4,0.5-0.5,0.9
		c-0.1,0.4-0.2,0.9-0.2,1.5v6.7c-0.6,0.1-1.1,0.1-1.7,0.1c-0.6,0-1.1,0-1.7-0.1v-7c0-0.9-0.1-1.5-0.3-2c-0.2-0.5-0.6-0.7-1.3-0.7
		c-0.3,0-0.5,0-0.8,0.1c-0.3,0.1-0.5,0.2-0.7,0.5c-0.2,0.2-0.4,0.6-0.5,1c-0.1,0.4-0.2,1-0.2,1.6v6.5c-0.6,0.1-1.1,0.1-1.7,0.1
		c-0.6,0-1.1,0-1.7-0.1V55.8z"/>
	<path class="st0" d="M145.2,55.8c0.6-0.1,1.1-0.1,1.7-0.1s1.1,0,1.7,0.1v6.6c0,0.7,0.1,1.2,0.2,1.6c0.1,0.4,0.3,0.8,0.5,1
		c0.2,0.2,0.5,0.4,0.8,0.5c0.3,0.1,0.7,0.2,1.1,0.2c0.6,0,1.1-0.1,1.5-0.2v-9.7c0.6-0.1,1.1-0.1,1.7-0.1c0.6,0,1.1,0,1.7,0.1v12
		c-0.5,0.2-1.2,0.3-2,0.5c-0.8,0.2-1.7,0.3-2.6,0.3c-0.8,0-1.6-0.1-2.3-0.2c-0.8-0.1-1.4-0.4-2-0.8c-0.6-0.4-1-1-1.3-1.8
		c-0.3-0.8-0.5-1.9-0.5-3.2V55.8z"/>
	<path class="st0" d="M166.5,50.7c0.3,0,0.6-0.1,0.8-0.1c0.3,0,0.6,0,0.8,0c0.3,0,0.5,0,0.8,0c0.3,0,0.6,0,0.9,0.1v17.2
		c-0.7,0.2-1.5,0.4-2.3,0.5c-0.8,0.1-1.7,0.2-2.8,0.2c-0.8,0-1.7-0.1-2.4-0.3c-0.8-0.2-1.5-0.6-2-1.1c-0.6-0.5-1.1-1.2-1.4-2
		c-0.3-0.8-0.5-1.8-0.5-2.9c0-0.9,0.1-1.8,0.4-2.6c0.3-0.8,0.7-1.5,1.3-2.1c0.5-0.6,1.2-1.1,2-1.4c0.8-0.3,1.6-0.5,2.6-0.5
		c0.3,0,0.6,0,0.9,0c0.3,0,0.6,0.1,0.9,0.2V50.7z M166.5,58.4c-0.3-0.1-0.6-0.1-0.8-0.2c-0.2,0-0.4,0-0.8,0c-0.5,0-1,0.1-1.4,0.3
		c-0.4,0.2-0.7,0.5-1,0.9c-0.3,0.4-0.4,0.8-0.6,1.3c-0.1,0.5-0.2,1-0.2,1.5c0,0.7,0.1,1.2,0.2,1.7c0.2,0.5,0.4,0.8,0.7,1.1
		c0.3,0.3,0.6,0.5,1,0.6c0.4,0.1,0.8,0.2,1.2,0.2c0.3,0,0.5,0,0.7,0c0.2,0,0.5-0.1,0.7-0.2V58.4z"/>
	<path class="st0" d="M172.9,55.8c0.6-0.1,1.1-0.1,1.7-0.1s1.1,0,1.7,0.1v6.6c0,0.7,0.1,1.2,0.2,1.6c0.1,0.4,0.3,0.8,0.5,1
		c0.2,0.2,0.5,0.4,0.8,0.5c0.3,0.1,0.7,0.2,1.1,0.2c0.6,0,1.1-0.1,1.5-0.2v-9.7c0.6-0.1,1.1-0.1,1.7-0.1c0.6,0,1.1,0,1.7,0.1v12
		c-0.5,0.2-1.2,0.3-2,0.5c-0.8,0.2-1.7,0.3-2.6,0.3c-0.8,0-1.6-0.1-2.3-0.2c-0.7-0.1-1.4-0.4-2-0.8c-0.6-0.4-1-1-1.3-1.8
		c-0.3-0.8-0.5-1.9-0.5-3.2V55.8z"/>
	<path class="st0" d="M186.8,68.3c-0.1-0.6-0.1-1.2-0.1-1.8c0-0.6,0-1.2,0.1-1.8c0.6-0.1,1.2-0.1,1.7-0.1c0.6,0,1.2,0,1.8,0.1
		c0.1,0.6,0.1,1.2,0.1,1.8c0,0.6,0,1.2-0.1,1.8c-0.6,0.1-1.2,0.1-1.7,0.1C188,68.4,187.4,68.4,186.8,68.3z"/>
	<path class="st0" d="M194,58.4h-1.6l-0.1-0.5l4.5-5.8h0.5v3.6h2.9c0,0.2,0.1,0.5,0.1,0.7c0,0.2,0,0.4,0,0.6c0,0.2,0,0.4,0,0.7
		c0,0.2,0,0.4-0.1,0.7h-2.9v4.9c0,0.5,0,0.9,0.1,1.2c0.1,0.3,0.2,0.5,0.3,0.7c0.2,0.2,0.3,0.3,0.6,0.4c0.2,0.1,0.5,0.1,0.8,0.1
		c0.2,0,0.5,0,0.7-0.1c0.2,0,0.4-0.1,0.6-0.1c0.1,0.3,0.2,0.6,0.2,0.9c0,0.3,0.1,0.6,0.1,0.9c0,0.2,0,0.3,0,0.4c0,0.1,0,0.2,0,0.3
		c-0.7,0.2-1.5,0.3-2.3,0.3c-1.4,0-2.6-0.3-3.3-1c-0.8-0.7-1.1-1.8-1.1-3.3V58.4z"/>
	<path class="st0" d="M201.3,55.9c0.4-0.1,0.7-0.1,1.1-0.1c0.3,0,0.6,0,0.8,0c0.3,0,0.6,0,1,0c0.3,0,0.6,0.1,0.9,0.1l2.7,9.3
		l2.7-9.3c0.3,0,0.6-0.1,0.9-0.1c0.3,0,0.6,0,0.9,0c0.2,0,0.5,0,0.8,0c0.3,0,0.7,0.1,1.1,0.1l-4.7,12.4c-0.3,0.1-0.6,0.1-1,0.1
		c-0.3,0-0.6,0-0.8,0c-0.2,0-0.5,0-0.8,0c-0.3,0-0.6-0.1-0.9-0.1L201.3,55.9z"/>
</g>
<rect x="84" y="60" class="st0" width="27.7" height="1.7"/>
<rect x="225.2" y="60" class="st0" width="27.7" height="1.7"/>
<g>
	<g>
		<path class="st0" d="M209,38.9c-0.1-0.6-0.2-1-0.2-1H207v-26l-14,0V9.9l15.5,0c0.7-1.6,0.2-3.7,0-4.2l-0.1-0.1H193V3.8h-0.1
			c-3.3-0.6-6.3-0.1-6.7,0h-0.1v0c0,0,0,0,0,0v1.7h-15v4.3h15v2.1l-13.5,0v26h-1.5v4.4h37.6C209.3,41.1,209.2,39.8,209,38.9z
			 M200.1,37.9h-20.6v-2.6h19c0.8-1.8,0-4.3,0-4.3h-19v-2.1h19c0.6-1.9,0-4.1,0-4.2h-19v-2.1l19,0c0.7-2.2,0-4.2,0-4.2h-19v-2.2
			h20.6V37.9z"/>
	</g>
	<g>
		<path class="st0" d="M120.1,4.8c-19.3-1-36.1,0-36.1,0v0v37l25.6,0h1.4c6,0,9.2-1.6,9.2-1.6L120.1,4.8z M113.3,36.9l-22.7,0V31
			l20.4,0c0.9-2.2,0-4.9,0-4.9H90.6v-5.9H111c0.9-2.1,0-4.8,0-4.8h-0.1l0,0H90.6V9.9h22.7V36.9z"/>
	</g>
	<g>
		<path class="st0" d="M165.1,19.3c0.8-2,0.1-4.5,0-4.7c0,0-1.8,0-1.8,0l0,0l1.3-3.1h-6.1l-1.4,3.1h-1.4v-4.3l9.1,0
			c0.8-1.9,0.1-4.3,0-4.7l0-0.1h-9.1V3.8v0c-3.3-0.6-6.2,0-6.2,0v0h0v1.6h-6.8v4.8h6.8v4.3h-7.1v4.7h2l-3,5.9V4.3V4.3
			c-7.3-0.6-13.7,0-13.7,0v0.1v37.7l5.5,0c6.7,0,8.3-1.6,8.3-1.6l0-13.9h1.1l0,15.7l12.8,0h2c5,0,7.3-1.6,7.3-1.6l0-19.1h-14.7
			l1.2-2.4H165.1z M135.5,37.5h-2.2v-6.7h2.2v6.6V37.5z M133.3,26.4v-6.5h2.2v6.5H133.3z M135.5,15.5h-2.2V8.9h2.2V15.5z M158.3,26
			v11.8h-9.5v-4h8.1c0.7-1.9,0-4.1,0-4.1h-8.1V26H158.3z"/>
	</g>
	<g>
		<g>
			<polygon class="st0" points="243.7,19.3 246.5,24.7 252.2,24.7 249.3,19.3 			"/>
			<polygon class="st0" points="227.7,24.7 233.4,24.7 236.4,19.4 230.7,19.4 			"/>
			<path class="st0" d="M252.7,14.1h-2.4l1-3.2h-5.4l-1.1,3.2h-1.8V9.5l8.4-0.5l1.6-5l-24.5,1.4v4.9l8.8-0.5v4.2h-1.7l-1.1-3.1h-5.5
				l0.9,3.1h-1.4v4.1h8.8v6.5v0c0,0,2.6,0.6,5.7,0v-6.6h9.8C253.3,16.2,252.7,14.1,252.7,14.1z"/>
		</g>
		<g>
			<path class="st0" d="M252.2,25.7h-24v16.8l15.2,0l1.5,0c4.8,0,7.3-1.6,7.3-1.6V25.7z M242.7,29.9h3.8V32h-3.8V29.9z M237.4,38.4
				h-3.5v-2.3h3.5V38.4z M237.4,32h-3.5v-2.1h3.5V32z M242.7,38.4v-2.3v0h3.8v2.4H242.7z"/>
		</g>
		<path class="st0" d="M225.4,16.6V14l2.2,0c0.7-1.9,0-4.6,0-4.6h-2.2V3.6h-4.3l-6,7.1V14h4.4v6.8L214.2,33l5.2,0v4.7h-3.3v4.6h0
			l0,0c0.6,0,1.2,0,1.8,0c5.3,0,7.5-1.5,7.5-1.5V23.4l2.6-6.8H225.4z"/>
	</g>
</g>
</svg>
