<?xml version="1.0" encoding="utf-8"?>
<!-- Generator: Adobe Illustrator 21.1.0, SVG Export Plug-In . SVG Version: 6.00 Build 0)  -->
<svg version="1.1" id="图层_1" xmlns="http://www.w3.org/2000/svg" xmlns:xlink="http://www.w3.org/1999/xlink" x="0px" y="0px"
	 viewBox="0 0 200 200" style="enable-background:new 0 0 200 200;" xml:space="preserve">
<style type="text/css">
	.st0{fill:#FFFFFF;}
</style>
<path class="st0" d="M82.1,96.7c0,0-0.1,0.1-0.2,0.1c-1.2-4.6-2.4-9.2-3.8-13.7c-1.9-6.7-4-13.3-6-20c-0.3-1-0.7-1.2-1.7-1.2
	c-4.3,0.1-8.6,0-12.9,0c-0.8,2.5-1.7,4.9-2.5,7.4c-1,3.4-2,6.8-2.9,10.2c-1.6,5.7-3.1,11.4-4.6,17.1c-1.6,6.1-3.2,12.2-4.6,18.4
	c-1.5,6.5-3,12.9-4.4,19.4c-0.7,3.2-1.5,6.4-2.1,9.6c-0.5,2.9-0.8,5.8-1.4,8.6c-0.5,2.5,1.1,4,2.3,5.6c3,4,6.7,7.3,10.7,10.3
	c4.3,3.3,8.7,6.3,13.6,8.7c2.2,1.1,4.1,1.2,6.2,0c2.3-1.4,4.7-2.7,7-3.9l5.8,7.5c-3.7,2.4-7.5,4.7-11.8,6.3
	c-3.6,1.3-6.9,0.7-10.3-0.7c-5.9-2.5-11.2-6-16.1-10c-3.7-2.9-7.1-6.1-10.4-9.5c-2.6-2.6-4.7-5.7-6.1-9.2c-0.7-1.7-0.7-3.5-0.4-5.3
	c0.3-2.2,0.6-4.4,0.9-6.6c0.6-3.4,1.2-6.9,1.9-10.3c1-4.9,2.1-9.7,3.2-14.5c1.1-4.8,2.3-9.6,3.5-14.4c1.4-5.6,2.8-11.2,4.2-16.8
	c1.2-4.5,2.4-9,3.7-13.4c1.6-5.3,3.2-10.5,4.9-15.8c0.1-0.2,0.1-0.4,0.2-0.6c1.1-2.5,0.9-2.4-0.6-4.6c-2.6-3.8-5.2-7.7-7.4-11.7
	c-2.1-3.8-4-7.9-5.8-11.9c-1.3-2.8-2.1-5.9-2.4-9C31.7,19.4,33.7,16,37,15c2.6-0.8,5.4-1.4,8.1-1.8c3.7-0.5,7.5-0.6,11.2-0.9
	c0.1,0,0.2-0.1,0.3-0.2l15.2,0c0.3,0.1,0.6,0.2,0.9,0.2c4.3,0.4,8.7,0.6,13,1.1c2.4,0.3,4.8,0.9,7,2.1c2.5,1.4,3.6,3.5,3.8,6.2
	c0.2,3.5-0.9,6.7-2,9.8c-1.8,4.9-4,9.7-6.7,14.2c-2.3,3.9-4.9,7.5-7.3,11.3c-0.2,0.2-0.2,0.6-0.1,0.9c1,3.1,2.1,6.1,3,9.2
	c1.9,6.4,3.6,12.8,5.4,19.1c0.3,1,0.6,2.1,0.8,3.1 M64.6,52.3c2,0,4,0,6,0c0.9,0,1.8-0.1,2.3-0.9c0.7-1,1.5-2,2.2-3
	c3.7-5.5,6.9-11.3,9.4-17.4c0.9-2.1,1.5-4.3,2.3-6.4c0.2-0.5,0.3-1.1-0.5-1.2c-2.9-0.4-5.8-0.9-8.7-1.3c-2.2-0.3-4.5-0.4-6.8-0.4
	c-4.6,0-9.1,0.1-13.7,0.2c-3.2,0.1-6.4,0.4-9.6,0.6c-1.8,0.2-3.5,0.6-5.3,0.8c-0.5,0.1-0.6,0.3-0.4,0.8c1.2,3.1,2.3,6.3,3.7,9.3
	c1.1,2.4,2.3,4.8,3.7,7.1c2,3.4,4.2,6.6,6.4,9.9c0.9,1.4,2.2,2,3.9,1.9C61.2,52.1,62.9,52.3,64.6,52.3z"/>
<path class="st0" d="M126.2,91.1c26.6-0.3,49.3,21.7,48.5,49.8c-0.4,13.5-5.7,25.1-15.7,34.2c-9.4,8.7-20.7,12.9-33.4,12.7
	c-13-0.2-24.3-4.9-33.5-14.1c-10.1-10.2-14.8-22.7-14.2-37C79,112.7,99.1,91,126.2,91.1L126.2,91.1z M165.7,139.4
	c0-21.9-17.8-39.1-38.6-39.4c-22.9-0.3-40.3,17.7-40.4,39.2c-0.1,22.3,17.4,38.8,37.6,39.7c11.4,0.5,21.3-3.3,29.4-11.2
	C161.7,160,165.7,150.5,165.7,139.4L165.7,139.4z M88.7,65.4"/>
<path class="st0" d="M141.1,163c-0.7-0.3-1.9-0.7-3.1-1.2c-2.7-1.1-5.3-2.3-8.1-3.3c-2.8-1.1-5.6-0.8-8.4,0.4
	c-3.1,1.3-6.1,2.6-9.2,3.8c-1,0.4-2.1,0.6-3-0.2c-1-0.9-1.1-2-0.9-3.2c0.2-1.1,0.3-2.2,0.3-3.3c0.2-2.7,0.4-5.3,0.4-8
	c0-2.6-1-4.9-2.7-6.9c-2.4-2.7-4.7-5.5-7-8.3c-1-1.3-0.7-3.2,0.8-3.7c1.9-0.7,4-1.1,6-1.6c1.9-0.5,3.8-0.8,5.7-1.4
	c3.1-1,5.4-2.9,7-5.8c1.6-2.8,3.2-5.5,4.9-8.2c1.3-2,3.6-1.9,4.8,0.2c2,3.3,3.9,6.7,6.2,9.9c1.6,2.3,4,3.6,6.7,4.2
	c3.4,0.8,6.8,1.5,10.2,2.4c2,0.5,2.4,2.4,1.2,4c-1.3,1.7-2.7,3.1-4,4.8c-1.6,2-3.3,4-4.6,6.2c-1,1.8-1.4,3.8-1.1,6
	c0.3,2.2,0.3,4.4,0.5,6.7c0.1,1.4,0.2,2.8,0.2,4.1C144,162.3,143.3,163,141.1,163L141.1,163z"/>
<path class="st0" d="M54.2,59.2L28.7,153l14.2,20.2l16.7,6.8l9.3,1.2l7.5-2.7l4.2,2.3c0,0-16.5-42.8-3.7-68.7c0,0,8-17.2,12.9-22.8
	L76.2,59.2H54.2z"/>
</svg>
