<?xml version="1.0" standalone="no"?><!DOCTYPE svg PUBLIC "-//W3C//DTD SVG 1.1//EN" "http://www.w3.org/Graphics/SVG/1.1/DTD/svg11.dtd"><svg class="icon" width="200px" height="199.80px" viewBox="0 0 1025 1024" version="1.1" xmlns="http://www.w3.org/2000/svg"><path fill="#ffffff" d="M828.4 571.3c-108.3 0-196.2 88.7-196.2 198.1S720 967.5 828.4 967.5c108.4 0 196.2-88.7 196.2-198.1S936.8 571.3 828.4 571.3zM951.5 704.3 805.2 852c-2.4 2.4-5.6 3.7-8.7 3.6-3.1 0-6.3-1.2-8.7-3.6l-82.4-83.2c-4.8-4.8-4.8-12.7 0-17.5 4.8-4.8 12.6-4.8 17.3 0l73.7 74.5 137.7-139c4.8-4.8 12.6-4.8 17.4 0C956.3 691.6 956.2 699.5 951.5 704.3zM609.9 709.7c0 0-103.2-59.9-103.2-108.2 0-12.7 0.2-26.7 0.4-41.4 15.1-16.7 49.9-59.8 63.7-118.5 14-6.6 25.8-20.7 33.2-40.4 10.3-27.7 11.1-66-9-90.8 0.1-0.5 0.2-0.8 0.2-1.3 3.8-34.8 13.8-127.1-41.3-187.7-31.8-34.9-79.3-62.4-141.3-64-62 1.7-109.5 29.2-141.3 64C216 182 226.1 274.4 229.8 309.2c0.1 0.5 0.1 0.8 0.2 1.3-20.1 24.8-19.3 63.1-9 90.8 7.4 19.7 19 33.8 33.1 40.4 13.7 58.8 48.3 101.8 63.4 118.5 0.2 14.8-0.2 27.3-0.2 40 0 139.4-316.9 108.7-316.9 252l0 38.7 635.9 0c0 0-28-38.2-33.7-97C596.7 735 609.9 709.7 609.9 709.7zM415 821l-32.4-35.6L415 626.3l32.4 159.2L415 821z" /></svg>