<?xml version="1.0" standalone="no"?><!DOCTYPE svg PUBLIC "-//W3C//DTD SVG 1.1//EN" "http://www.w3.org/Graphics/SVG/1.1/DTD/svg11.dtd"><svg class="icon" width="200px" height="200.00px" viewBox="0 0 1024 1024" version="1.1" xmlns="http://www.w3.org/2000/svg"><path fill="#ffffff" d="M528.918726 651.205131c90.735717-41.110821 190.593657-99.249792 273.909966-159.578097 27.245041-19.704003 49.138377-36.975413 66.531417-51.81423-50.841193-156.050837-197.526547-268.92315-370.483905-268.92315C283.713358 170.889654 109.296444 345.306568 109.296444 560.469414c0 81.126975 24.812448 156.415726 67.139565 218.690106 97.303718-24.08267 241.069961-77.478085 352.482717-127.954389z m-71.518232-356.253236c4.986816-5.108445 11.676446-7.905927 18.730966-8.027557 6.324742-0.12163 12.527854-0.243259 18.730965-0.608148 14.717187-0.851408 27.366671 10.46015 28.339708 25.055707 0.486519 7.05452-1.946074 13.987409-6.689631 19.217484-4.743556 5.230075-11.311557 8.392446-18.366076 8.757335-6.93289 0.364889-13.987409 0.608148-21.163559 0.729778-14.717187 0.12163-26.880152-11.554816-27.123411-26.272004-0.12163-7.05452 2.554223-13.86578 7.541038-18.852595z m-55.34149 5.959852c14.109039-4.500297 29.191115 3.284 33.569783 17.27141 4.378667 13.987409-3.40563 28.947856-17.514669 33.448153-74.680603 23.596152-129.292315 85.505642-144.131132 160.307875-2.797482 14.473928-16.906521 23.839411-31.502079 21.163559-14.473928-2.797482-23.961041-16.663262-21.041929-31.13719 18.487706-93.898088 86.965198-171.497803 180.620026-201.053807zM583.408808 752.887516l-0.729777 0.364889-0.729778 0.364889c-122.481055 56.192897-227.44744 96.45231-314.047749 120.534981 64.585343 47.678822 144.496021 75.8969 230.9747 75.896899 211.270697 0 383.376648-168.213802 389.45813-378.146573-74.315714 53.881934-176.362988 114.453498-304.925526 180.984915z"  /><path fill="#ffffff" d="M21.601468 838.028269c-20.068892-45.367858 1.824445-85.140753 67.747713-140.847131 9.852001-8.270816 25.055707-5.838223 32.961635 4.378667 7.784297 10.21689 5.838223 24.812448-4.500297 32.718375-64.098824 49.138377-65.801639 71.518233-53.395415 84.532605 34.299561 35.880746 301.276636-55.949638 478.734291-136.346834C764.880242 582.241121 980.043088 412.202874 964.352864 374.132795c-6.93289-16.784891-18.244447-31.988597-98.155126-19.460744-12.649483 1.946074-24.812448-6.689631-26.880152-19.460743-1.946074-12.527854 6.689631-25.298967 19.582373-26.515263 85.870531-9.608742 140.238983 6.324742 149.604467 54.9766 12.162965 62.517639-76.505048 169.794988-441.029101 358.5642C65.266511 952.846656 21.601468 838.028269 21.601468 838.028269z"  /></svg>