<?xml version="1.0" standalone="no"?><!DOCTYPE svg PUBLIC "-//W3C//DTD SVG 1.1//EN" "http://www.w3.org/Graphics/SVG/1.1/DTD/svg11.dtd"><svg t="1505806486932" class="icon" style="" viewBox="0 0 1024 1024" version="1.1" xmlns="http://www.w3.org/2000/svg" p-id="1115" xmlns:xlink="http://www.w3.org/1999/xlink" width="64" height="64"><defs><style type="text/css"></style></defs><path d="M25.9 1024h76.9c3.5-219.4 185.6-396.8 409.3-396.8S917.7 804.6 921.3 1024h76.9c-2.8-210.1-142.3-387.4-334.9-449.6 93-52.8 155.9-152.6 155.9-267.2C819.2 137.5 681.7 0 512 0S204.8 137.5 204.8 307.2c0 114.6 62.9 214.4 155.9 267.2-192.5 62.2-332 239.5-334.8 449.6z m255.7-716.8c0-127 103.4-230.4 230.4-230.4s230.4 103.4 230.4 230.4S639 537.6 512 537.6 281.6 434.2 281.6 307.2z" p-id="1116" fill="#ffffff"></path></svg>