<?xml version="1.0" encoding="utf-8"?>
<!-- Generator: Adobe Illustrator 21.1.0, SVG Export Plug-In . SVG Version: 6.00 Build 0)  -->
<svg version="1.1" id="图层_1" xmlns="http://www.w3.org/2000/svg" xmlns:xlink="http://www.w3.org/1999/xlink" x="0px" y="0px"
	 viewBox="0 0 200 200" style="enable-background:new 0 0 200 200;" xml:space="preserve">
<style type="text/css">
	.st0{fill:#2476FF;}
</style>
<path class="st0" d="M156.1,199.9h-0.1c-2.7-0.1-5.4-0.4-8-0.8c-3.4-0.6-6.8-1.7-10-3C77.2,167.9,32.1,122.8,4,62.2
	c-5.6-13-6.4-31.9,4.8-43L20.6,7.4c5-5,11.9-7.7,19-7.4c7.1,0.3,13.7,3.7,18.2,9.1l17.2,20.9c8.7,10.6,8,25.9-1.7,35.6l-6.6,6.6
	c17.5,24.9,36.1,43.4,60.9,60.9l6.6-6.6c9.6-9.7,25.1-10.5,35.6-1.7l20.9,17.2c10.7,8.9,12.2,24.8,3.3,35.6c-0.5,0.6-1,1.2-1.6,1.7
	l-9.4,9.4c-2.2,2.2-5.8,2.2-8,0c-2.2-2.2-2.2-5.8,0-8l9.4-9.4c5.4-5.4,5.5-14.2,0-19.6c-0.3-0.3-0.7-0.6-1-0.9l-20.9-17.2
	c-6-5-14.9-4.6-20.4,1l-9.9,9.9c-1.9,1.9-4.9,2.2-7.2,0.7c-29.3-20-50.3-41-70.3-70.4c-1.5-2.2-1.2-5.3,0.7-7.2l9.9-9.9
	c5.6-5.5,6-14.4,1-20.4L49.1,16.4c-2.5-3-6.1-4.9-10-5c-3.9-0.2-7.7,1.2-10.5,4L16.8,27.2c-8,8-5.8,22.6-2.5,30.4
	c27.3,58.8,69.3,100.8,128.2,128.2c4.3,1.8,9,2.7,13.7,2.9c3.1,0.2,5.5,2.9,5.3,6C161.4,197.5,159,199.8,156.1,199.9L156.1,199.9z"
	/>
</svg>
