<?xml version="1.0" standalone="no"?><!DOCTYPE svg PUBLIC "-//W3C//DTD SVG 1.1//EN" "http://www.w3.org/Graphics/SVG/1.1/DTD/svg11.dtd"><svg t="1505808918833" class="icon" style="" viewBox="0 0 1024 1024" version="1.1" xmlns="http://www.w3.org/2000/svg" p-id="1330" xmlns:xlink="http://www.w3.org/1999/xlink" width="64" height="64"><defs><style type="text/css"></style></defs><path d="M957.44 418.816c-12.8 0-25.6-12.8-25.6-25.6V128c0-45.056-31.744-76.8-76.8-76.8H163.84c-45.056 0-76.8 31.744-76.8 76.8v761.856c0 45.056 31.744 76.8 76.8 76.8h403.456c12.8 0 25.6 12.8 25.6 25.6s-12.8 25.6-25.6 25.6H163.84c-70.656 0-121.344-57.344-121.344-121.856V128C41.984 57.856 99.84 6.656 163.84 6.656h691.2c70.656 0 121.344 57.856 121.344 121.344v265.216c0.512 18.944-6.144 25.6-18.944 25.6z" p-id="1331" fill="#336cfa"></path><path d="M260.096 396.8h-102.4c-12.8 0-19.456-6.144-19.456-19.456s6.144-19.456 19.456-19.456h102.4c12.8 0 19.456 6.144 19.456 19.456-0.512 12.8-6.656 19.456-19.456 19.456zM215.04 608.256H157.696c-12.8 0-18.944-6.144-18.944-19.456s6.144-19.456 18.944-19.456H215.04c12.8 0 19.456 6.144 19.456 19.456s-6.656 19.456-19.456 19.456zM881.152 203.264H151.552c-12.8 0-19.456-12.8-19.456-19.456 0-12.8 6.144-19.456 19.456-19.456h729.6c12.8 0 19.456 6.144 19.456 19.456-6.656 6.656-13.312 19.456-19.456 19.456zM829.952 955.904c-11.264 0-22.528-3.072-32.768-8.704l-151.04-81.92-151.04 81.92c-9.728 5.632-20.992 8.192-32.768 8.192-13.824 0-27.648-4.096-38.912-12.8-20.992-15.36-31.744-40.96-27.648-66.56l29.696-184.832-128-133.12c-17.408-18.432-23.552-44.544-15.872-69.12 8.192-24.576 28.672-41.984 53.76-46.08l173.568-27.136 75.264-163.328c11.264-24.064 34.816-39.424 60.928-39.424 26.112 0 50.176 15.36 60.928 39.424l75.264 163.328 173.568 27.136c25.088 4.096 45.568 21.504 53.76 46.08 8.192 24.576 2.048 50.688-15.36 69.12l-128 133.12 29.696 184.832c4.096 26.112-6.144 51.2-27.648 66.56-9.728 8.704-23.552 13.312-37.376 13.312z m-183.808-129.024l166.912 90.624c11.776 6.144 25.6 5.632 35.84-2.048 10.752-7.68 15.872-20.992 13.824-33.792l-32.256-201.216 139.776-145.408c9.216-9.216 11.776-22.528 7.68-35.328-4.096-12.288-14.336-20.992-27.136-23.04l-191.488-29.696-82.944-179.712c-5.632-11.776-17.408-19.968-30.72-19.968-12.8 0-25.088 7.68-30.72 19.968l-82.944 179.712-191.488 29.696c-12.288 2.048-23.04 10.752-27.136 23.04-4.096 12.288-1.024 25.6 7.68 35.328l139.264 145.408-32.256 201.216c-2.048 13.312 3.072 26.112 13.824 33.792 10.24 7.168 24.576 8.192 35.328 2.048l168.96-90.624z" p-id="1332" fill="#336cfa"></path></svg>