<?xml version="1.0" standalone="no"?><!DOCTYPE svg PUBLIC "-//W3C//DTD SVG 1.1//EN" "http://www.w3.org/Graphics/SVG/1.1/DTD/svg11.dtd"><svg t="1506232307502" class="icon" style="" viewBox="0 0 1024 1024" version="1.1" xmlns="http://www.w3.org/2000/svg" p-id="1242" xmlns:xlink="http://www.w3.org/1999/xlink" width="64" height="64"><defs><style type="text/css"></style></defs><path d="M832 399.36h-149.504c-44.544 0-80.896-35.84-80.896-80.896V176.64h48.64v141.824c0 17.92 14.336 31.744 31.744 31.744h149.504l0.512 49.152z" fill="#1C5DFF" p-id="1243"></path><path d="M825.344 350.72h51.2v153.6h-51.2zM456.704 929.28H294.912c-69.632 0-125.952-56.32-125.952-125.952v-547.84c0-69.632 56.32-125.952 125.952-125.952H650.24v51.2H294.912c-41.472 0-74.752 33.28-74.752 74.752v547.84c0 40.96 33.28 74.752 74.752 74.752h161.792v51.2z" fill="#1C5DFF" p-id="1244"></path><path d="M871.424 367.104c-8.704 10.752-24.576 12.288-35.328 3.584L632.832 174.08c-10.752-8.704-12.288-24.576-3.584-35.328 8.704-10.752 24.576-12.288 35.328-3.584l202.752 196.608c10.24 9.216 12.8 24.576 4.096 35.328zM851.968 729.088H500.224c-13.312 0-24.576-10.752-24.576-24.576 0-13.312 10.752-24.576 24.576-24.576h351.744c13.312 0 24.576 10.752 24.576 24.576-0.512 13.312-11.264 24.576-24.576 24.576z" fill="#1C5DFF" p-id="1245"></path><path d="M695.808 528.896v375.808c0 13.312-10.752 24.576-24.576 24.576-13.312 0-24.576-10.752-24.576-24.576v-375.808c0-13.312 10.752-24.576 24.576-24.576 13.312 0 24.576 10.752 24.576 24.576z" fill="#1C5DFF" p-id="1246"></path><path d="M192 252.928l15.36 591.872 12.8 23.04h23.04l23.04 25.6 143.36 12.8v23.04h214.016v-174.08H468.48s-61.952-50.688 0-103.424h155.136V502.272s44.032-51.712 96.768 1.024v139.264h158.208l-2.56-154.112-29.696-94.208-14.336-6.656-42.496-3.072s-63.488-3.072-76.8-4.608C699.392 378.368 650.24 368.64 650.24 368.64l-22.528-49.664 4.096-39.936-8.192-84.48-7.68-34.816L312.32 166.912s-51.712-1.024-52.736-0.512S200.192 184.32 200.192 184.32s-6.656 31.232-8.192 32.256 0 36.352 0 36.352z" fill="#1C5DFF" p-id="1247"></path></svg>