<?xml version="1.0" standalone="no"?><!DOCTYPE svg PUBLIC "-//W3C//DTD SVG 1.1//EN" "http://www.w3.org/Graphics/SVG/1.1/DTD/svg11.dtd"><svg t="1506234151627" class="icon" style="" viewBox="0 0 1024 1024" version="1.1" xmlns="http://www.w3.org/2000/svg" p-id="2359" xmlns:xlink="http://www.w3.org/1999/xlink" width="64" height="64"><defs><style type="text/css"></style></defs><path d="M752.128 939.008c-9.728 0-20.992-3.072-30.208-8.192l-207.872-103.936-209.408 103.936c-20.992 11.264-48.128 9.728-67.072-4.608s-30.208-39.936-25.6-64l43.008-223.744-164.864-153.6c-17.408-17.408-24.064-44.544-17.408-67.072 8.192-24.064 27.136-41.472 52.736-45.056l228.864-41.472 102.4-207.872c11.264-22.528 33.792-36.864 57.344-36.864s48.128 14.336 57.344 36.864l102.4 207.872 228.864 39.936c24.064 3.072 44.544 20.992 51.2 45.056 8.192 24.064 1.536 49.664-15.872 67.072L773.12 638.464l41.472 223.744c4.608 25.6-6.656 49.664-25.6 64-9.728 8.192-22.528 12.8-36.864 12.8z" fill="#1C5DFF" p-id="2360"></path></svg>