<?xml version="1.0" standalone="no"?><!DOCTYPE svg PUBLIC "-//W3C//DTD SVG 1.1//EN" "http://www.w3.org/Graphics/SVG/1.1/DTD/svg11.dtd"><svg t="1506233397466" class="icon" style="" viewBox="0 0 1024 1024" version="1.1" xmlns="http://www.w3.org/2000/svg" p-id="2236" xmlns:xlink="http://www.w3.org/1999/xlink" width="64" height="64"><defs><style type="text/css"></style></defs><path d="M532.231208 808.207832C520.029122 802.930318 502.372152 802.911738 490.127102 808.207832L278.87504 899.576272C257.674461 908.745717 246.366614 900.527091 248.53567 877.533429L270.151742 648.386379C271.400304 635.150664 265.961674 618.352144 257.140859 608.342994L104.963831 435.664746C89.691832 418.33531 94.013892 405.041213 116.55244 399.998675L341.16397 349.74645C354.137709 346.843842 368.433421 336.480368 375.226907 324.998277L492.428394 126.90881C504.190358 107.029186 518.169386 107.031608 529.929918 126.90881L647.131405 324.998277C653.901054 336.440082 668.174922 346.833622 681.194342 349.74645L905.805872 399.998675C928.347165 405.041827 932.664618 418.337421 917.39448 435.664746L765.217453 608.342994C756.427587 618.317026 750.95361 635.104061 752.206568 648.386379L773.822642 877.533429C775.991962 900.529893 764.681267 908.7446 743.48327 899.576272L532.231208 808.207832 532.231208 808.207832ZM519.528155 837.578437 730.780216 928.946877C774.307328 947.772749 810.135894 921.751253 805.681206 874.528123L784.065133 645.381072C783.642744 640.903424 786.266315 632.85772 789.225098 629.500333L941.402125 456.822083C972.757211 421.242854 959.080933 379.126779 912.792493 368.77069L688.180963 318.518464C683.791942 317.53651 676.95075 312.555085 674.671998 308.703627L557.470512 110.614159C533.32191 69.799115 489.040939 69.791445 464.887798 110.614159L347.686312 308.703627C345.396136 312.574394 338.544475 317.541408 334.177347 318.518464L109.565818 368.77069C63.286075 379.124834 49.595208 421.23617 80.956186 456.822083L233.133213 629.500333C236.106829 632.874552 238.713461 640.92576 238.293179 645.381072L216.677106 874.528123C212.223254 921.742381 248.042803 947.776286 291.578094 928.946877L502.830157 837.578437C506.958128 835.793051 515.420774 835.801958 519.528155 837.578437ZM512 384C432.470997 384 368 448.470997 368 528 368 536.836555 375.163445 544 384 544 392.836555 544 400 536.836555 400 528 400 466.144109 450.144109 416 512 416 520.836555 416 528 408.836555 528 400 528 391.163445 520.836555 384 512 384Z" fill="#3a72ff" p-id="2237"></path></svg>