<?xml version="1.0" standalone="no"?><!DOCTYPE svg PUBLIC "-//W3C//DTD SVG 1.1//EN" "http://www.w3.org/Graphics/SVG/1.1/DTD/svg11.dtd"><svg t="1505799727067" class="icon" style="" viewBox="0 0 1024 1024" version="1.1" xmlns="http://www.w3.org/2000/svg" p-id="1057" xmlns:xlink="http://www.w3.org/1999/xlink" width="64" height="64"><defs><style type="text/css"></style></defs><path d="M631.808 297.984c-0.512 2.56-1.024 5.632-2.048 8.192-6.144 23.552-27.136 39.936-51.712 39.936h-394.24c-25.6 0-46.08-14.848-53.248-38.4-1.024-3.072-1.536-6.656-2.56-9.728v-11.776c0-0.512 0.512-1.024 0.512-2.048 3.072-22.016 18.944-39.424 40.448-45.056 2.56-0.512 4.608-1.024 7.168-1.536h406.528c0.512 0 1.024 0.512 2.048 0.512 23.04 4.096 37.888 17.408 44.544 39.424 1.024 2.56 1.536 5.632 2.048 8.192l0.512 12.288z m261.12 218.624c-0.512 2.56-1.024 5.632-2.048 8.192-6.144 23.552-27.136 39.936-51.712 39.936h-655.36c-25.6 0-46.08-14.848-53.248-38.4-1.024-3.072-1.536-6.656-2.56-9.728v-11.776c0.512-2.56 1.024-5.632 2.048-8.192 6.144-23.552 27.136-39.936 51.712-39.936h654.848c23.552 0 43.008 12.288 51.712 33.28 2.048 4.608 3.072 10.24 4.608 15.36v11.264zM128.512 721.92c0.512-2.56 1.024-5.632 2.048-8.192 6.144-23.552 27.136-39.936 51.712-39.936h552.448c23.552 0 43.008 12.288 51.712 33.28 2.048 4.608 3.072 10.24 4.608 15.36v11.776c0 0.512-0.512 1.536-0.512 2.048-3.072 21.504-19.456 39.424-40.96 44.544-2.048 0.512-4.608 1.024-7.168 1.536H176.64c-0.512 0-1.024-0.512-2.048-0.512-21.504-3.072-38.912-18.432-44.544-39.936-0.512-2.56-1.024-5.12-2.048-7.68l0.512-12.288z" fill="#ffffff" p-id="1058"></path></svg>