<?xml version="1.0" standalone="no"?><!DOCTYPE svg PUBLIC "-//W3C//DTD SVG 1.1//EN" "http://www.w3.org/Graphics/SVG/1.1/DTD/svg11.dtd"><svg t="1505975871013" class="icon" style="" viewBox="0 0 1024 1024" version="1.1" xmlns="http://www.w3.org/2000/svg" p-id="1118" xmlns:xlink="http://www.w3.org/1999/xlink" width="64" height="64"><defs><style type="text/css"></style></defs><path d="M144.32768 707.15904L48.39424 859.45344c-4.79744 9.58976 0 21.58592 11.99616 21.58592l129.50528 7.18848c4.79744 0 7.19872 2.40128 9.59488 4.80256l79.13984 105.52832c7.19872 7.18848 19.18976 7.18848 23.98208 0l89.9328-151.09632c4.80256-7.1936 2.40128-14.39744-4.79744-19.18976L163.5072 702.3616c-7.18848-2.39104-14.38208 0.00512-19.17952 4.79744z m711.10144-2.39616l95.9232 152.28928c4.79744 9.6 0 21.59104-11.98592 21.59104l-128.31744 7.1936c-4.79232 0-7.18848 2.39104-9.58976 4.79232l-79.14496 105.5232c-7.1936 7.19872-19.18976 7.19872-23.9872 0l-91.136-149.89312c-4.79744-7.18848-2.39616-14.38208 4.80256-19.18464l224.23552-125.91104c7.20896-5.99552 14.40256-3.59936 19.2 3.59936z m-19.18976-520.43264L534.05696 12.8512c-21.59104-11.98592-50.36032-11.98592-71.95136 0L161.11616 181.93408c-21.58592 11.98592-35.97312 35.97312-35.97312 59.9552v341.76c0 23.9872 14.39232 47.96416 35.97312 59.9552l303.38048 171.47904c21.58592 11.99104 50.36544 11.99104 71.95136 0l300.98944-166.68672c21.58592-11.99104 35.97312-35.968 35.97312-59.95008v-341.76c-1.19808-26.38336-15.58528-50.36544-37.1712-62.35648z m-142.69952 145.1008l-176.27648 255.42144c-4.80256 7.1936-14.39232 11.99104-23.98208 11.99104-9.59488 0-19.19488-4.79744-23.9872-11.99104L300.21632 329.43104c-9.59488-11.99104-4.79744-31.1808 7.19872-38.3744 11.99104-7.1936 31.17568-4.80256 38.36928 7.1936l145.1008 219.4432 152.28928-221.84448c9.59488-11.99104 26.38336-16.78848 38.3744-7.19872 19.18976 12.00128 21.5808 28.78976 11.99104 40.7808z" p-id="1119" fill="#cccccc"></path></svg>