<?xml version="1.0" standalone="no"?><!DOCTYPE svg PUBLIC "-//W3C//DTD SVG 1.1//EN" "http://www.w3.org/Graphics/SVG/1.1/DTD/svg11.dtd"><svg class="icon" width="200px" height="200.00px" viewBox="0 0 1024 1024" version="1.1" xmlns="http://www.w3.org/2000/svg"><path d="M512 386.133333c-85.333333 0-155.733333 70.4-155.733333 155.733334s70.4 155.733333 155.733333 155.733333 155.733333-70.4 155.733333-155.733333-70.4-155.733333-155.733333-155.733334z" fill="#999999" /><path d="M883.2 268.8h-162.133333c-8.533333-25.6-38.4-104.533333-81.066667-104.533333H384c-40.533333 0-72.533333 78.933333-81.066667 104.533333H140.8c-29.866667 0-55.466667 25.6-55.466667 57.6v452.266667c0 32 25.6 57.6 55.466667 57.6h742.4c29.866667 0 55.466667-25.6 55.466667-57.6V328.533333c0-32-25.6-59.733333-55.466667-59.733333zM512 736c-106.666667 0-194.133333-87.466667-194.133333-194.133333s87.466667-194.133333 194.133333-194.133334 194.133333 87.466667 194.133333 194.133334-87.466667 194.133333-194.133333 194.133333z m277.333333-349.866667c-17.066667 0-32-14.933333-32-32s14.933333-32 32-32 32 14.933333 32 32-12.8 32-32 32z" fill="#999999" /><path d="M275.2 219.733333c0 10.666667-8.533333 21.333333-21.333333 21.333334H155.733333c-10.666667 0-21.333333-8.533333-21.333333-21.333334 0-10.666667 8.533333-21.333333 21.333333-21.333333h98.133334c10.666667 0 21.333333 8.533333 21.333333 21.333333z" fill="#999999" /></svg>